/* XPM */
static char *f0f8b35634064828f2b2553bc1c9771fpPlvrPFfZngUqsRb[] = {
/* columns rows colors chars-per-pixel */
"50 50 180 2 ",
"   c None",
".  c #F46F00",
"X  c #F47000",
"o  c #F57E00",
"O  c #F58400",
"+  c #F68A00",
"@  c #F58D0E",
"#  c #F79302",
"$  c #F99400",
"%  c #F79903",
"&  c #F99D01",
"*  c #F6910E",
"=  c #F89C0C",
"-  c #F68D14",
";  c #F69415",
":  c #F79915",
">  c #F89C13",
",  c #F6931B",
"<  c #F79E1C",
"1  c #FAA301",
"2  c #FBAC00",
"3  c #FAA40C",
"4  c #FBAA0C",
"5  c #FDB400",
"6  c #FFBC01",
"7  c #FCB30A",
"8  c #FFBE0B",
"9  c #FAA413",
"0  c #FBAD13",
"q  c #F9A51B",
"w  c #F9A81C",
"e  c #FDB312",
"r  c #FFBE12",
"t  c #FDB318",
"y  c #FFBF1B",
"u  c #F69521",
"i  c #F79A25",
"p  c #F6952A",
"a  c #F79B2D",
"s  c #F7A020",
"d  c #FAAA25",
"f  c #F9AE2D",
"g  c #FBB022",
"h  c #FAAE34",
"j  c #F7A23C",
"k  c #F8A43C",
"l  c #FBBD39",
"z  c #EFCC00",
"x  c #FFC101",
"c  c #F0CD01",
"v  c #FFC10B",
"b  c #F1CE0A",
"n  c #F5D100",
"m  c #FFDB01",
"M  c #F1D00E",
"N  c #FEDB0D",
"B  c #FFC115",
"V  c #FFC11B",
"C  c #FBD713",
"Z  c #FFDF13",
"A  c #F4D11C",
"S  c #F8D51C",
"D  c #FFDF1C",
"F  c #FFE000",
"G  c #FFE112",
"H  c #FFC124",
"J  c #FFC12B",
"K  c #FFC82D",
"L  c #F5D327",
"P  c #F8D521",
"I  c #F6D32B",
"U  c #FFC335",
"Y  c #FCC43D",
"T  c #FECC3B",
"R  c #FCD43C",
"E  c #FBD93C",
"W  c #FFE436",
"Q  c #F7A241",
"!  c #F8AB4A",
"~  c #FAB445",
"^  c #FCBD45",
"/  c #FAB548",
"(  c #FBBA4B",
")  c #F8AF53",
"_  c #F9B456",
"`  c #FCBD54",
"'  c #F9B559",
"]  c #FDC641",
"[  c #FCCB43",
"{  c #FFD442",
"}  c #FDDB45",
"|  c #F3D64F",
" . c #FED249",
".. c #FFDD4E",
"X. c #FCC054",
"o. c #FFCD56",
"O. c #FCC15C",
"+. c #FFDE51",
"@. c #FFDD5B",
"#. c #FFE545",
"$. c #FFEA47",
"%. c #FFE24C",
"&. c #FFEA4C",
"*. c #FFE152",
"=. c #FFED55",
"-. c #FFE05C",
";. c #FFF156",
":. c #FFF058",
">. c #FBC265",
",. c #FDCA66",
"<. c #FBC369",
"1. c #FCCC6C",
"2. c #FFD364",
"3. c #F8DC64",
"4. c #FFD46A",
"5. c #F9DC69",
"6. c #FBCB72",
"7. c #FDD274",
"8. c #FFDB76",
"9. c #FCD57C",
"0. c #FEDB7E",
"q. c #FDE167",
"w. c #FFE26D",
"e. c #FFF166",
"r. c #FFE474",
"t. c #FFE47D",
"y. c #FCD680",
"u. c #FDDA82",
"i. c #FEDF89",
"p. c #FFE383",
"a. c #FFEA84",
"s. c #FFE588",
"d. c #FFE789",
"f. c #FEE28C",
"g. c #FFE78F",
"h. c #FEE38C",
"j. c #FFE98F",
"k. c #FFEA8F",
"l. c #FEE98F",
"z. c #FFF583",
"x. c #FFE790",
"c. c #FFE791",
"v. c #FFE990",
"b. c #FFE991",
"n. c #FFEB90",
"m. c #FFE892",
"M. c #FFE993",
"N. c #FFEA93",
"B. c #FFEB93",
"V. c #FFE995",
"C. c #FFE994",
"Z. c #FFEA94",
"A. c #FFEB94",
"S. c #FFEA95",
"D. c #FFEB95",
"F. c #FFE996",
"G. c #FFEB97",
"H. c #FFEA97",
"J. c #FFED95",
"K. c #FFED96",
"L. c #FFEC97",
"P. c #FFED97",
"I. c #FFEC96",
"U. c #FFEE97",
"Y. c #FFEE96",
"T. c #FFEA94",
"R. c #FFED99",
"E. c #FFEE98",
"W. c #FFEF99",
"Q. c #FFEF9A",
"!. c #FFEE9C",
"~. c #FFEE99",
"^. c #FFF197",
"/. c #FFF198",
"(. c #FFF099",
"). c #FFFB9F",
"_. c #FFFC9F",
"`. c #FFFA9E",
"'. c #FFFFA4",
"]. c #FFFFA4",
/* pixels */
"                                        I E } } ....%.......                                        ",
"                                z L E &.=.=.*.*.+.*.*.*.=.=.;.*.....                                ",
"                            z I #.=.*.+.+.+.+.+.+.+.+.+.*...+...=.=...+.                            ",
"                        z S #.*.+.+.+.+...+...+.......+...+.+.+.+.+.*.=.%.r.                        ",
"                      c W +.+.+.+...+...+.+.*.+.+.+.*.*.*.+.....+...+.} r.`.m.                      ",
"                  z m } +.+.+.+.+.+.*.+.+.} { T T T T [  ...*.*.+...} r.G.L.^._.m.                  ",
"                z G ..+.+.+.+.+.+...{ K y 8 6 6 6 6 5 5 0 w f ] ..*.r.G.m.B.m.B.'.d.                ",
"              c Z ..+.....+.+...T B 6 6 6 8 6 r 8 6 v 8 6 6 2 & & ( x./.m.m.m.G.m.e...              ",
"            z N } *.+...+.+.{ r 5 6 6 8 6 8 H 6 6 6 5 6 H 6 6 v 5 # p 6.R.G.G.g.-...:...            ",
"          z m } *...+.+...K 6 6 6 6 3 + / p.g.2.5 * # 4.m.p.U 6 v v 1 O _ G.m.@.} +.+.;.q.          ",
"          m R +.+.+.+...V 6 6 6 8 t - + u.!.L.m.k O ) R.G.!.8.6 8 6 B e o Q @...+.+.} w._.          ",
"        z P +.+...+...B 6 8 6 v x 1 o + i.L.m.L.j X _ R.g.G.0.6 6 6 6 6 e + # ..*.} w.G./.B.        ",
"      c m } +...+.+.B 6 8 6 7 2 t X.) ' h.L.m.B.>.! 1.L.x.R.0.6 8 6 6 6 x 3 O s ..w.G.m.m._.m.      ",
"      n I +.+.+.+.K 5 8 x 4 + , u.R.L.R.m.G.G.m.R.L.L.G.m.R.p.y 6 r 6 x 5 1 > O ~ m.L.m.m.B./.      ",
"    z m } +.+.+.R 6 8 6 6 ; O _ /.x.m.G.m.B.m.m.m.m.m.m.G.m.G.h.U 6 8 2 1 1 1 * O 9.^.m.B.L.`.m.    ",
"    z L *.+.+.+.r 6 8 6 6 3 o Q G./.L.m.G.m.G.R.R.R.L.^.L.m.m.L.h.H 2 3 1 1 1 > O i g.G.m.m.L.L.    ",
"  b m } +...*.T 6 v 6 6 6 6 3 $ _ 9.f.G.m.L.h.0.p.0.y.y.g.R.m.m.R.7.& 9 1 1 1 1 : o <./.m.m.R.z...  ",
"  z C ..+.....B 6 6 6 6 6 6 x 5 + o 6./.m.R.2.6 6 6 2 + u 9.R.m.L.g.d 1 3 1 1 1 = + a x.m.R.p.&...  ",
"  z I +.+.*.{ 6 6 6 6 6 6 6 x 5 ; O 6.R.m.L.4.5 r 6 x 3 O , g.G.m.L.( & 3 1 1 1 & ; + 9.(.p...+.*.  ",
"  m E +.+.+.U 6 6 6 6 6 6 6 x 5 @ O 6./.m.L.4.6 y 6 6 7 @ + 9.L.m.R.X.& 9 1 1 1 1 = o ' a.} ..+.;.  ",
"c m } +.+.+.B 6 6 6 6 6 6 6 x 5 * O 6./.x.R.4.6 y 8 v 0 + + i.G.m.L.` & 3 1 1 1 1 & + i ..%.+.+.;...",
"z m ..+.+.} 6 6 6 6 6 6 6 6 6 5 @ O 6./.m.R.2.5 5 6 5 + O <.R.x.L.m.h & 3 1 1 1 1 1 + +  .*...+.=...",
"z C ..+.+. .6 6 6 6 x 6 6 6 x 5 * O 6.R.m.L.0.2.4.4.<.<.9.L.G.x.R.9.& 1 1 1 1 1 1 1 # + [ *...+.*...",
"z A ..+.+.R 6 6 x 6 6 6 6 6 x 5 ; O 6.R.m.m.L.R.R.R././.L.G.m.m.G.( & w 1 1 1 1 1 1 # + ] *.+.+.*...",
"z A ..+.*.T 6 6 6 6 6 x 6 6 x 5 @ O 6./.m.m.m.m.x.x.m.x.x.G.x.G.G.p.h & 3 1 1 1 1 1 # O Y *.....%.+.",
"z A ..+.+.R 8 6 6 6 6 6 6 6 x 5 @ + 6.R.m.L.L.R.R.!./.R.R./.G.x.G./.f.9 1 1 1 1 1 1 # + l *.+.+.+.+.",
"z A +.+.+.T 6 6 6 x 6 6 6 6 x 5 * O 6./.m.L.p.1.6.7.6.6.6.6.f.R.m.m./.1.& 9 1 1 1 1 # + ] *.+.+.*.%.",
"z C ....*.{ 6 6 6 6 6 x 6 6 6 5 @ O 6./.m.R.,.# 1 & & & # + , 9.L.m.G.g.w 1 1 1 1 1 + + [ *.....*...",
"z m ..+.+.} 8 6 6 6 6 6 6 6 x 5 * + 6.R.x.R.1.& w 9 9 9 3 : O i g.G.m.L.( & 9 1 1 1 + #  .*...+.=...",
"z m } +.+.+.y 6 v 6 6 6 6 6 6 5 * O 6.R.x.R.,.& 9 1 1 1 1 & - + 9.R.m.L.O.& 9 1 1 & + < ..*.+.+.;...",
"  m E +...*.K 6 6 6 x 6 6 6 x 5 @ O 6.R.m.R.,.& 9 1 1 1 1 & - + 9./.m.L.O.& 9 1 1 % O f *.+.+...=.  ",
"  z I +...*.[ 6 6 6 6 6 6 6 6 5 ; O 6./.x.R.,.& w 1 1 1 1 * o j m.G.m.L.~ & 9 1 1 # O ] *...+.+.*.  ",
"  z C ....+...6 6 6 6 6 6 6 x 5 + o 6.R.x.R.,.& 1 1 1 & $ + j i.L.m.L.h.1 1 1 1 1 + : +.+.+.+.*...  ",
"  b m } *...*. .6 8 6 6 6 5 3 $ ' 9.f.G.m.L.h.y.y.y.u.y.9.i.G.L.m.m.^.>.& 3 1 1 * O l *...+.*.;...  ",
"    z L *.} r.m.J 6 r 6 6 = o Q L./.G.x.m.m.L./.R.L.^.^.R.R.G.x.L.(.9.1 1 1 1 & + : ..+.+...*...    ",
"    c m E r.G.R.8.6 8 8 6 : O _ R.x.x.G.L.m.m.m.m.m.m.m.x.x.G.G.R.9.3 1 3 1 1 * + Y +.+.+.+.=...    ",
"      c 3.R.m.B.G.o.6 r x 3 + , y.R.L.G.B.m.L.B.L.L.L.m.B.G.G.p.O.1 1 3 1 1 % O f *.+.+.+.+.*.      ",
"      5.`.L.B.m.G.m.] 6 7 1 = & q ` _ _ g.L.m.m.>.! 6.L.m.L.9.1 & 1 1 1 1 = O < ..+...+.+.=...      ",
"        m.L.L.m.G.m.@.5 & 9 1 1 1 # O + i.m.m.B.j . _ R.j.R.9.& q 1 1 1 1 + , ..+.+.+...*.%.        ",
"          _.B.L.j.@.....g & 3 9 1 < - + u./.L.B.j O ) R.G./.7.1 3 1 1 3 O < ..+...+.+.+.:.          ",
"          j.'.j.@...+.*...^ & 1 9 1 * + ! h.g.>.& * + 6.m.u.h & 9 1 $ O f ..+.+.+.+.+.;...          ",
"            p.#.E *.+.} w.L.7.f & 1 3 9 1 3 d & 1 1 1 1 d 1 1 4 & + : ] *.*.......+.;...            ",
"              z G +...w.G.m.R.x.1.h & & 1 1 1 3 1 1 1 3 1 1 & + : l ..*.+...*...+.=.+.              ",
"                z F 5.L.G.G.m.G.R.j.9.O.d 1 3 & 1 & & & : q f ] ..*.+...+.+.+.+.:...                ",
"                  | `./.m.L.m.m.B.B.(.a.+. . .T Y Y Y [  ...*.*.+...+.+.+.+.*.=...                  ",
"                      B.`.m.B.L.m.R.t.....+.*.*.*.*.*.*.*.+...+.+.+.+.+.+.:...                      ",
"                        m.^.`.L.(.a...+.*...........+.+...+.+...+.+.+.=.*.%.                        ",
"                            k.m.t.&.*.+.+.+.+.+...+.+.+...+.+.*.=.;.....                            ",
"                                M A E &.=.=.=.*.+.+.+.*.=.:.=.*.....                                ",
"                                        I E } } ........%...                                        "
};
