/* XPM */
static char *_c1f7384c38c4fc5efe7c00e8691abfcIkvMsEbQwWcoRnBP[] = {
/* columns rows colors chars-per-pixel */
"50 50 150 2 ",
"   c None",
".  c #CB8200",
"X  c #CC8500",
"o  c #CD8600",
"O  c #CD8700",
"+  c #CF8900",
"@  c #CF8A00",
"#  c #D08A00",
"$  c #D08B00",
"%  c #D18B00",
"&  c #D18C00",
"*  c #D18D00",
"=  c #D28C00",
"-  c #D28D00",
";  c #D28E00",
":  c #D38E00",
">  c #D38F00",
",  c #D48F00",
"<  c #D39000",
"1  c #D39001",
"2  c #D49000",
"3  c #D49001",
"4  c #D49002",
"5  c #D49102",
"6  c #D59102",
"7  c #D49103",
"8  c #D59103",
"9  c #D49104",
"0  c #D59104",
"q  c #D59205",
"w  c #D59206",
"e  c #D69306",
"r  c #D69307",
"t  c #D7940A",
"y  c #D7940B",
"u  c #D7950C",
"i  c #D8960E",
"p  c #D8960F",
"a  c #D99711",
"s  c #D99811",
"d  c #D99812",
"f  c #DA9812",
"g  c #DA9914",
"h  c #DB9B17",
"j  c #DC9B17",
"k  c #DD9C19",
"l  c #DD9D1A",
"z  c #DE9E1C",
"x  c #DE9F1C",
"c  c #DFA01E",
"v  c #E0A01E",
"b  c #E0A11E",
"n  c #E0A11F",
"m  c #E0A120",
"M  c #E1A220",
"N  c #E1A221",
"B  c #E2A322",
"V  c #E2A422",
"C  c #E2A423",
"Z  c #E3A524",
"A  c #E4A625",
"S  c #E4A726",
"D  c #E5A726",
"F  c #E5A727",
"G  c #E5A827",
"H  c #E6A928",
"J  c #E6A929",
"K  c #E7AA29",
"L  c #E7AB2A",
"P  c #E8AB2A",
"I  c #E8AB2B",
"U  c #E8AC2B",
"Y  c #E9AC2C",
"T  c #E9AD2C",
"R  c #EAAD2C",
"E  c #EAAD2D",
"W  c #EBAF2E",
"Q  c #EBB02F",
"!  c #ECB12F",
"~  c #EDB231",
"^  c #EEB332",
"/  c #EFB533",
"(  c #F0B634",
")  c #F1B735",
"_  c #F2B836",
"`  c #F2B936",
"'  c #F2B937",
"]  c #F3B937",
"[  c #F3BA37",
"{  c #F3BA38",
"}  c #F4BA38",
"|  c #F4BB38",
" . c #F4BB39",
".. c #F5BC39",
"X. c #F5BC3A",
"o. c #F6BD3A",
"O. c #F6BE3B",
"+. c #F7BE3B",
"@. c #F8BF3C",
"#. c #F8C03C",
"$. c #F8C03D",
"%. c #F9C03D",
"&. c #F9C13D",
"*. c #FAC23E",
"=. c #FAC23F",
"-. c #FAC33F",
";. c #FBC33F",
":. c #FBC43F",
">. c #FCC440",
",. c #FCC540",
"<. c #FDC540",
"1. c #FCC541",
"2. c #FDC541",
"3. c #FDC641",
"4. c #FDC642",
"5. c #FDC742",
"6. c #FDC643",
"7. c #FEC642",
"8. c #FEC742",
"9. c #FFC742",
"0. c #FEC743",
"q. c #FFC743",
"w. c #FFC744",
"e. c #FDC843",
"r. c #FEC842",
"t. c #FFC842",
"y. c #FEC843",
"u. c #FFC843",
"i. c #FFC943",
"p. c #FFCA43",
"a. c #FFC844",
"s. c #FFC944",
"d. c #FFCA44",
"f. c #FFCB44",
"g. c #FFCA45",
"h. c #FFCB45",
"j. c #FFCB46",
"k. c #FFCD44",
"l. c #FFCD45",
"z. c #FFCE45",
"x. c #FFCF45",
"c. c #FFCC46",
"v. c #FFCD47",
"b. c #FFD246",
"n. c #FFD447",
"m. c #FFD547",
"M. c #FFD647",
"N. c #FFD548",
"B. c #FFD648",
"V. c #FFD848",
/* pixels */
"                                        0.a.y.9.y.y.9.y.y.0.                                        ",
"                                y.y.y.m.N.b.l.l.y.y.l.b.b.N.m.y.y.y.                                ",
"                            y.y.N.l.9.9.9.0.9.9.9.y.y.a.0.0.9.0.l.N.9.y.                            ",
"                        y.l.m.y.y.y.y.9.y.y.a.a.a.a.a.a.a.9.9.y.y.y.a.m.l.y.                        ",
"                      y.m.a.y.y.y.y.a.a.a.9.#.O.] X.O.@.,.a.a.l.y.9.y.9.y.N.9.                      ",
"                  y.m.y.y.9.9.y.l.y.X.E x u * * $ $ * 5 u x E O.9.l.y.9.y.a.a.m.y.                  ",
"                y.V.y.y.9.9.a.9.^ j * $ @ * 5 5 , 5 5 , , * @ * j / y.a.y.9.y.9.V.y.                ",
"              9.m.y.y.y.y.a.) a $ * , 9 5 5 5 5 , 5 , 5 , 5 9 * * @ d ] a.a.y.a.y.N.y.              ",
"            y.m.y.y.9.a.9.N @ * 5 5 5 5 5 5 5 5 5 * 5 , 5 , 5 , , 9 * $ B 9.a.a.y.y.m.y.            ",
"          9.V.y.y.9.a.@.i $ 5 5 * * 5 * 5 * 5 * 5 9 * 5 , 5 , 5 5 , 5 5 $ i #.a.y.y.y.V.y.          ",
"          m.y.9.9.a.O.5 * 9 5 5 5 5 5 5 * 5 5 y X.9.E , 9 , 5 , , 5 , 5 9 , , +.a.y.y.y.m.          ",
"        y.y.y.9.a.#.5 * 5 * 5 * 5 * 5 5 * * X L l.0.0.9 $ * 5 5 5 , 5 , , 5 * 5 #.a.y.y.a.y.        ",
"      y.m.y.y.y.,.u * 5 * 5 5 5 5 5 * $ u H / #.a.9.e.{ I l * * 5 5 , 5 5 5 5 * p 9.9.9.y.m.y.      ",
"      l.y.9.y.a.C @ 5 5 5 5 5 * 5 * 5 ! e.a.l.y.,.e.9.a.a.a.O.D , * 5 , * 5 * 5 * C a.9.9.y.k.      ",
"    y.N.9.9.a.) * 5 5 * * 5 5 5 5 q O.a.y.9.e.y.a.a.9.9.9.9.a.a.] , 5 5 5 5 5 5 5 @ ) a.9.9.m.y.    ",
"    9.0.a.y.9.d * 5 5 5 5 * 5 * * ] a.y.9.y.a.a.a.,.y.y.9.9.y.y.l.N $ 5 * 5 * 5 5 5 p e.y.y.y.y.    ",
"  9.N.y.y.a.^ @ 5 * 5 5 5 , , $ x a.y.y.y.l.O.] y.9.9.9.a.a.9.9.a.C * 5 5 5 * 5 5 5 $ ^ l.y.y.m.9.  ",
"  9.b.y.y.9.h * 5 5 * 5 * , 9 $ ^ a.9.y.a...$ b a.y.;.i G #.a.a.] 5 * 5 5 * 5 5 * 5 * j y.y.9.l.9.  ",
"  y.9.y.a.O.* 5 5 5 5 * 5 5 , * ] l.9.9.a.C @ C a.y.#.5 @ 5 c N * , 5 * 5 5 5 5 5 , 5 * ..a.y.9.y.  ",
"  m.y.y.a.E @ 5 * 5 5 5 * 5 5 * { a.y.,.a.I . C l.y.:.9 5 5 * @ 5 , 5 5 5 * 5 * * , 5 $ T a.9.9.m.  ",
"0.m.9.0.a.c @ 5 5 * 5 5 5 * 5 $ / a.9.,.a.y.C C l.a.:.q 5 5 5 5 5 , 5 5 * 5 * 5 5 5 5 $ z y.9.9.m.9.",
"y.b.9.a.:.y 5 5 5 5 * 5 5 , 5 $ S l.9.y.y.y.y.:.9.a.#.* @ * 5 , , 5 * 5 5 5 5 5 * 5 5 * y 9.y.y.b.y.",
"y.l.0.a.#.5 5 5 5 5 5 5 5 * 5 , 5 #.a.y.y.9.,.y.9.0.y.{ H u $ * 5 * * 5 5 5 * 5 5 * 5 , * #.y.y.l.y.",
"y.l.a.a...@ 5 5 @ 5 * 5 , 5 * 5 @ h 9.a.9.9.y.y.0.0.a.a.a.9.^ i * 5 5 5 5 * 5 , 5 5 5 5 * O.y.y.k.y.",
"y.y.9.a...* 5 5 , 5 * 5 , 5 5 * , $ a X.l.a.a.a.0.0.9.9.9.a.a.,.c @ 5 5 5 5 , 5 * 5 5 5 @ ] a.y.9.9.",
"y.y.9.l.{ @ 5 5 5 , 5 5 5 * 5 5 , 5 * * c / 9.a.0.0.9.9.,.a.y.a.a.l * 5 5 * 5 , 5 , 5 5 @ ..a.y.a.0.",
"y.y.y.a.X.* * 5 , 5 , 5 5 5 * 5 5 * , 5 * * 9 E a.y.y.l.y.y.a.y.a.@.* 5 5 5 , 5 5 5 5 * 5 ..a.y.a.y.",
"y.b.9.a.@., 5 5 5 , 5 , 5 , 5 * 5 9 9 5 5 9 @ c a.a.:.E ,.a.y.y.9.a.x * 5 , 5 , 5 , 5 5 5 #.a.y.b.y.",
"a.b.9.a.9.u * 5 , 5 , 5 5 * , 5 * $ $ , 5 5 * N a.a.#.@ d >.9.9.9.a.H * 5 , 5 , , 5 , * y ,.y.y.b.y.",
"0.N.0.9.y.l $ 5 5 , 5 , 5 , , * i E H 5 @ 5 * S a.a.>.u @ / a.9.9.l.H @ 5 5 , 5 5 , 5 * c a.y.y.m.9.",
"  N.y.9.a.E $ 5 , 5 , 5 5 , * a #.l.a.#.S 5 O N l.y.>.5 @ { l.0.9.a.D $ 5 5 5 , 5 , 5 $ E a.9.9.m.  ",
"  y.a.a.a.X., , 5 , 5 , 5 5 $ I l.y.y.a.a.@.H U a.a.#.a ~ a.0.0.0.9.j * 5 , , 5 , , , , O.a.y.9.y.  ",
"  9.l.y.y.y.j * 5 , , 5 , 5 $ D l.9.9.9.,.a.y.y.y.y.y.9.a.y.y.y.l.] $ 5 5 , 5 , 5 , * j 9.a.y.b.9.  ",
"  9.V.y.9.l.^ $ 5 5 5 , 5 , , 5 ] a.a.y.y.y.y.y.y.y.y.9.y.y.9.a.9.a * , , 5 , 5 5 5 $ / a.y.9.N.9.  ",
"    9.0.y.y.9.a , , , 5 * 5 , * * D #.a.a.y.y.y.y.y.9.9.y.a.a.#.j * 5 5 5 , 5 , , , a y.y.a.9.0.    ",
"    y.N.y.y.a.] $ 5 5 , 5 5 , 5 , $ 5 N ) :.y.a.9.y.y.y.y.#.E 5 , 5 , 5 , 5 , 5 5 $ ) a.9.9.m.a.    ",
"      l.y.y.9.a.N $ 5 5 5 * 5 5 5 5 5 * * 9 d ) a.y.9.H h * $ , , , 5 , 5 , , 9 @ N a.9.9.y.l.      ",
"      y.N.y.y.a.9.i , 5 , 5 5 * 5 * * 5 9 5 O U a.9.y.u @ 5 5 5 , 5 , 5 , 5 , , u 9.a.9.a.m.y.      ",
"        9.a.y.y.a.@.5 , 5 * 5 5 5 5 5 * , 9 $ I l.9.9.a 5 5 5 , 5 , 5 , 5 5 , , #.a.y.y.a.y.        ",
"          N.y.y.0.a.+.5 * 5 5 * * 5 5 5 , 5 , t O.9.E * * 5 , 5 , 5 , 5 5 * 5 +.l.a.y.y.m.          ",
"          y.V.y.a.9.a.#.p @ 9 5 , , 5 * 5 5 , * , 9 * , , 5 , 5 5 5 5 5 @ u #.a.9.a.y.V.y.          ",
"            y.V.y.a.y.a.,.C * * 9 , , 5 5 * 5 5 5 , 5 5 5 , 5 , 5 5 * @ C 9.a.9.y.y.N.y.            ",
"              y.N.y.y.9.y.a.) d $ * 5 5 5 5 , * , 5 5 , , 5 9 5 * $ d ] a.a.y.y.y.N.y.              ",
"                y.V.9.a.y.9.a.9.^ j * $ * * , 5 , 5 , 5 * * $ * j ^ y.a.y.a.y.y.V.y.                ",
"                  y.m.a.y.y.9.y.y.y.O.U x y 5 * * $ $ , u c L O.9.a.a.y.y.y.a.m.y.                  ",
"                      y.m.y.9.y.y.y.y.l.y.:.#.O.X.X.O.@.,.a.l.a.9.9.y.y.y.m.y.                      ",
"                        y.l.m.9.y.y.y.9.y.y.a.a.a.a.a.a.a.9.9.y.y.a.y.m.l.y.                        ",
"                            y.y.m.l.9.9.9.y.y.y.y.9.9.y.0.0.9.9.b.N.9.y.                            ",
"                                y.9.y.m.m.b.l.k.a.y.a.b.b.m.m.y.9.9.                                ",
"                                        9.y.y.9.9.9.y.y.y.9.                                        "
};
