/* XPM */
static char *_4811859685846d9a7a9ece7cf50cf97AK9BLJ3HvlZEB9Vs[] = {
/* columns rows colors chars-per-pixel */
"60 62 93 2 ",
"   c #F7C34B",
".  c #F7C34D",
"X  c #F7C44E",
"o  c #F7C54F",
"O  c #F7C551",
"+  c #F7C552",
"@  c #F7C553",
"#  c #F7C654",
"$  c #F7C755",
"%  c #F7C756",
"&  c #F7C757",
"*  c #F7C758",
"=  c #F7C759",
"-  c #F7C95B",
";  c #F7C95D",
":  c #F8C95E",
">  c #F8C95F",
",  c #F8C960",
"<  c #F8CA61",
"1  c #F9CB64",
"2  c #F9CC66",
"3  c #F9CC68",
"4  c #F9CD69",
"5  c #F9CE6B",
"6  c #F9CF6F",
"7  c #F9D071",
"8  c #F9D072",
"9  c #F9D074",
"0  c #F9D075",
"q  c #F9D37B",
"w  c #F9D37D",
"e  c #F9D47E",
"r  c #F9D480",
"t  c #FAD582",
"y  c #FAD684",
"u  c #FAD785",
"i  c #FAD788",
"p  c #FAD78A",
"a  c #FADA8F",
"s  c #FBDA91",
"d  c #FBDA92",
"f  c #FADC95",
"g  c #FADC96",
"h  c #FADD9B",
"j  c #FADF9F",
"k  c #FBDFA1",
"l  c #FBE0A2",
"z  c #FBE1A7",
"x  c #FBE1A8",
"c  c #FBE3AB",
"v  c #FBE3AC",
"b  c #FBE4AF",
"n  c #FBE4B1",
"m  c #FBE4B2",
"M  c #FBE5B3",
"N  c #FBE6B5",
"B  c #FBE6B6",
"V  c #FBE7B7",
"C  c #FBE7B9",
"Z  c #FBE7BA",
"A  c #FBE8BA",
"S  c #FCE8BC",
"D  c #FCE8BD",
"F  c #FCE9C1",
"G  c #FCEAC3",
"H  c #FCEBC4",
"J  c #FCEBC5",
"K  c #FCECC7",
"L  c #FCECC8",
"P  c #FCECC9",
"I  c #FCEDCB",
"U  c #FCEDCC",
"Y  c #FCEFCF",
"T  c #FCF0D0",
"R  c #FCF0D1",
"E  c #FDF2D6",
"W  c #FDF2D8",
"Q  c #FDF3DA",
"!  c #FDF4DD",
"~  c #FDF4DF",
"^  c #FDF6E3",
"/  c #FEF6E4",
"(  c #FEF7E7",
")  c #FEF7E8",
"_  c #FEF8EA",
"`  c #FEFAEE",
"'  c #FEFAF0",
"]  c #FEFBF3",
"[  c #FFFBF4",
"{  c #FFFCF7",
"}  c #FFFDF9",
"|  c #FFFEFB",
" . c white",
/* pixels */
"                                                                                                                        ",
"                                                                                                                        ",
"                                                  .       .                                                             ",
"                                            . # ; 4 8 q e t y t w 0 4 , # O                                             ",
"                                      . O O - p B E / _ / _ _ ] ` ) ! D g > O . o                                       ",
"                                    . 6 a R ` _ U c t 2 2 p ^  . . . . . .| ^ h 6 o                                     ",
"                            o   = 6 c U E H l w 4 ; O # 0 W  . . . . . . . . .| / m 8 -                                 ",
"                          . O ; d ^ / c 0 O .       O 4 E |  . . . . . . . . . .| ` ^ d ; O o                           ",
"                          O 0 P / m , # O           8 U  . . . . . . . . . . .| c , B / P q O .                         ",
"                        ; a ! P p , .         . o 6 R |  . . . . . . . . . .] c , O 4 H  .` k -                         ",
"                    o ; d ^ D 1 O o           O 4 H  . . . . . . . . . . . .v ; o # y |  . .{ l ; O                     ",
"                    ; z / b O               . 6 P  . . . . . . . . . . .{ v o   # d {  . . . .| m ;                     ",
"                  - a / d ,             .   1 H |  . . . . . . . . . .| m ;   - d ]  . . . . . .| k ; .                 ",
"              . O a / b >               O 4 H  . . . . . . . . . . .| B 1 . O d `  . . . . . . . .| k O .               ",
"              O 0 ! D O               o 1 F  . . . . . . . . . . .| C = . # y ]  . . . . . . . . . .` q O               ",
"              ; U P 1                 2 C |  . . . . . . . . . .| C ; . # t `  . . . . . . . . . . .| H ;               ",
"            = a / y O             o > F |  . . . . . . . . . .| B 2 . O d `  . . . . . . . . . . ./ B _ d -             ",
"            8 ^ B ,             o ; b  . . . . . . . . . . .| D , . # e `  . . . . . . . . . . .` e 4 m ^ 0             ",
"          X b ^ > o             > c |  . . . . . . . . . . .K # . O q )  . . . . . . . . . . .] e # & t { A o           ",
"      . . 4 U c #           . > A |  . . . . . . . . . .| F 6 . O p )  . . . . . . . . . . ._ p O # y _  ./ 6 o         ",
"        O d E q O         O ; c |  . . . . . . . . . . .P 4 . O w /  . . . . . . . . . . .` d O O q ^  . .| h O         ",
"        O R F O           ; v  . . . . . . . . . . .| U - . O 6 /  . . . . . . . . . . .[ t O O 8 ^  . . . .! O         ",
"      . ; ` j .         ; c |  . . . . . . . . . . .P 4 . O w /  . . . . . . . . . . .` p ; O 0 ^  . . . . .| 1 o       ",
"    X O p ) w       o - c {  . . . . . . . . . . .U 8 o O t !  . . . . . . . . . . .] j # O e !  . . . . . . .f #       ",
"      > N P 4 X     ; k |  . . . . . . . . . . .Y 1 . O 6 ^  . . . . . . . . . . .] p # O 6 ^  . . . . . . . .F ; .     ",
"      4 E c >     - h |  . . . . . . . . . . .E , o o 6 !  . . . . . . . . . . .` a - O 4 W  . . . . . . . . .W 4       ",
"      8 ^ t o o = c {  . . . . . . . . . . .R 0 X . q W  . . . . . . . . . . .` k O O 0 W  . . . . . . . . . ._ 0       ",
"      q _ 2 o = f {  . . . . . . . . . . .W 6 o O 4 E  . . . . . . . . . . .| g ; O 4 E  . . . . . . . . . . .` w       ",
"      t / , = d {  . . . . . . . . . . .! 2 O . 2 W |  . . . . . . . . . .| h = o , E  . . . . . . . . . . .| ` t       ",
"      t _ 6 j {  . . . . . . . . . . .E 0 o o 0 W  . . . . . . . . . . .] j = O 8 E  . . . . . . . . . . .{ b _ y       ",
"      t / j `  . . . . . . . . . . .^ q O . 8 U  . . . . . . . . . . .| c > . 8 P |  . . . . . . . . . .| v 8 _ t       ",
"      t ] |  . . . . . . . . . . ./ 4 o o ; E  . . . . . . . . . . .| z ;   = R  . . . . . . . . . . . .k ; 2 / w       ",
"      w `  . . . . . . . . . . ./ 8 O   4 E  . . . . . . . . . . .{ j - O 1 U  . . . . . . . . . . .{ z ; O 2 _ q       ",
"      8 _  . . . . . . . . . .^ y O O 6 P  . . . . . . . . . . .| m ; o 6 H  . . . . . . . . . . .| m ; o O t / 8       ",
"      4 !  . . . . . . . . ._ 0 O o , U |  . . . . . . . . . . .z , O ; F  . . . . . . . . . . . .l ;     - c E 4       ",
"      , D  . . . . . . . ./ 0 O . , P |  . . . . . . . . . .| m > o - D |  . . . . . . . . . .| m > o     4 P V ;       ",
"      # f  . . . . . . .^ y O . 6 H  . . . . . . . . . . .| C , o 4 F  . . . . . . . . . . .| C > o     X e / p # o     ",
"      o ,  . . . . . ./ q O o , D |  . . . . . . . . . .| m 1 . > D |  . . . . . . . . . .| C ,         X l ` - o       ",
"        # !  . . . .` 0 O . # D |  . . . . . . . . . . .C 1 . # D |  . . . . . . . . . . .D 1 .         O F R O         ",
"        O h |  . .) e o o 1 C  . . . . . . . . . . .| C 1 O 1 D  . . . . . . . . . . .| C 1 O         O q E a O         ",
"        X 8 ^  .` p O o > m |  . . . . . . . . . . .H 2 . 1 m |  . . . . . . . . . . .H 4 o           $ c U 4           ",
"          X A | p = o o B |  . . . . . . . . . . .H 4 o O B |  . . . . . . . . . . .D 4 . .         X > _ v o           ",
"            0 ^ B , , b |  . . . . . . . . . . .F , O ; m |  . . . . . . . . . .| F , O             > M ! 8 X           ",
"            - d ^ h v |  . . . . . . . . . .| U 8 O , v {  . . . . . . . . . . .U 6 O o         X O i ^ s =             ",
"              ; P _ |  . . . . . . . . . . .F 6 . # v  . . . . . . . . . . . .P 6                 2 P P ;               ",
"              O 0 _  . . . . . . . . . . .P 1 O # c ]  . . . . . . . . . . .P 8 o               O D ! 0 O               ",
"              o # l {  . . . . . . . . .P 6 o ; l [  . . . . . . . . . . .R 6 O               > m ^ s O X               ",
"                . ; k |  . . . . . .| R 4   - j |  . . . . . . . . . . .E 6 .               > d / s =                   ",
"                    > m |  . . . . .R 6   . g [  . . . . . . . . . . .W 0                 O v _ z >                     ",
"                    o ; j |  . . .R 6 O = g [  . . . . . . . . . . .W 6 # O           O , D ^ s = X                     ",
"                        > j `  .^ y # > d ]  . . . . . . . . . . .! 0 O         X X , y P ! a = X                       ",
"                          O q R / N , g ]  . . . . . . . . . . .! e           O # , N ^ U 0 O X                         ",
"                          X O > d / ) |  . . . . . . . . . . ./ 6 #       . O 0 c ^ ^ d ; O .                           ",
"                                = 8 m ^  . . . . . . . . . .! e # O - 4 e j H E R v 8 =                                 ",
"                                .   o 6 h ! | |  . . . . ./ y 2 2 t c U _ ` R a 4 .                                     ",
"                                      o O # ; g F W ) ] [ ` _ _ _ / E C p - O O .                                       ",
"                                            o O , 2 0 e t t y e w 8 4 ; # .                                             ",
"                                                O                     .                                                 ",
"                                                                                                                        ",
"                                                                                                                        ",
"                                                                                                                        ",
"                                                                                                                        "
};
