/* XPM */
static char *_f6a17ae10894765c42e8cc52098cb0dssjCWEzb3LnSQMOK[] = {
/* columns rows colors chars-per-pixel */
"50 50 126 2 ",
"   c None",
".  c black",
"X  c #00091E",
"o  c #001423",
"O  c #4A0000",
"+  c #541B00",
"@  c #664207",
"#  c #6A491F",
"$  c #6B4C27",
"%  c #626363",
"&  c gray43",
"*  c gray44",
"=  c #AD0000",
"-  c #B10000",
";  c #BF0000",
":  c #B31400",
">  c #B31B00",
",  c #B32301",
"<  c #B4270B",
"1  c #B4280D",
"2  c #B52E1D",
"3  c #B42B15",
"4  c #B5311F",
"5  c #B11720",
"6  c #B21820",
"7  c #B32620",
"8  c #B42D20",
"9  c #B82E21",
"0  c #B3272D",
"q  c #B53120",
"w  c #BB3322",
"e  c #B93F20",
"r  c #B63A2D",
"t  c #B12931",
"y  c #B63C30",
"u  c #C00000",
"i  c #C23522",
"p  c #C93624",
"a  c #D13825",
"s  c #BA4021",
"d  c #BE4F20",
"f  c #BF5020",
"g  c #B74137",
"h  c #B84339",
"j  c #CF6E00",
"k  c #C97C00",
"l  c #C05121",
"z  c #C14034",
"x  c #D04537",
"c  c #D04538",
"v  c #CC6C21",
"b  c #D17820",
"n  c #C03C42",
"m  c #B94B42",
"M  c #BA544D",
"N  c #BC5A54",
"B  c #BD5F59",
"V  c #BE635D",
"C  c #BF6661",
"Z  c #C37772",
"A  c #C47975",
"S  c #C57D79",
"D  c #CC8700",
"F  c #CE8A1C",
"G  c #E69100",
"H  c #E99400",
"J  c #EA9900",
"K  c #E89B08",
"L  c #EE9F15",
"P  c #EA9E1F",
"I  c #FAA200",
"U  c #CE8B21",
"Y  c #CF8E30",
"T  c #E2832D",
"R  c #E39422",
"E  c #EA9E22",
"W  c #EA9F2A",
"Q  c #EDA122",
"!  c #EEA428",
"~  c #F2A425",
"^  c #FAA924",
"/  c #EAA033",
"(  c #F0A433",
")  c #FBAB33",
"_  c #9D8B7C",
"`  c #D6994C",
"'  c #C6807D",
"]  c #DFA27A",
"[  c #EEB273",
"{  c #838687",
"}  c #B9BBBB",
"|  c #C98885",
" . c #CB8F8C",
".. c #CB908D",
"X. c #CC9491",
"o. c #D19F9B",
"O. c #D1A09C",
"+. c #EEB984",
"@. c #F0BE8F",
"#. c #EFBE90",
"$. c #F0BE90",
"%. c #D4A6A4",
"&. c #D5A9A7",
"*. c #D3AAAC",
"=. c #D9A3A1",
"-. c #DFB3B1",
";. c #DDBDBB",
":. c #FFC994",
">. c #C6C0BB",
",. c #E8CFBC",
"<. c #F5D5BD",
"1. c #DDD6D6",
"2. c #DDDDDD",
"3. c #E3C4C3",
"4. c #E4CBCA",
"5. c #E6D0CF",
"6. c #F6D9C1",
"7. c #F6DDCA",
"8. c #E7D1D0",
"9. c #FBE5D4",
"0. c #F9E8DC",
"q. c #E0E2E2",
"w. c #F3EBEA",
"e. c gray97",
"r. c #FCF5F1",
"t. c #FFFEFE",
/* pixels */
"                                ^ E E E E E E E E E Q E E E E E E ^                                 ",
"                                ^ E E E P P E E E E E E P P E E E ^                                 ",
"                                ^ E E E Q P E E E E E E E E E E E ^                                 ",
"                          t.t.7.J J +.r.r.0.E P E E E E 0.r.r.+.J J 7.t.t.                          ",
"                        t.t.t.9.G J #.t.t.r.E P E E P E r.t.t.#.J H 9.t.t.t.                        ",
"                          t.t.9.G J #.t.t.r.E P W E P E r.t.t.@.J H 9.t.t.                          ",
"                          :.#.[ K L ` { { _ E E E E E E _ { { ` L K [ $.:.                          ",
"                          I G J Q ! D . . + E E E E E E + . . D ! E J H I                           ",
"                          ) / ! E ~ U X X # E Q E E E E # X X U ! P W / )                           ",
"                          ^ Q E E Q F . . @ E Q E E E E @ . . F Q E E E ^                           ",
"                          ^ E ! / / Y o o $ / / / / / / $ o o Y ( / W E ^                           ",
"                          ^ ! K H J k . . O G G H H H H O . . k J G J ! ^                           ",
"                        b T j ] 6.<.,.} } ;.,.<.<.<.<.<.>.} } ,.<.<.] j T b                         ",
"                        0 n = *.t.t.t.t.t.t.t.t.t.t.t.t.t.t.t.t.t.t.*.= n t                         ",
"                          u = O.t.t.t.t.t.t.t.t.t.t.t.t.t.t.t.t.t.t.o.= u                           ",
"                        ' =.X.4.t.t.t.t.t.t.t.t.t.t.t.t.t.t.t.t.t.t.4.O.-...                        ",
"                  q c - 3.t.t.t.t.t.t.t.t.t.t.t.t.t.t.t.t.t.t.t.t.t.t.t.t.3.- c w                   ",
"                  w z = ;.t.e.t.t.t.t.t.t.t.t.t.t.t.t.t.t.t.t.t.t.t.t.t.t.;.= z q                   ",
"                  4 z = ;.t.t.t.t.t.e.2.2.2.2.2.2.2.2.2.2.2.2.e.t.t.t.t.t.;.= z 4                   ",
"            w p w w h - ;.t.t.t.t.t.2.. . . . . . . . . . . . 2.t.e.t.t.t.;.- h w 4 p q             ",
"            q w q : > = ;.t.t.t.t.t.q.. . . . . . . . . . . . q.t.t.t.t.e.;.= : : q w q             ",
"            q w 1 C S B 4.t.t.e.w.r.1.% * & & & & & & & & * % 1.r.w.t.t.t.4.V S Z 1 w q             ",
"      q w q q y = 8.t.t.t.t.t.8.= - ..t.t.t.t.t.t.t.t.t.t.t.t...- = 5.t.t.t.t.t.4.- y q q w q       ",
"      q w q q y = 8.t.t.t.t.t.8.= - ..t.t.t.t.t.t.t.t.t.t.t.t...= = 8.t.t.t.t.t.4.= y q q w q       ",
"      4 w q q y - 8.t.t.t.r.t.4.= - ..t.t.t.t.t.t.t.t.t.t.t.t...- - 4.t.e.t.t.t.8.= y 8 q w 4       ",
"E E E d 2 w 8 y = 8.t.t.3.3 B m r - ..t.t.t.t.t.t.t.t.t.t.t.t...= r m B 3 ,.t.t.5.= y q q 7 f E E E ",
"~ Q E l 7 q q y = 8.t.t.;.= q < r - ..t.t.t.t.t.t.t.t.t.t.t.t. .- y < q = ;.t.t.8.= y q q 2 f Q Q Q ",
"E E E l 7 q q y = 8.t.t.;.= g q r - ..t.t.t.t.t.t.t.t.t.t.t.t. .- r q g = ;.t.t.8.= y q q 7 f E E E ",
"E E Q f 7 q q q 1 C A A N < q 8 y = ..t.t.t.t.t.t.t.t.t.t.t.t. .- y 4 q 1 N Z Z V 1 q q 4 7 f E E E ",
"E E Q f 7 q q q q : - - > q q q r - ..t.t.t.t.t.t.t.t.t.t.t.t. .- r q 2 q > - - : q q q q 7 f E E E ",
"E E Q f 7 q q q 4 w r r r 4 w w y - X.t.t.t.t.t.t.t.t.t.t.t.t...= r w w w w r r r q q q q 7 l E E E ",
"E E Q f 7 q q q 4 4 4 i 4     q w , M X.| %.t.t.t.t.t.t.%.| X.M < w q     q w 2 2 q q q 8 2 d E E E ",
"E E E f 7 q q q q q q i         i q , - = V t.t.t.t.t.t.C = = , r i         i q q 4 q q q 7 f E E E ",
"^ ^ ^ f 7 q q 4 4 q 4 i 4       w q q h : S t.t.t.t.t.t.S : g q 2 i         i q q q q q q 7 f ^ ^ ^ ",
"      s 8 q q q q 4 4 i q       i 8 q q , M &.&.&.&.%.%.M , q q q i         i q q q q 2 4 w 4       ",
"      8 w 4 q 4 q q 4 i q       i q q 4 q 1 = = = = = = 1 q q 2 q i         i 4 q 4 q q q w q       ",
"      w w q 8 q 4 q 4 i q       i q 8 q q q y y y y y y q q q q 4 i         i 4 q 4 q q q w 4       ",
"      q w q q q q q 4 i q       i q q q q q q 4 q q 4 4 q q q q 4 w         i 4 q q q 4 4 w q       ",
"      q w q q q q q q i q       w q q q q q q 4 q q q q q q 8 q 4 i         w q q q q q q q q       ",
"      q i i w 4 4 w w a q       w 4 4 q q q q q q q q 4 q q q q 4 i         a i w 4 4 w i p q       ",
"      4 w q 4 w w 4 w 4       q q q 4 q q 4 4 q q q q q q q q 8 4 w w       w q q q 4 q w q w       ",
"            4 w w         a w w q q q q q q q q q q 4 q q 4 q q 4 4 w w a q       w w q             ",
"            q p p         w q q q q q q q q q q 2 q q 4 q 4 q q q q q q w         p p 4             ",
"            4 q q         i w 4 q 4 q 4 4 q q 4 q q q 8 q q q q q q q q i         q q w             ",
"                        q i q q q q 4 4 q q q q q q 8 q 2 q q q 4 q q 4 i q                         ",
"                          i q 2 7 7 7 7 7 7 4 q q q q q 2 7 7 7 7 7 2 q i                           ",
"                        q i 8 e d d d d f d 4 q 4 q 4 q d d d d f f s 8 i q                         ",
"                  q i q q q 6 v Q E E E Q R q q q q 8 q R Q E E E Q v 6 q q q i q                   ",
"                  q i q 4 q 5 v Q E E E E R 2 8 q q q 4 R Q E E E Q v 6 4 q q i 4                   ",
"                  4 w 4 q e 5 v Q E E E E P q 8 q q q w R Q E E E Q v 5 4 e 4 w q                   "
};
