/* XPM */
static char *_5577f7c93054804cfcd366f9d744360gsKnkYDFfzuKAgTn[] = {
/* columns rows colors chars-per-pixel */
"40 49 120 2 ",
"   c None",
".  c #9B0100",
"X  c #9B1700",
"o  c #9C1A01",
"O  c #9A2200",
"+  c #962B00",
"@  c #9A2D00",
"#  c #8B3B00",
"$  c #953300",
"%  c #9B3500",
"&  c #953D00",
"*  c #9A3D00",
"=  c #A13E00",
"-  c #8A4100",
";  c #8F4900",
":  c #924500",
">  c #9A4200",
",  c #954A00",
"<  c #994E00",
"1  c #9B5100",
"2  c #985A00",
"3  c #A35400",
"4  c #A95600",
"5  c #A65D07",
"6  c #B35F0D",
"7  c #986200",
"8  c #976E00",
"9  c #967200",
"0  c #967A00",
"q  c #AC630A",
"w  c #AB680A",
"e  c #B36B0E",
"r  c #B96710",
"t  c #B76F10",
"y  c #BC6F11",
"u  c #BA7311",
"i  c #C07513",
"p  c #C37A15",
"a  c #CB7C18",
"s  c #73DE00",
"d  c #7DDC00",
"f  c #7DE000",
"g  c #958400",
"h  c #948D00",
"j  c #9A8B00",
"k  c #8D9300",
"l  c #939300",
"z  c #929C00",
"x  c #989E03",
"c  c #A78F09",
"v  c #B59710",
"b  c #BB9812",
"n  c #8FAE00",
"m  c #91A300",
"M  c #90AC00",
"N  c #8EB600",
"B  c #87BE00",
"V  c #8CBC00",
"C  c #9AB604",
"Z  c #AAAD0C",
"A  c #BCA313",
"S  c #B9B213",
"D  c #BEBF15",
"F  c #C78016",
"G  c #C98117",
"H  c #CC8318",
"J  c #D08219",
"K  c #D8861C",
"L  c #D58C1B",
"P  c #D98C1C",
"I  c #C89917",
"U  c #CD9A19",
"Y  c #DC931E",
"T  c #E1961F",
"R  c #D6AF1D",
"E  c #DDAA1E",
"W  c #C1B516",
"Q  c #C2BE16",
"!  c #CCB719",
"~  c #C7BC18",
"^  c #CAB919",
"/  c #D2B21B",
"(  c #D8B01D",
")  c #E1A71F",
"_  c #E48F20",
"`  c #EE9723",
"'  c #E59A20",
"]  c #EB9D22",
"[  c #F39325",
"{  c #F29C24",
"}  c #E7A021",
"|  c #EDA123",
" . c #F2A424",
".. c #F8A724",
"X. c #F7AA24",
"o. c #FAA924",
"O. c #8CC400",
"+. c #82CB00",
"@. c #8BCB00",
"#. c #98C606",
"$. c #89D600",
"%. c #86DB00",
"&. c #89D900",
"*. c #95D403",
"=. c #98D206",
"-. c #99D907",
";. c #9BD008",
":. c #A0CE0A",
">. c #A9CC0E",
",. c #A4D40A",
"<. c #AFC710",
"1. c #AECB10",
"2. c #B6C413",
"3. c #BDC115",
"4. c #B4CA12",
"5. c #86E100",
"6. c #8DE200",
"7. c #90E400",
"8. c #93E900",
"9. c #C0C116",
/* pixels */
"                  &.7.$.&.$.%.$.&.$.$.&.&.&.$.&.&.$.6.&.                        ",
"                  &.7.$.$.&.$.&.$.%.$.%.$.&.&.$.%.$.6.&.                        ",
"                  &.7.&.&.&.$.$.%.&.$.&.&.$.$.&.$.$.6.&.                        ",
"            &.&.&.&.&.&.&.$.&.&.$.$.$.%.&.$.&.&.$.&.%.&.&.&.&.                  ",
"            &.8.&.&.&.&.&.&.&.$.$.&.$.&.&.$.$.$.&.&.&.&.6.8.&.                  ",
"            &.&.&.&.&.&.&.&.&.$.%.&.&.&.&.&.&.&.&.&.&.&.&.6.&.                  ",
"| ] ]       &.7.&.z 9 0 0 0 0 0 0 0 0 0 0 0 0 0 0 0 9 z &.&.&.      | | |       ",
" ... .      &.&.&.0 O > & & > & & & * * & > * * > > o h &.7.&.      ..o.]       ",
"] ] ]       &.6.5.g > 2 1 1 1 1 1 1 1 1 1 1 1 1 1 2 * j 5.8.&.      ] | ]       ",
"] | |       g j g 2 , < 1 , , 1 , 1 , < 1 , 1 , < < , 7 g j g       ]  .]       ",
"] | ]       * = * < 1 < 1 1 1 1 1 1 < < 1 1 1 1 < 1 1 , * > &       ] | ]       ",
"] ] ]       1 1 < , : : & % * & : : : : ; : % * & : : , 1 3 1       |  .|       ",
"] ] ] | ] | q , , H L P Z B O.A P L L L P A B B Z K Y p , < q { ] | ] | ]       ",
"} ] }  .....w , , Y  .{ 4.d d ^ { | | | { ~ d 5.2.{  .P : , t o...X.] | ]       ",
"] | ] ] ] ] q : , P | ` 1.f 5.~ ' ] ] ] ` Q d f 4.` | L : , e ] ] ] ] | ]       ",
"] ] ] ] ] | q : , P | | v k k U ] ] ] } | U k l b ] | P : , e ] ] ] ]  .]       ",
"| } ' ] } ] q , ; Y { | r $ + J | ] ] ] | a + + y | ] L , , t | ] ] ' | ]       ",
"| | | ] ] { 5 # - L | | t - - H  .] ] ] | G # - u | | L # # q ] ] ] | X.|       ",
"u p p ` } { L H H ' ] | L H G Y | } ] ] | Y G H P | ] T H H L ] | ' u p p       ",
": : ; T } ' | | | { ] ] | | | ] ] ] ' ] ] ] | | | } ] | | | | ] | T : > :       ",
"1 < 1 ]  .| ] ] ] ] ] ] ] ] ' | | |  .| | | ] ] ] ] ] ] ' ` ` { { _ < 3 1       ",
"< < 1 u a a W Q D ) ] ] ] ] | L u p p p u P | ] ] ] ] E 3.3.D D 3.S < < 1       ",
"< 1 1 ; ; ; +.d s / ] ] ] ]  .t # , : , # p | ] ] } ` / s %.d d d +.< < 1       ",
": : : % % @ O.%.$.E [ ` ] ] | t # , : , # p | ] ] ] [ R d $.&.&.6.@.< 3 <       ",
"p p p x m m @.%.%.3.~ Q E ] | L u p p p u P | ] E D ^ 2.d %.@.m M z < < <       ",
"| { | -.f 5.%.%.$.d d s / ` } { X.|  .|  .| } ` ^ s d d $.%.O.o * * < < < 3 3 3 ",
"| ] } =.$.$.$.&.%.$.$.%.R [ ] ` { ] ` ` { ] ] [ / d *.$.$.%.O.& , ; < < < < < < ",
"] ] } ;.%.$.%.$.$.$.$.%.2.^ ^ ^ ^ ^ ! ! ! ! / / 2.d $.$.$.$.#.i p u , < < < < < ",
"] { | ;.%.$.%.$.%.$.&.$.d d d d d d d d d d d d d $.%.$.$.$.>.{ | ' < < 1 < < < ",
"X.X.X.-.%.%.$.%.$.&.$.%.&.&.&.&.%.&.&.%.&.&.&.$.$.%.$.%.d s :.` | Y ; : : < < < ",
"| ] | C V N $.$.%.$.$.%.O.N N N N N N N N O.%.$.$.$.$.=.2.<.D ] | ' u u t 1 < < ",
"      * * % O.%.$.$.$.&.g . * * * * * > . z %.$.$.$.d <.[ ` ] ] ] ] | | ] 1 < 1 ",
"      > > * @.6.&.%.&.5.l * 2 > * * , 1 * m 6.%.%.&.5.1.] | | ] ] ] ] ] ' : ; : ",
"      h h h N V V V V O.g * < 0 h l 8 < * h O.N V V O.Z K L Y ] ] | ] } ' t t t ",
"      &.6.&.9 @ > > > * , 1 @ N 5.5.m @ 2 , * * * * : : , ; w | ] ] ] ] ] | | | ",
"      &.&.%.9 @ > > * * < 1 % N 5.5.m @ 1 > * > > > * & = $ q ` ' ] ] | ] ......",
"      $.&.&.z 0 g g g g 7 < * z O.O.l * < 8 g g g g g g g g c R R E ] ] ] | ] ] ",
"      &.&.&.&.&.%.%.%.5.h * 1 < > > , 2 % m 5.%.&.&.&.&.&.%.%.%.s ;.] | ]       ",
"      &.8.6.&.&.%.$.$.%.g X > > > > * , . m &.&.&.$.$.$.$.&.&.6.6.,...o.]       ",
"      &.&.&.@.O.O.$.$.%.m 9 g 0 0 g 0 0 9 n &.&.&.&.&.&.$.&.&.$.%.;.] | |       ",
"            > 1 % V &.&.&.%.&.&.&.&.&.&.&.&.$.$.$.&.$.$.$.6.&.                  ",
"            1 1 > O.%.&.%.&.&.&.&.7.7.&.6.6.&.&.%.%.&.&.&.8.&.                  ",
"            1 3 > N $.@.@.@.@.$.&.&.&.&.&.$.@.@.@.@.@.@.@.*.@.                  ",
"            < < < < < < 1 1 3               3 , , < < < < 1 <                   ",
"            1 3 < < < < < < 3               4 < 1 1 3 < < 3 <                   ",
"            < 1 < 1 , < < , 3               < < 1 < < < 1 1 1                   ",
"            < 3 < < < < 1 , 3                                                   ",
"            < 1 < < < < 1 < 3                                                   ",
"            1 3 < < < < < , 3                                                   "
};
