/* XPM */
static char *result[] = {
/* columns rows colors chars-per-pixel */
"100 46 237 2 ",
"   c #010001",
".  c #0B0401",
"X  c #0B0607",
"o  c #130100",
"O  c #140C05",
"+  c #1B0C03",
"@  c #150B09",
"#  c #1B0705",
"$  c #1C1206",
"%  c #1D1309",
"&  c #16110A",
"*  c #000011",
"=  c #240B01",
"-  c #260803",
";  c #390000",
":  c #241302",
">  c #2A1502",
",  c #2D1A04",
"<  c #22160B",
"1  c #251A0D",
"2  c #2B1D0C",
"3  c #261804",
"4  c #321C03",
"5  c #341B05",
"6  c #251C14",
"7  c #2A1E11",
"8  c #261B18",
"9  c #2E210A",
"0  c #33220C",
"q  c #39250C",
"w  c #3B290F",
"e  c #372502",
"r  c #2D2112",
"t  c #2B231D",
"y  c #2B2A19",
"u  c #342513",
"i  c #362916",
"p  c #3B2C15",
"a  c #3A2C19",
"s  c #332718",
"d  c #3B301E",
"f  c #000025",
"g  c #2A292C",
"h  c #382E24",
"j  c #3C3124",
"k  c #3B342B",
"l  c #282936",
"z  c #3A3636",
"x  c #431A00",
"c  c #45310A",
"v  c #553903",
"b  c #412E13",
"n  c #402F18",
"m  c #443116",
"M  c #43331A",
"N  c #4C3A1D",
"B  c #4B3718",
"V  c #523D1C",
"C  c #583D18",
"Z  c #452B08",
"A  c #4C3B23",
"S  c #463929",
"D  c #523E21",
"F  c #433C34",
"G  c #463F36",
"H  c #55421E",
"J  c #5B421C",
"K  c #5A4202",
"L  c #62451C",
"P  c #664A1D",
"I  c #634A00",
"U  c #554222",
"Y  c #5B4623",
"T  c #5D4924",
"R  c #5E4A2B",
"E  c #55442C",
"W  c #4B4338",
"Q  c #574934",
"!  c #4D402C",
"~  c #644D25",
"^  c #644C28",
"/  c #6A5126",
"(  c #65512B",
")  c #6C542B",
"_  c #6E582D",
"`  c #715729",
"'  c #735A2C",
"]  c #795E2D",
"[  c #725827",
"{  c #6E5C3C",
"}  c #685635",
"|  c #745D31",
" . c #785F32",
".. c #614F30",
"X. c #7C612F",
"o. c #7C6333",
"O. c #74623A",
"+. c #7B663B",
"@. c #7C673B",
"#. c #6E603F",
"$. c #282A43",
"%. c #363545",
"&. c #2E354D",
"*. c #303C67",
"=. c #413F4B",
"-. c #334779",
";. c #37426C",
":. c #544C42",
">. c #5B5348",
",. c #4A4744",
"<. c #6B5C44",
"1. c #665A49",
"2. c #705F41",
"3. c #796847",
"4. c #796D57",
"5. c #7D715B",
"6. c #6C6048",
"7. c #7B7368",
"8. c #746D67",
"9. c #505572",
"0. c #816632",
"q. c #856A34",
"w. c #8A6D35",
"e. c #836C3A",
"r. c #8A6E39",
"t. c #8E7137",
"y. c #8C723C",
"u. c #87703D",
"i. c #92753A",
"p. c #95793D",
"a. c #9C7D3E",
"s. c #81642F",
"d. c #836C42",
"f. c #816E4C",
"g. c #8C7343",
"h. c #8A744A",
"j. c #947B43",
"k. c #9A7D43",
"l. c #947C4C",
"z. c #957843",
"x. c #87775A",
"c. c #927C56",
"v. c #826F51",
"b. c #86796A",
"n. c #867E71",
"m. c #A7863E",
"M. c #9C8145",
"N. c #9E8349",
"B. c #998459",
"V. c #A48443",
"C. c #AC8A45",
"Z. c #A2844A",
"A. c #A6894E",
"S. c #AD8D4A",
"D. c #A88745",
"F. c #B18E46",
"G. c #B3924C",
"H. c #BB964C",
"J. c #BA954B",
"K. c #A88C55",
"L. c #AE9159",
"P. c #B49453",
"I. c #BE9B52",
"U. c #BC9C5A",
"Y. c #B79856",
"T. c #AF904E",
"R. c #968569",
"E. c #978978",
"W. c #A89668",
"Q. c #B79B67",
"!. c #A8947B",
"~. c #B29A77",
"^. c #A68F66",
"/. c #BFA26A",
"(. c #B8A57B",
"). c #C49C4D",
"_. c #C69E51",
"`. c #CAA34D",
"'. c #C6A054",
"]. c #CCA454",
"[. c #CAA65A",
"{. c #D3AC58",
"}. c #D9B25A",
"|. c #CAA963",
" X c #C6A767",
".X c #D1AE66",
"XX c #D9B666",
"oX c #D8BC76",
"OX c #C7AF75",
"+X c #E1BE6E",
"@X c #D8C078",
"#X c #E9C56C",
"$X c #E9C773",
"%X c #F2D378",
"&X c #32559C",
"*X c #324D8B",
"=X c #3056A1",
"-X c #505C8A",
";X c #948B85",
":X c #988E89",
">X c #9B918C",
",X c #AB9984",
"<X c #AC9B8D",
"1X c #A29487",
"2X c #A89D96",
"3X c #B09F94",
"4X c #AEA29B",
"5X c #AAA296",
"6X c #B4A394",
"7X c #B5A698",
"8X c #BAA687",
"9X c #B4ADAC",
"0X c #B2A9A4",
"qX c #BDBBB4",
"wX c #B9B4B4",
"eX c #B7B1AD",
"rX c #D1BC8F",
"tX c #CCBDA4",
"yX c #E6CA83",
"uX c #F2DB91",
"iX c #FFF79C",
"pX c #F6E69B",
"aX c #C8C3BB",
"sX c #D5CCB1",
"dX c #F6ECB2",
"fX c #F6EBBC",
"gX c #FFFAA1",
"hX c #E3D4B0",
"jX c #C7C6C5",
"kX c #D4D2CE",
"lX c #D9DAD8",
"zX c #D0CAC6",
"xX c #F8F3D2",
"cX c #EEEBD2",
"vX c #E6E7E4",
"bX c #F5F8F6",
"nX c None",
/* pixels */
"nXnXnXnXnXnXnXnXnXnXnXnXnXnXnXnXnXnXnXnXnXnXnXnXnXnXnXnXnXnXnXnXnXnXnX5 B.U.OXP.q.S nXV 7.nXnXnXnXnXnXnXnXnXnX{ nXnXy F.].XXOXc.3 nXnXnXnXnXnXnXnXnXnXnXnXnXnXnXnXnXnXnXnXnXnXnXnXnXnXnXnXnXnXnXnXnXnXnX",
"nXnXnXnXnXnXnXnXnXnXnXnXnXnXnXnXnXnXnXnXnXnXnXnXnXnXnXnXnXnXnXnXnXnXq R.(.(.OX XL.W Q 5XzXn.x nXQ <.} R nXP Q.rX^.N 6.L._..X/.8XB.  nXnXnXnXnXnXnXnXnXnXnXnXnXnXnXnXnXnXnXnXnXnXnXnXnXnXnXnXnXnXnXnXnXnX",
"nXnXnXnXnXnXnXnXnXnXnXnXnXnXnXnXnXnXnXnXnXnXnXnXnXnXnXnXnXnXnXnXnXnX0.[.|.{.yXoXH.e.g.rX2Xb.!.5X5X1.n.4X<XR.R.!./.t.A.[.).+X@X XU.R nXnXnXnXnXnXnXnXnXnXnXnXnXnXnXnXnXnXnXnXnXnXnXnXnXnXnXnXnXnXnXnXnXnX",
"nXnXnXnXnXnXnXnXnXnXnXnXnXnXnXnXnXnXnXnXnXnXnXnXnXnXnXnXnXnXnXnXnXA t.H.{.{.+X}.).a.L.Q.b.<.!.7X0X8.E.4X6Xb.<.E.Q.C.S.).).}.#XXXG.y.p nXnXnXnXnXnXnXnXnXnXnXnXnXnXnXnXnXnXnXnXnXnXnXnXnXnXnXnXnXnXnXnXnX",
"nXnXnXnXnXnXnXnXnXnXnXnXnXnXnXnXnXnXnXnXnXnXnXnXnXnXnXnXnXnXnXnXM ( q.H.].+X%X{.S.Q./.Q.,X,X,X4X4X0X9X4X7X,X!.,XY.).G.J._.XX#X.XT.y.R nXnXnXnXnXnXnXnXnXnXnXnXnXnXnXnXnXnXnXnXnXnXnXnXnXnXnXnXnXnXnXnXnX",
"nXnXnXnXnXnXnXnXnXnXnXnXnXnXnXnXnXnXnXnXnXnXnXnXnXnXnXnXnXnXnXnXN o.i._.].}.#XF.Y.L.L.~.,X,X<X4X4X4XeXwXwX0X2X2X~.~.C.G.J.{.#XXXH.k.~ nXnXnXnXnXnXnXnXnXnXnXnXnXnXnXnXnXnXnXnXnXnXnXnXnXnXnXnXnXnXnXnXnX",
"nXnXnXnXnXnXnXnXnXnXnXnXnXnXnXnXnXnXnXnXnXnXnXnXnXnXnXnXnXnXnXnXM o.a.].].}.C.p.T.c.K.2X3X<X2X5X4X3XeX9X9XqXwXwX0X<Xm.G.y._.$X}.H.V.o.nXnXnXnXnXnXnXnXnXnXnXnXnXnXnXnXnXnXnXnXnXnXnXnXnXnXnXnXnXnXnXnXnX",
"nXnXnXnXnXnXnXnXnXnXnXnXnXnXnXnXnXnXnXnXnXnXnXnXnXnXnXnXnXnXnXnXM ] a.].{.].0.i.P.c.!.0XeX0X5X4X9XjXkXkXkXkXkXjX0X!.G.G.t.C.#XXX'.V.] nXnXnXnXnXnXnXnXnXnXnXnXnXnXnXnXnXnXnXnXnXnXnXnXnXnXnXnXnXnXnXnXnX",
"nXnXnXnXnXnXnXnXnXnXnXnXnXnXnXnXnXnXnXnXnXnXnXnXnXnXnXnXnXnXnXnXr J r.P..XS./ o.S.P.T.~.7XtXhXlXlXbXbXbXbXbXlXtX8XI./.K.d.y. X@XU.0.i nXnXnXnXnXnXnXnXnXnXnXnXnXnXnXnXnXnXnXnXnXnXnXnXnXnXnXnXnXnXnXnXnX",
"nXnXnXnXnXnXnXnXnXnXnXnXnXnXnXnXnXnXnXnXnXnXnXnXnXnXnXnXnXnXnXnXnXB S G ^.B.~ q.a.'.].].'.{.uXxXxXxXxXxXfXhXoX{.{.|.F.h.4.O.W.^.F g nXnXnXnXnXnXnXnXnXnXnXnXnXnXnXnXnXnXnXnXnXnXnXnXnXnXnXnXnXnXnXnXnXnX",
"nXnXnXnXnXnXnXnXnXnXnXnXnXnXnXnXnXnXnXnXnXnXnXnXnXnXnXnXnXnXnXnXnXnX1 Q R.K.v t.C.G.F.Y.[.U.[.@XXXoXyXyX#X@XyXoX'.S.C.l.{ { ~.R.h   nXnXnXnXnXnXnXnXnXnXnXnXnXnXnXnXnXnXnXnXnXnXnXnXnXnXnXnXnXnXnXnXnXnX",
"nXnXnXnXnXnXnXnXnXnXnXnXnXnXnXnXnXnXnXnXnXnXnXnXnXnXnXnXnXnXnXnXN U d.h.h.L.o.J p.G.T.C.I.[.yXdXdXdXdXfXpXyXXX{. XQ.D. .J f.v.3.l.' ^ nXnXnXnXnXnXnXnXnXnXnXnXnXnXnXnXnXnXnXnXnXnXnXnXnXnXnXnXnXnXnXnXnX",
"nXnXnXnXnXnXnXnXnXnXnXnXnXnXnXnXnXnXnXnXnXnXnXnXnXnXnXnXnXnXH g.k.y.k.[ v ..v.( Z ' g.L.]._.uXiXiXiXiXiXiX%X}.].^.x.K v 3.3.v H q.r.i.w.) nX. nXnXnXnXnXnXnXnXnXnXnXnXnXnXnXnXnXnXnXnXnXnXnXnXnXnXnXnXnX",
"nXnXnXnXnXnXnXnXnXnXnXnXnXnXnXnXnXnXnXnXnXnXnXnXnXnXnXV r.N.N.z.` m , = L ) O.4.B.) B T.{._.U.@XoXoX@X.XW.P.'.].p.v R.R.O.O.) e # > C ] i.i.w.] m nXnXnXnXnXnXnXnXnXnXnXnXnXnXnXnXnXnXnXnXnXnXnXnXnXnXnX",
"nXnXnXnXnXnXnXnXnXnXnXnXnXnXnXnXnXnXnXnXnXnXnXnXq o.k.Z.k.o.V 0 = > 5 0 w J T 4.W.J.+.K.].A.x ; ; ; ; - . ` ].].z.c.sX,XO.<.R w q 0 3 5 w ~ 0.i.a.] ) nXnXnXnXnXnXnXnXnXnXnXnXnXnXnXnXnXnXnXnXnXnXnXnXnX",
"nXnXnXnXnXnXnXnXnXnXnXnXnXnXnXnXnXnXnXnXnXnX' p.Z.S.z.D > = > , 0 0 , 7 < 7 Q 7.f.w.] A.|.l.Q.qXqXqXqXqX0XA.F.].l.d.j.5.8.G : 9 5 2 2 2 , > - b ' y.a.a.i.X.nXnXnXnXnXnXnXnXnXnXnXnXnXnXnXnXnXnXnXnXnXnX",
"nXnXnXnXnXnXnXnXnXnXnXnXnXnXnXnXnXnXV ) C.J.S.p.o.: o - 4 = = 4 4 3 2 r 1 : , >.2.] ) A.|.k.(.vXvXvXvXvXzXB.C.].k.^  .<.G , e 5 0 , 2 0 3 - 3 3 o o B ] i.C.G.S.u @ nXnXnXnXnXnXnXnXnXnXnXnXnXnXnXnXnXnX",
"nXnXnXnXnXnXnXnXnXnXnXnXnXnXnXnX@.N.I.H.C.' B -   , q q b / ` V : q s : s %.7 j E ] ` A.|.l.5.aXaXaXaXaX7Xd.C.].k./ P M 0 %.z 3 r m 1 2 ~ ' Y q q 0 o   - B o.S.I.Z.+.O.nXnXnXnXnXnXnXnXnXnXnXnXnXnXnXnX",
"nXnXnXnXnXnXnXnXnXnXnXnXnX_ a.S.U.P.o.p     . + u T ) _ q.I.a.V < M 1 . s -.*XF A [ / D.'.y.a 3.h.K.Z.j.} T C.].i.L ~ h %.&X;.4 * M N   ] I.J.o.] ' T , % .   , C i.V.G.P.y.U nXnXnXnXnXnXnXnXnXnXnXnXnX",
"nXnXnXnXnXnXnXnXnXnXnXB D.[.S.y.p       nXnX< u ) 0.0.o.S.G.' D 1 $ . @ % 4 *.l N ] X.D.'.y.{ d.h.l.y.p.k.o.C.].i.) [ j %.h 5 6 .   @ u ^ V.S.r.t.i.i.| = nXnX      @ ) M.Y.U.Z.nXnXnXnXnXnXnXnXnXnXnXnX",
"nXnXnXnXnXnXnXnXnXnXnX% _ _ : nXnXnXnXnXnXnXN o.o.o.o.~ 0.k.T $ <   O 1 . 8 5 0 F [ q.D._.g.g.K.XXoX[.[.A.) a.].i.] ~ E g 5 < $ % .   9 @ o.0.^ 0.w.y.g. .nXnXnXnXnXnXnX  i @.R nXnXnXnXnXnXnXnXnXnXnXnX",
"nXnXnXnXnXnXnXnXnXnXnXnXnXnXnXnXnXnXnXnXnXN q.0.] ^ V C J B nX7 % O 2 $ O < u m B ` ] G.|.d.  ,.9.-X-XG 3 $ k.`.a.~ T B i 2 < + < < O O nX7 V ' ) ) ] r.p.X.nXnXnXnXnXnXnXnXnXnXnXnXnXnXnXnXnXnXnXnXnXnX",
"nXnXnXnXnXnXnXnXnXnXnXnXnXnXnXnXnXnXnXnXN | ` ^ C C C n C b . nX$ 1 < . + b n p q 0.s.G.|.d.f l       . $.l M.].V.s.^ m w B i . O 1 $ nXnX$ N N U ` ^ ^ ' s.] 2 nXnXnXnXnXnXnXnXnXnXnXnXnXnXnXnXnXnXnXnX",
"nXnXnXnXnXnXnXnXnXnXnXnXnXnXnXnXnXnXnX) ) U C C ~ C M n p < nXnXO % $ O O b b @ ~ J.0.F.|.e.f *X*X*.-.-.=X$.m.`.a.V.a.  q n u . $ : $ nXnXnX2 a N Y ' ' T U ' ` p nXnXnXnXnXnXnXnXnXnXnXnXnXnXnXnXnXnXnX",
"nXnXnXnXnXnXnXnXnXnXnXnXnXnXnXnXnXnX) X.L L L L V a d u 1 < nXnXnXO + $ $ 2 M o <.c.O.!.<X} $.&X*X=X=X=X*.e 3.6XR.' d.w 9 p < < < @ X nXnXnX1 u a M R  .] X.| o.o.A nXnXnXnXnXnXnXnXnXnXnXnXnXnXnXnXnXnX",
"nXnXnXnXnXnXnXnXnXnXnXnXnXnXnXnX$ ) ' L J L L B a S i 1 7 X nXnXnX..Q . < r q : E { { 1X2X:.t -.*X=X*X*X$.e 1.4XE.K } N 9 i $ + u ..nXnXnXnX$ 7 7 u M U ` o.| ' o.0.U nXnXnXnXnXnXnXnXnXnXnXnXnXnXnXnXnX",
"nXnXnXnXnXnXnXnXnXnXnXnXnXnXnXnXV ' C L L L V d a s 1 7 < nXnXnX& 3.Q + < p q b ~  .+.1X>Xr < = : &.e = 2 0 U 4XR.I ( U 5 n 0 % + f.6.nXnXnX. 1 2 7 a N U |  .| ' o.o.  nXnXnXnXnXnXnXnXnXnXnXnXnXnXnXnX",
"nXnXnXnXnXnXnXnXnXnXnXnXnXnXnXnXP C / L C V p a s 7 7 < nXnXnXnX{ h.@ 1 nXp u ) A S Q 1X;X  t 8 6 : 8 8 t : F 4X;Xs F A p p u nX. E B.R nXnXnXO < 7 7 a M D U )  .o.| ( nXnXnXnXnXnXnXnXnXnXnXnXnXnXnXnX",
"nXnXnXnXnXnXnXnXnXnXnXnXnXnXnXJ P C ~ ~ C 2 p u < % % nXnXnXnXnXk.E r nXnX< | ' 8 F :.1X:X  8 7 < 8 7 7 s + S 4X;Xk k r N p p nX% X g.{ nXnXnXnXnX% 1 7 i i M ) ) ^ ) O.U nXnXnXnXnXnXnXnXnXnXnXnXnXnXnX",
"nXnXnXnXnXnXnXnXnXnXnXnXnXnXB L ~ [ q.` p 5 u 1 % nXnXnXnXnXnX} g.y 1 nXnX: z.) S z :.1X>X  t 7 7 2 7 7 8 o S 4X;Xj F S T m M nXnX6 ! d.nXnXnXnXnXnXnX< 2 a 6 A q.w.) ~ ..t nXnXnXnXnXnXnXnXnXnXnXnXnXnX",
"nXnXnXnXnXnXnXnXnXnXnXnXnXT ' ' s.w.~ # 2 2 @ nXnXnXnXnXnXnXnX) R 1 nXnX  E 3.V E k >.3X>XnXnXnXnXO $ nXnXnXF 2X;Xh z R V M m nXnXnXt g.+.nXnXnXnXnXnXnXO % 7 % M r.j.e.o.0.U nXnXnXnXnXnXnXnXnXnXnXnXnX",
"nXnXnXnXnXnXnXnXnXnXnXnX~ 0.o.0.0.C   7 % nXnXnXnXnXnXnXnXnX  Y p   nXnX  c.{   Q k >.6X:XnXnXnXnXnXnXnXnXnXF 2X:Xk z ( 9 V T nXnXnX% M p nXnXnXnXnXnXnXnXnX@ 1 + 1 o.k.j.i.w.o.nXnXnXnXnXnXnXnXnXnXnXnX",
"nXnXnXnXnXnXnXnXnXnXnX) o.X.w.o.a & $ nXnXnXnXnXnXnXnXnXnXnXnXnX  nXnXnX$ E a A 3.g >.6X:XnXnXnXnXnXnXnXnXnXG 2X;Xk G ..q a m nXnXnXnXnXnXnXnXnXnXnXnXnXnXnXnXnX$ 1 # ..j.i.i.t.U nXnXnXnXnXnXnXnXnXnXnX",
"nXnXnXnXnXnXnXnXnX9 ] 0.X.q.o.a $ @ nXnXnXnXnXnXnXnXnXnXnXnXnXnXnXnXnXnX2 R i ..3.g >.6X:XnXnXnXnXnXnXnXnXnXG 2X;Xh ,.2.e A U nXnXnXnXnXnXnXnXnXnXnXnXnXnXnXnXnXnXnX7 X ^ q.p.u.u.( nXnXnXnXnXnXnXnXnXnX",
"nXnXnXnXnXnXnXnX7 ) q.s.q.~ u $ nXnXnXnXnXnXnXnXnXnXnXnXnXnXnXnXnXnXnXnXM ) a U +.g >.7X>XnXnXnXnXnXnXnXnXnX,.>X:Xk ,.6.c ^ ' 3 nXnXnXnXnXnXnXnXnXnXnXnXnXnXnXnXnXnXnX$   M @.j.j.j.} nXnXnXnXnXnXnXnXnX",
"nXnXnXnXnXnXnX< ' q.0.o.J r & nXnXnXnXnXnXnXnXnXnXnXnXnXnXnXnXnXnXnXnXnX7 R V T 3.g :.4X:XnXnXnXnXnXnXnXnXnXG :X7.t >.3.c U N X nXnXnXnXnXnXnXnXnXnXnXnXnXnXnXnXnXnXnXnX% $ M @.j.j.p.) nXnXnXnXnXnXnXnX",
"nXnXnXnXnXnXn  .r.q.X.H r % nXnXnXnXnXnXnXnXnXnXnXnXnXnXnXnXnXnXnXnXnXnXX < 9 ^ O.F 7.n.:.nXnXnXnXnXnXnXnXnXnXk F F >.3.c   O nXnXnXnXnXnXnXnXnXnXnXnXnXnXnXnXnXnXnXnXnXnXnX  2 | j.j.p.o.nXnXnXnXnXnXnX",
"nXnXnXnXnXT s.w.t.X.M % % nXnXnXnXnXnXnXnXnXnXnXnXnXnXnXnXnXnXnXnXnXnXnXnXnXnXU 3.4.5.Q nXnXnXnXnXnXnXnXnXnXnX6 W ! F E 0 nXnXnXnXnXnXnXnXnXnXnXnXnXnXnXnXnXnXnXnXnXnXnXnXnXnXX . ) u.j.k.| nXnXnXnXnXnX",
"nXnXnXnXH q.w.t.X.d % nXnXnXnXnXnXnXnXnXnXnXnXnXnXnXnXnXnXnXnXnXnXnXnXnXnXnXnXH h.5.5.o nXnXnXnXnXnXnXnXnXnXnXnXj S S s . nXnXnXnXnXnXnXnXnXnXnXnXnXnXnXnXnXnXnXnXnXnXnXnXnXnXnX%   Y u.j.j.O.nXnXnXnXnX",
"nXnXnXJ w.0.w.X.u X nXnXnXnXnXnXnXnXnXnXnXnXnXnXnXnXnXnXnXnXnXnXnXnXnXnXnXnXnXnX! :.S nXnXnXnXnXnXnXnXnXnXnXnXnXr S h r nXnXnXnXnXnXnXnXnXnXnXnXnXnXnXnXnXnXnXnXnXnXnXnXnXnXnXnXnX% $ p e.j.M.0.N nXnXnX",
"nXnXU t.t.w.T   $ nXnXnXnXnXnXnXnXnXnXnXnXnXnXnXnXnXnXnXnXnXnXnXnXnXnXnXnXnXnXnXnXw nXnXnXnXnXnXnXnXnXnXnXnXnXnXnXnXnXnXnXnXnXnXnXnXnXnXnXnXnXnXnXnXnXnXnXnXnXnXnXnXnXnXnXnXnXnXnXnXO   0 o.M.D.y.A nXnX",
"nXU r.t.0.V @ nXnXnXnXnXnXnXnXnXnXnXnXnXnXnXnXnXnXnXnXnXnXnXnXnXnXnXnXnXnXnXnXnXnXnXnXnXnXnXnXnXnXnXnXnXnXnXnXnXnXnXnXnXnXnXnXnXnXnXnXnXnXnXnXnXnXnXnXnXnXnXnXnXnXnXnXnXnXnXnXnXnXnXnXnXO @ ) m.D.g.A nX",
"A t.q.0.M @ nXnXnXnXnXnXnXnXnXnXnXnXnXnXnXnXnXnXnXnXnXnXnXnXnXnXnXnXnXnXnXnXnXnXnXnXnXnXnXnXnXnXnXnXnXnXnXnXnXnXnXnXnXnXnXnXnXnXnXnXnXnXnXnXnXnXnXnXnXnXnXnXnXnXnXnXnXnXnXnXnXnXnXnXnXnXnX$ = ) k.A.g.s ",
"' t.) r @ nXnXnXnXnXnXnXnXnXnXnXnXnXnXnXnXnXnXnXnXnXnXnXnXnXnXnXnXnXnXnXnXnXnXnXnXnXnXnXnXnXnXnXnXnXnXnXnXnXnXnXnXnXnXnXnXnXnXnXnXnXnXnXnXnXnXnXnXnXnXnXnXnXnXnXnXnXnXnXnXnXnXnXnXnXnXnXnXnX@   D y.M.( ",
"' / 2 @ nXnXnXnXnXnXnXnXnXnXnXnXnXnXnXnXnXnXnXnXnXnXnXnXnXnXnXnXnXnXnXnXnXnXnXnXnXnXnXnXnXnXnXnXnXnXnXnXnXnXnXnXnXnXnXnXnXnXnXnXnXnXnXnXnXnXnXnXnXnXnXnXnXnXnXnXnXnXnXnXnXnXnXnXnXnXnXnXnXnXnXnX  B @.( ",
"p 2 nXnXnXnXnXnXnXnXnXnXnXnXnXnXnXnXnXnXnXnXnXnXnXnXnXnXnXnXnXnXnXnXnXnXnXnXnXnXnXnXnXnXnXnXnXnXnXnXnXnXnXnXnXnXnXnXnXnXnXnXnXnXnXnXnXnXnXnXnXnXnXnXnXnXnXnXnXnXnXnXnXnXnXnXnXnXnXnXnXnXnXnXnXnXnX@ 3 2 "
};
