/* XPM */
static char *result[] = {
/* columns rows colors chars-per-pixel */
"46 21 180 2 ",
"   c #000001",
".  c #0C0006",
"X  c #120201",
"o  c #140905",
"O  c #180C02",
"+  c #1E1303",
"@  c #1D130A",
"#  c #200000",
"$  c #200B03",
"%  c #271201",
"&  c #2D1E01",
"*  c #24150B",
"=  c #261B0E",
"-  c #2A1C0D",
";  c #2A1500",
":  c #381E00",
">  c #311D08",
",  c #341D00",
"<  c #261C13",
"1  c #2D1F13",
"2  c #2E2000",
"3  c #3C2800",
"4  c #34240B",
"5  c #3C290B",
"6  c #2D2215",
"7  c #332614",
"8  c #372917",
"9  c #392B16",
"0  c #302519",
"q  c #362A1B",
"w  c #3E3117",
"e  c #342D2B",
"r  c #362E36",
"t  c #3E363E",
"y  c #44310C",
"u  c #49360F",
"i  c #513A05",
"p  c #453115",
"a  c #4D3916",
"s  c #44341B",
"d  c #4A371A",
"f  c #4D3B1D",
"g  c #533E1D",
"h  c #583F1A",
"j  c #423425",
"k  c #4D3B21",
"l  c #493D2A",
"z  c #523F21",
"x  c #413430",
"c  c #5C421B",
"v  c #5A481F",
"b  c #55441E",
"n  c #694B1F",
"m  c #775C16",
"M  c #544224",
"N  c #5A4622",
"B  c #5D4924",
"V  c #5F4E2F",
"C  c #5A4629",
"Z  c #5F4E31",
"A  c #5F543E",
"S  c #644E27",
"D  c #694E24",
"F  c #634E28",
"G  c #6D5427",
"H  c #6B542A",
"J  c #6F582F",
"K  c #71572A",
"L  c #755B2D",
"P  c #785E2D",
"I  c #725823",
"U  c #695739",
"Y  c #6D5C3C",
"T  c #675635",
"R  c #725D34",
"E  c #795F31",
"W  c #705E3E",
"Q  c #7A602E",
"!  c #7C6334",
"~  c #79643A",
"^  c #222F50",
"/  c #2D3658",
"(  c #33395B",
")  c #002C6C",
"_  c #00336D",
"`  c #5A5144",
"'  c #5E554A",
"]  c #454456",
"[  c #5F5954",
"{  c #645844",
"}  c #695C47",
"|  c #655E57",
" . c #6C624E",
".. c #7A6743",
"X. c #6C645C",
"o. c #776A5A",
"O. c #7D7166",
"+. c #7D736C",
"@. c #816633",
"#. c #856935",
"$. c #8A6D35",
"%. c #8A6E3A",
"&. c #826A39",
"*. c #8C713D",
"=. c #92743B",
"-. c #95783D",
";. c #9A7B3C",
":. c #846E48",
">. c #877045",
",. c #8C734A",
"<. c #947A43",
"1. c #9A7D43",
"2. c #8D7B59",
"3. c #897857",
"4. c #947D53",
"5. c #897E78",
"6. c #AF8B3E",
"7. c #B58E37",
"8. c #9D8144",
"9. c #9B855D",
"0. c #92805C",
"q. c #A28244",
"w. c #A88747",
"e. c #A98B4C",
"r. c #AF9047",
"t. c #B69147",
"y. c #B5924C",
"u. c #BD9648",
"i. c #A48D58",
"p. c #B59452",
"a. c #B89759",
"s. c #97886F",
"d. c #988962",
"f. c #8F847A",
"g. c #958777",
"h. c #998B78",
"j. c #AF9467",
"k. c #A99569",
"l. c #B5986D",
"z. c #AF9B77",
"x. c #A6947C",
"c. c #AC9370",
"v. c #B49D79",
"b. c #C0994E",
"n. c #C59F52",
"m. c #C4A255",
"M. c #CAA459",
"N. c #C8A558",
"B. c #DBB65F",
"V. c #C7A862",
"C. c #DAB665",
"Z. c #CDB177",
"A. c #D6B672",
"S. c #E2BE6A",
"D. c #E8C972",
"F. c #E8D07E",
"G. c #304C8C",
"H. c #355092",
"J. c #928981",
"K. c #988C85",
"L. c #9C948A",
"P. c #AA9782",
"I. c #AA998C",
"U. c #A69C92",
"Y. c #AFA396",
"T. c #ADA098",
"R. c #B5A99E",
"E. c #B3ABA8",
"W. c #BEB4A9",
"Q. c #E0CE9F",
"!. c #F7E892",
"~. c #F8EA96",
"^. c #C4C1BD",
"/. c #EADAB0",
"(. c #CCCCCB",
"). c #CFD0D2",
"_. c #DCDEDD",
"`. c #EFE5C1",
"'. c #F5E9C3",
"]. c None",
/* pixels */
"].].].].].].].].].].].].].].].].2.Z.w.' L.].U ` ].9.{ y.A.3.].].].].].].].].].].].].].].].].",
"].].].].].].].].].].].].].].].F M.D.m.j.x.I.U.U.P.k.y.b.S.V.g ].].].].].].].].].].].].].].].",
"].].].].].].].].].].].].].].].@.m.B.y.j.P.I.T.E.T.U.l.6.C.N.L ].].].].].].].].].].].].].].].",
"].].].].].].].].].].].].].].].E M.w.-.c.R.W.(._._.(.z.;.N.C.L ].].].].].].].].].].].].].].].",
"].].].].].].].].].].].].].].].X 4.>.;.n.m.Q.`.'./.A.n.>.d.2.].].].].].].].].].].].].].].].].",
"].].].].].].].].].].].].].].! ! ! :.E 1.b.F.!.!.D.M.4.K  .R Q P ].].].].].].].].].].].].].].",
"].].].].].].].].].].].%.%.! G d : V 3.%.a.i.k.k.i.u.d.g.v , d G P ! ].].].].].].].].].].].].",
"].].].].].].].].].=.%.E d % ; % < e } =.r.Y.).(.P.7.>.{ e 4 * ; > a K #.1.].].].].].].].].].",
"].].].].].].1.<.%.B X d H q.F X < ( x $.e.3.v.z.,.t.m r ( 2 . ! 1.I g   B $.-.<.].].].].].].",
"].].].].].S #.].].].H ! L @.7 o + 1 s $.y.I 9.-.m t.P j ; @   f ! #.*.! ].].].~ ].].].].].].",
"].].].].].].].].].S G c p O ].O @ 4 M 1.p.^ _ ) ] t.-.p 7 + O ].- M G ! S ].].].].].].].].].",
"].].].].].].].].D D g s 8 1 ].j 7 * M 2.f./ H.G.t h.:.d * 9 l ].< 7 B E ! H ].].].].].].].].",
"].].].].].].].h D c s 6 = ].].Y   d i o.5.  0 & X J.} 3 q 6 Y ].].= 7 k J ! B ].].].].].].].",
"].].].].].].g L K p * ].].].R M ].R a X.f.  7 <   J.[ y k ].F ~ ].].= @ k ! ! f ].].].].].].",
"].].].].].F $.P 7   ].].].].s ].].U w O.K.].].].].J.| p j ].].].].].].].  f %.-.H ].].].].].",
"].].].].S $.G o ].].].].].].].].s C N O.K.].].].].J.X.M N ].].].].].].].].].6 ! 8.J ].].].].",
"].].].G $.N   ].].].].].].].].].].d V O.+.].].].].[ ` U 5 ].].].].].].].].].].  R 8.! ].].].",
"].].Q =.f ].].].].].].].].].].].].].Y  .].].].].].].l q ].].].].].].].].].].].].  S 8.&.].].",
"].@.$.8 ].].].].].].].].].].].].].].].].].].].].].].].].].].].].].].].].].].].].].].s q.%.].",
"Q ! * ].].].].].].].].].].].].].].].].].].].].].].].].].].].].].].].].].].].].].].].].7 1.! ",
"B   ].].].].].].].].].].].].].].].].].].].].].].].].].].].].].].].].].].].].].].].].].].6 S "
};
