/* XPM */
static char *result[] = {
/* columns rows colors chars-per-pixel */
"40 43 213 2 ",
"   c black",
".  c #0D0A05",
"X  c #1B0000",
"o  c #19150A",
"O  c #18191C",
"+  c #18061F",
"@  c #390100",
"#  c #2B1C0D",
"$  c #24160A",
"%  c #311E0F",
"&  c #2A1E12",
"*  c #201C14",
"=  c #230B05",
"-  c #36220B",
";  c #3B2813",
":  c #3F3113",
">  c #372924",
",  c #3D3B3E",
"<  c #442809",
"1  c #453104",
"2  c #472C15",
"3  c #4B3B1D",
"4  c #473218",
"5  c #583917",
"6  c #56350F",
"7  c #633B1A",
"8  c #46392C",
"9  c #583B26",
"0  c #4B393B",
"q  c #5B4118",
"w  c #62431B",
"e  c #6C4519",
"r  c #72441C",
"t  c #534222",
"y  c #5D4925",
"u  c #584427",
"i  c #574536",
"p  c #514C33",
"a  c #634B2B",
"s  c #634725",
"d  c #734C26",
"f  c #7D4F26",
"g  c #6C542A",
"h  c #72532C",
"j  c #795129",
"k  c #78572A",
"l  c #644736",
"z  c #6C5836",
"x  c #735C32",
"c  c #785B3A",
"v  c #756036",
"b  c #7C6535",
"n  c #7A643A",
"m  c #000049",
"M  c #523242",
"N  c #3E4458",
"B  c #4A4948",
"V  c #4B514B",
"C  c #474C57",
"Z  c #534B50",
"A  c #674C44",
"S  c #6A5746",
"D  c #6C5854",
"F  c #755E58",
"G  c #725A42",
"H  c #79654A",
"J  c #776458",
"K  c #6C695C",
"L  c #5D5E64",
"P  c #6F5F60",
"I  c #6C6A77",
"U  c #747477",
"Y  c #706D6B",
"T  c #855D30",
"R  c #896433",
"E  c #846B3A",
"W  c #856737",
"Q  c #89713A",
"!  c #93793A",
"~  c #836D44",
"^  c #846947",
"/  c #8C7544",
"(  c #8B744A",
")  c #8A7847",
"_  c #957C44",
"`  c #997D44",
"'  c #937A4C",
"]  c #927642",
"[  c #826E5A",
"{  c #89745A",
"}  c #967D51",
"|  c #857A6B",
" . c #847978",
".. c #96813D",
"X. c #A5893A",
"o. c #9F8347",
"O. c #9D864C",
"+. c #9E8552",
"@. c #9B855A",
"#. c #9A8657",
"$. c #A3864A",
"%. c #AB8D4D",
"&. c #A68A4A",
"*. c #AF914B",
"=. c #B1904D",
"-. c #A48B53",
";. c #A38B5B",
":. c #A88A52",
">. c #AB945C",
",. c #AD9857",
"<. c #B29452",
"1. c #B99B56",
"2. c #B69B57",
"3. c #B18A46",
"4. c #BFA25A",
"5. c #B9A459",
"6. c #9A8668",
"7. c #988A77",
"8. c #8F8771",
"9. c #AB9564",
"0. c #A99666",
"q. c #B39C64",
"w. c #BAA566",
"e. c #BBB668",
"r. c #ADA579",
"t. c #C09F58",
"y. c #C3A55D",
"u. c #C5A95D",
"i. c #C8A759",
"p. c #CAAB55",
"a. c #C6AA62",
"s. c #CBAD63",
"d. c #C4AB69",
"f. c #CDB265",
"g. c #C5B56B",
"h. c #CDB46A",
"j. c #C9B869",
"k. c #D3BC6D",
"l. c #DBBC6B",
"z. c #D7B767",
"x. c #CDB57B",
"c. c #CDB575",
"v. c #D0B979",
"b. c #DFC86D",
"n. c #CEC878",
"m. c #DAC475",
"M. c #DBCA74",
"N. c #D3C879",
"B. c #DCD078",
"V. c #E1C16C",
"C. c #E6C973",
"Z. c #E7D579",
"A. c #F1DA7A",
"S. c #7D7D83",
"D. c #857A83",
"F. c #8D8C93",
"G. c #999599",
"H. c #8B8A8F",
"J. c #A99A83",
"K. c #B8A787",
"L. c #BAAD99",
"P. c #9A9DA4",
"I. c #A8A6AA",
"U. c #B5ACAA",
"Y. c #ACACB4",
"T. c #AEAFB9",
"R. c #B9B7B8",
"E. c #BFB7AE",
"W. c #C6B48A",
"Q. c #CABB91",
"!. c #D1BE93",
"~. c #D1BB8E",
"^. c #D0BEAD",
"/. c #C5BFBA",
"(. c #D9CB9D",
"). c #E7D585",
"_. c #F0DA81",
"`. c #E0CA83",
"'. c #FEEB86",
"]. c #F3E384",
"[. c #FFF48D",
"{. c #FEFA8E",
"}. c #F5EA96",
"|. c #FFFC94",
" X c #FFFD9C",
".X c #F8F290",
"XX c #D7CABB",
"oX c #D3C7AC",
"OX c #EDDCA8",
"+X c #F2DFAF",
"@X c #E5D4B7",
"#X c #EFE3A0",
"$X c #FFFFA2",
"%X c #B9BBC6",
"&X c #C4BEC2",
"*X c #C3C3CB",
"=X c #CDC7C4",
"-X c #D7CBC6",
";X c #DCD3C9",
":X c #C2C4D2",
">X c #CACED5",
",X c #D6D5D6",
"<X c #EADAD2",
"1X c #F9F2DA",
"2X c #DCDEED",
"3X c #E9DFE1",
"4X c #DDE2F4",
"5X c #F6EBE8",
"6X c #E8EBF7",
"7X c #FDFDFC",
"8X c #F7F9FF",
"9X c #F6F7F1",
"0X c None",
/* pixels */
"0X0X0X0X0X0X0X0X0X0X0X0X0X0X0X@.w.0X0X0X0X0X0X0X0X0X0X0X0X0X0X0X0X0X0X0X0X0X0X0X",
"0X0X0X0X0X0X0X0X0X0X0X0X0X0X0X0X9.f.0X0X0X0X0X0X0X0X0X0X0X0X0X0X0X0X0X0X0X0X0X0X",
"0X0X0X0X0X0X0X0X0X0X0X0X0X0X0X0X0Xo.y.0X0X0X0X0X0X0X0X0X0X0X0X0X0X0X0X0X0X0X0X0X",
"0X0X0X0X0X0X0X0X0X0X0X0X0X0X0X0X0X0XQ =.0X0X0X0X0X0X0X0X0X0X0X0X0X0X0X0X0X0X0X0X",
"0X0X0X0X0X0X0X0X0X0X0X0X0X0X0X0X0X0X0Xy ` E 0X0X0X0X0X0X0X0X0X0X0X0X0X0X0X0X0X0X",
"0X0X0X0X0X0X0X0X0X0X0X0X0X0X0X0X0X0X0X  3 _ b 0X0X0X0X0X0X0X0X0X0X0X0X0X0X0X0X0X",
"0X0X0X0X0X0X0X0X0X0X0X0X0X0X0X0X0X0X0X0X  ; ! / 0X0X0X0X0X0X0X0X0X0X0X0X0X0X0X0X",
"0X0X0X0X0X0X0X0X0X0X0X0X0X0X0X0X0X0X0X0X0X&   -.,.0X0X0X0X0X0X0X0X0X0X0X0X0X0X0X",
"F.Y.I.%XT.T.%X0X0X0X0X0X0X0X0X0X0X0X0X0X0X0Xo - +.E 0X0X0X0X0X0X0X0X0X0X0X0X0X0X",
"0X  , L I U H.P.P.I.Y.Y.(.B.A.Z.M.0X0X0X0X0X0X  4 Q ! X.X.t.0X0X0X0X0X0X0X0X0X0X",
"0X0X0X            O B B H -.,.5.j.n.B.B.B.Z.].j.] y.c.~.Q.W.W.x.h.a.f.4.1.] 0X0X",
"G.,X>XY.S.U L M O                   : t z O.,.y.i.l.L.&X:X%XR.L.W.h._. X|.m.`.Y ",
"0XG.U.R.%X/.&X:X%XR.Y.P.8...) v a t * + @ 0 D.$.s.d.^.9X6X6X2X*XF.U ~.C.h.*.c.K ",
"0X0X9 l l D F |  .G.I.Y.K.z.h.f.j.j.f.g.f.c.(.u.a.l.OX9X7X8X6X4X%XP.7.s.1.n.g.C ",
"0X0X0 J F F D D D A l 9 6 3 7 R $.:._ $.:.<.1.a.t.V.A.}.1X7X8X6X:XF.7.x.1.w.q.; ",
"0X0X0X8 ^ ^ J J F F F P l f T T d q / 6.} ( z ^ ' 3.f.m.A.OX@X(.!.q.4.a.5 I m 0X",
"0X0X0X0Xu c c ^ ^ H H [ G 7 d T j s E ( ~ ~ E 9.q.R 0.} X.X.! ` ] #.` e W !.r.0X",
"0X0X0X0X0X= < 5 r d h v c s 2 7 T R k e e E >.( a 1 G.>XR.J.} ] ` &.<.1.z.C.M.0X",
"0X0X0X0X0X0X0X0X% < - = = 4 7 s d T r R :.>.n < 4 8 p K I.XXW.}.$X X|.|..Xz.).| ",
"0X0X0X0X0X0X0X0X0X0Xo # # . 2 d 7 d =.u.#.g 2 q u C C B i [ P ) N.).C.M.k.$.d.K ",
"0X0X0X0X0X0X0X0X0X0X0X0X0X; j 5 T s.l.' B a 5 n : > N N -.&.H Z M c W W R g x V ",
"0X0X0X0X0X0X0X0X0X0X0X0X0X0X< :.C.t.j 6 e 2 # y $   : ' +.` n S J z z g b g G 0X",
"0X0X0X0X0X0X0X0X0X0X0X0X0X0X0XQ ` @ 2 0X0X0X0X  t -.f.u.%.%.x X 1 u g b b 4 0X0X",
"0X0X0X0X0X0X0X0X0X0X0X0X0X0X0X0X  0X0X0X0X0X0X0XE s.l.a.a.t.b a &   x b $ & # 0X",
"0X0X0X0X0X0X0X0X0X0X0X0X0X0X0X0X0X0X0X0X0X0X0X0X) +.s.s.f.1.x y 4 % 3 0X0X& ; 0X",
"0X0X0X0X0X0X0X0X0X0X0X0X0X0X0X0X0X0X0X0X0X0X0X0X+._ 4.z.z.2.g a y 4 6 < 0X0Xo 0X",
"0X0X0X0X0X0X0X0X0X0X0X0X0X0X0X0X0X0X0X0X0X0X0X0X;.@.&.l.l.<.v v u W 6.| - 0X0X0X",
"0X0X0X0X0X0X0X0X0X0X0X0X0X0X0X0X0X0X0X0X0X0X0X0X-.0.} <.b.%.b g 0XW } 6.u 0X0X0X",
"0X0X0X0X0X0X0X0X0X0X0X0X0X0X0X0X0X0X0X0X0X0X0X0X' 2.>.O.1.o.W b 0X0Xx ;.S 0X0X0X",
"0X0X0X0X0X0X0X0X0X0X0X0X0X0X0X0X0X0X0X0X0X0X0X0Xw.>.>.;._ ] / ~ 0X0X0X} { * 0X0X",
"0X0X0X0X0X0X0X0X0X0X0X0X0X0X0X0X0X0X0X0X0X0X0X0XA.w.>.9.$.! / / 0X0X0XH ;.i 0X0X",
"0X0X0X0X0X0X0X0X0X0X0X0X0X0X0X0X0X0X0X0X0X0X0X0X'.Z.q.;.! $.$.Q 0X0X0X0X;.^ 0X0X",
"0X0X0X0X0X0X0X0X0X0X0X0X0X0X0X0X0X0X0X0X0X0X0X0X[.'.z.@.7.-.*./ 0X0X0X0X) c.S 0X",
"0X0X0X0X0X0X0X0X0X0X0X0X0X0X0X0X0X0X0X0X0X0X0X0X[.[.Z.W./.J.9.0X0X0X0X0X0Xd.,.0X",
"0X0X0X0X0X0X0X0X0X0X0X0X0X0X0X0X0X0X0X0X0X0X0X+.|.[.].(.=XXX7.0X0X0X0X0X0X3.C.0X",
"0X0X0X0X0X0X0X0X0X0X0X0X0X0X0X0X0X0X0X0X0X0X0Xe.|.{.Z.^.3XXX0X0X0X0X0X0X0X0X#.0X",
"0X0X0X0X0X0X0X0X0X0X0X0X0X0X0X0X0X0X0X0X0X0X0Xe. X|.).;X5XU.0X0X0X0X0X0X0X0X0X0X",
"0X0X0X0X0X0X0X0X0X0X0X0X0X0X0X0X0X0X0X0X0X0X0XN.$X{.(.3X,X0X0X0X0X0X0X0X0X0X0X0X",
"0X0X0X0X0X0X0X0X0X0X0X0X0X0X0X0X0X0X0X0X0X0X0Xn.$X.X@X5X/.0X0X0X0X0X0X0X0X0X0X0X",
"0X0X0X0X0X0X0X0X0X0X0X0X0X0X0X0X0X0X0X0X0X0X0Xn. X}.<X,X0X0X0X0X0X0X0X0X0X0X0X0X",
"0X0X0X0X0X0X0X0X0X0X0X0X0X0X0X0X0X0X0X0X0X0X0XN. X}.<X=X0X0X0X0X0X0X0X0X0X0X0X0X",
"0X0X0X0X0X0X0X0X0X0X0X0X0X0X0X0X0X0X0X0X0X0X0X). X+X;X0X0X0X0X0X0X0X0X0X0X0X0X0X",
"0X0X0X0X0X0X0X0X0X0X0X0X0X0X0X0X0X0X0X0X0X0X0X5.g.| 0X0X0X0X0X0X0X0X0X0X0X0X0X0X"
};
