/* XPM */
static char *result[] = {
/* columns rows colors chars-per-pixel */
"40 43 220 2 ",
"   c #000000",
".  c #180705",
"X  c #191308",
"o  c #00001B",
"O  c #150010",
"+  c #1A1819",
"@  c #2A0000",
"#  c #2D1D0E",
"$  c #231708",
"%  c #241D13",
"&  c #3D1800",
"*  c #392608",
"=  c #2C2111",
"-  c #372713",
";  c #241B23",
":  c #3D3B3D",
">  c #292421",
",  c #42270E",
"<  c #442B05",
"1  c #442D17",
"2  c #4B3215",
"3  c #44331A",
"4  c #473A1C",
"5  c #4B381B",
"6  c #573619",
"7  c #503402",
"8  c #653919",
"9  c #613704",
"0  c #463829",
"q  c #553A24",
"w  c #483D37",
"e  c #4E3034",
"r  c #5D4117",
"t  c #62431C",
"y  c #6C471C",
"u  c #71461D",
"i  c #544323",
"p  c #5A4422",
"a  c #5D4826",
"s  c #56432C",
"d  c #544832",
"f  c #555030",
"g  c #674A26",
"h  c #714D25",
"j  c #6B512C",
"k  c #6E5027",
"l  c #73552D",
"z  c #795629",
"x  c #654939",
"c  c #6C593A",
"v  c #745C33",
"b  c #7A5D37",
"n  c #7C6235",
"m  c #7C643C",
"M  c #726239",
"N  c #75602A",
"B  c #000043",
"V  c #494A4B",
"C  c #4D4846",
"Z  c #51424D",
"A  c #474A5B",
"S  c #514052",
"D  c #55535A",
"F  c #694B47",
"G  c #695748",
"H  c #6B5554",
"J  c #765E59",
"K  c #725942",
"L  c #78664E",
"P  c #776359",
"I  c #66675D",
"U  c #5C5E63",
"Y  c #6E5C60",
"T  c #5F6066",
"R  c #736561",
"E  c #6F6C74",
"W  c #747375",
"Q  c #726578",
"!  c #845E2F",
"~  c #856434",
"^  c #8A6533",
"/  c #836C3C",
"(  c #8A6E3C",
")  c #866736",
"_  c #92753E",
"`  c #96793C",
"'  c #917132",
"]  c #896D35",
"[  c #836B42",
"{  c #856B44",
"}  c #8C7945",
"|  c #897548",
" . c #957B44",
".. c #9A7C44",
"X. c #937A49",
"o. c #917746",
"O. c #967F54",
"+. c #806859",
"@. c #837565",
"#. c #857B7C",
"$. c #96813E",
"%. c #A6882D",
"&. c #9B8049",
"*. c #9A8354",
"=. c #9B8858",
"-. c #A48647",
";. c #A3864B",
":. c #A98C4D",
">. c #A78849",
",. c #B4934D",
"<. c #A08650",
"1. c #A38C5C",
"2. c #A78D55",
"3. c #AB9153",
"4. c #AB955D",
"5. c #AB995A",
"6. c #B29453",
"7. c #BB9C55",
"8. c #BA9D5A",
"9. c #B59954",
"0. c #AF924A",
"q. c #BDA34F",
"w. c #B4A45D",
"e. c #BDA15A",
"r. c #9B8A6D",
"t. c #96836A",
"y. c #938873",
"u. c #AE9A62",
"i. c #A79463",
"p. c #A38F72",
"a. c #A7977D",
"s. c #B6A663",
"d. c #B8AC71",
"f. c #C1A45C",
"g. c #C4A95E",
"h. c #C7A559",
"j. c #CFB65F",
"k. c #C6AC63",
"l. c #CBAD63",
"z. c #C7AC6A",
"x. c #CCB466",
"c. c #CDB46D",
"v. c #C7B76A",
"b. c #D3B56A",
"n. c #D3BA6C",
"m. c #D8B968",
"M. c #CCB87B",
"N. c #D5B974",
"B. c #D0B770",
"V. c #DEC36F",
"C. c #CEC679",
"Z. c #CAC077",
"A. c #DDCB74",
"S. c #D7C577",
"D. c #DED177",
"F. c #E5CB74",
"G. c #EDD474",
"H. c #E6D57B",
"J. c #F0D97E",
"K. c #E0C26B",
"L. c #7E7E82",
"P. c #8B848C",
"I. c #9C9698",
"U. c #928D90",
"Y. c #A69B8E",
"T. c #BAAB8A",
"R. c #B7AC9A",
"E. c #9C9CA3",
"W. c #A19DA0",
"Q. c #9DA1A9",
"!. c #ABA9AD",
"~. c #A8A4A7",
"^. c #AEADB2",
"/. c #B2ADB2",
"(. c #BCB5B5",
"). c #B6B3B9",
"_. c #B6AEAE",
"`. c #C9BA8F",
"'. c #C8B793",
"]. c #CEB889",
"[. c #CCBEB4",
"{. c #D3C59C",
"}. c #E7D485",
"|. c #F0DF92",
" X c #E3CD81",
".X c #FDEB84",
"XX c #F2E184",
"oX c #FDF38B",
"OX c #FFFC8A",
"+X c #EFE791",
"@X c #F6EC92",
"#X c #FFF797",
"$X c #FFFD95",
"%X c #FFFC9C",
"&X c #CBC2BD",
"*X c #D3C8AD",
"=X c #EAD9A6",
"-X c #E4D5B7",
";X c #FFFFA1",
":X c #FFFFA9",
">X c #C2BEC7",
",X c #BEC0CC",
"<X c #C2C1C3",
"1X c #C9C5CA",
"2X c #D6CAC4",
"3X c #C8C8D5",
"4X c #D9D5D6",
"5X c #D2CFD4",
"6X c #E5D7CB",
"7X c #EFE0D9",
"8X c #F8F1DB",
"9X c #DADFF0",
"0X c #EAE1E3",
"qX c #F3EAEB",
"wX c #E4EBFB",
"eX c #E8EAF6",
"rX c #FEFDFC",
"tX c #F7FAFF",
"yX c #F5F6EE",
"uX c None",
/* pixels */
"uXuXuXuXuXuXuXuXuXuXuXuXuXuXuXuXuXuXuXuXuXuXuXd.=.uXuXuXuXuXuXuXuXuXuXuXuXuXuXuX",
"uXuXuXuXuXuXuXuXuXuXuXuXuXuXuXuXuXuXuXuXuXuXk.4.uXuXuXuXuXuXuXuXuXuXuXuXuXuXuXuX",
"uXuXuXuXuXuXuXuXuXuXuXuXuXuXuXuXuXuXuXuXuXg. .uXuXuXuXuXuXuXuXuXuXuXuXuXuXuXuXuX",
"uXuXuXuXuXuXuXuXuXuXuXuXuXuXuXuXuXuXuXuX,./ uXuXuXuXuXuXuXuXuXuXuXuXuXuXuXuXuXuX",
"uXuXuXuXuXuXuXuXuXuXuXuXuXuXuXuXuXuXuX..g uXuXuXuXuXuXuXuXuXuXuXuXuXuXuXuXuXuXuX",
"uXuXuXuXuXuXuXuXuXuXuXuXuXuXuXuXuX~ ` 5   uXuXuXuXuXuXuXuXuXuXuXuXuXuXuXuXuXuXuX",
"uXuXuXuXuXuXuXuXuXuXuXuXuXuXuXuX} _ -   uXuXuXuXuXuXuXuXuXuXuXuXuXuXuXuXuXuXuXuX",
"uXuXuXuXuXuXuXuXuXuXuXuXuXuXuX6.<.  X uXuXuXuXuXuXuXuXuXuXuXuXuXuXuXuXuXuXuXuXuX",
"uXuXuXuXuXuXuXuXuXuXuXuXuXuX{ O.- X uXuXuXuXuXuXuXuXuXuXuXuXuXuXuX>X^.).,X^.!.U.",
"uXuXuXuXuXuXuXuXuXuXz.:.` ` _ 5   uXuXuXuXuXuXD.H.}.H.{./.!.~.E.E.P.W E T :   uX",
"uXuX .6.f.b.l.B.M.T.'.'.].N.h...v.J.D.D.D.A.v.v.w.5.=.L V V +             uXuXuX",
"P H.F.#X%XJ.c.'.R.).>X1X>X'.b.h.w.w.&.M i -                   + : T W L.^.3X4XE.",
"I B.,.x.F.M.E U.5X9XwXeXeX&Xz.l.-.P.0 & o % 4 f M }  .t.Q./.).[.>X>X>X).)./.W.uX",
"V v.n.9.g.r.I.3XwXwXtXrXyX=Xm.l.g.{.c.x.g.c.B.x.x.x.j.T./.!.I.L.@.J H F x q uXuX",
"> s.s.8.x.p.P.3XwXrXrX8X@XJ.K.f.g.h.6.:.;. .2.>.! 8 q 7 9 x x F F H J J J w uXuX",
"uXB Q i g.f.8.`.*X-X|.G.V.l.>. ./ x X.O.r.| r k z ~ z x Y R J J L +.{ | 0 uXuXuX",
"uXa.`./ u ....X.&.' %.%.*.p.^ u.4.m { | o.) g z z h 8 K +.P L { m b n a uXuXuXuX",
"uXD.F.b.7.6.:. .X.-.Y.(.1XY.< f | 5.( y h ! ) ! 8 2 g b b j h u r 1 X uXuXuXuXuX",
"t.}.m.oX#X#X;X%X+XM.*X^.R d 0 1 , m 5.6.^ 8 z z t 6 2 $ $ * , # uXuXuXuXuXuXuXuX",
"L d.;.c.V.F.}.S.| R R d V D A s t , j =.h.,.u 8 h 2   = $ X uXuXuXuXuXuXuXuXuXuX",
"V c k ^ ] ) b w S L 2.;.A A ; 5 v r g Z  .V.m.) 6 z - uXuXuXuXuXuXuXuXuXuXuXuXuX",
"uXM l n l c c L G m ..*.X.*   % a # 2 r 2 l e.F.>., uXuXuXuXuXuXuXuXuXuXuXuXuXuX",
"uXuX3 n n j p < . v :.:.h.x.2.i   uXuXuXuX2 @ &./ uXuXuXuXuXuXuXuXuXuXuXuXuXuXuX",
"uX% = . ) l   - g n 7.g.l.m.l.{ uXuXuXuXuXuXuX  uXuXuXuXuXuXuXuXuXuXuXuXuXuXuXuX",
"uX- = uXuX2 * 4 i v e.l.x.l.<.{ uXuXuXuXuXuXuXuXuXuXuXuXuXuXuXuXuXuXuXuXuXuXuXuX",
"uXX uXuX< 5 2 a a j 8.b.b.f.X.*.uXuXuXuXuXuXuXuXuXuXuXuXuXuXuXuXuXuXuXuXuXuXuXuX",
"uXuXuX* @.t.) q n v 6.N.N.>.*.1.uXuXuXuXuXuXuXuXuXuXuXuXuXuXuXuXuXuXuXuXuXuXuXuX",
"uXuXuXs t.t.~ uXl ~ :.K.6.O.i.<.uXuXuXuXuXuXuXuXuXuXuXuXuXuXuXuXuXuXuXuXuXuXuXuX",
"uXuXuXG 2.z uXuXn ~ -.9.O.i.i.X.uXuXuXuXuXuXuXuXuXuXuXuXuXuXuXuXuXuXuXuXuXuXuXuX",
"uXuXO X. .uXuXuX( _ _  .1.i.i.g.uXuXuXuXuXuXuXuXuXuXuXuXuXuXuXuXuXuXuXuXuXuXuXuX",
"uXuXf i.m uXuXuXo.o...-.u.4.k.J.uXuXuXuXuXuXuXuXuXuXuXuXuXuXuXuXuXuXuXuXuXuXuXuX",
"uXuX| =.uXuXuXuX( -.-.' 4.s.G..XuXuXuXuXuXuXuXuXuXuXuXuXuXuXuXuXuXuXuXuXuXuXuXuX",
"uXL x.X.uXuXuXuXuX0.*.y.O.b..X.XuXuXuXuXuXuXuXuXuXuXuXuXuXuXuXuXuXuXuXuXuXuXuXuX",
"uX3.k.uXuXuXuXuXuX1.Y.[.M.F.oXoXuXuXuXuXuXuXuXuXuXuXuXuXuXuXuXuXuXuXuXuXuXuXuXuX",
"uXF.9.uXuXuXuXuXuXr.2X1X'.XX$X#X3.uXuXuXuXuXuXuXuXuXuXuXuXuXuXuXuXuXuXuXuXuXuXuX",
"uX1.uXuXuXuXuXuXuXuX2X0X[.H.$X%Xs.uXuXuXuXuXuXuXuXuXuXuXuXuXuXuXuXuXuXuXuXuXuXuX",
"uXuXuXuXuXuXuXuXuXuX_.qX5X}.#X;Xd.uXuXuXuXuXuXuXuXuXuXuXuXuXuXuXuXuXuXuXuXuXuXuX",
"uXuXuXuXuXuXuXuXuXuXuX4X0X=XOX:XC.uXuXuXuXuXuXuXuXuXuXuXuXuXuXuXuXuXuXuXuXuXuXuX",
"uXuXuXuXuXuXuXuXuXuXuX(.eX-XoX:XC.uXuXuXuXuXuXuXuXuXuXuXuXuXuXuXuXuXuXuXuXuXuXuX",
"uXuXuXuXuXuXuXuXuXuXuXuX4X6X+X:XC.uXuXuXuXuXuXuXuXuXuXuXuXuXuXuXuXuXuXuXuXuXuXuX",
"uXuXuXuXuXuXuXuXuXuXuXuX&X7X=X%XC.uXuXuXuXuXuXuXuXuXuXuXuXuXuXuXuXuXuXuXuXuXuXuX",
"uXuXuXuXuXuXuXuXuXuXuXuXuX6X=X%XH.uXuXuXuXuXuXuXuXuXuXuXuXuXuXuXuXuXuXuXuXuXuXuX",
"uXuXuXuXuXuXuXuXuXuXuXuXuXuX@.x.w.uXuXuXuXuXuXuXuXuXuXuXuXuXuXuXuXuXuXuXuXuXuXuX"
};
