/* XPM */
static char *result[] = {
/* columns rows colors chars-per-pixel */
"46 40 220 2 ",
"   c #000001",
".  c #00000A",
"X  c #170403",
"o  c #1B1107",
"O  c #0E0210",
"+  c #390105",
"@  c #2C190D",
"#  c #320613",
"$  c #31160A",
"%  c #2D210F",
"&  c #2E2416",
"*  c #3D2E15",
"=  c #352717",
"-  c #3E301B",
";  c #2A310B",
":  c #3D2F23",
">  c #3D3422",
",  c #400F10",
"<  c #462917",
"1  c #46351B",
"2  c #4C3D1C",
"3  c #403117",
"4  c #523D1D",
"5  c #503215",
"6  c #54370C",
"7  c #4B3B21",
"8  c #473727",
"9  c #4B3F3E",
"0  c #50353F",
"q  c #4E3221",
"w  c #245F00",
"e  c #365114",
"r  c #397A16",
"t  c #375023",
"y  c #5B4100",
"u  c #53411D",
"i  c #45521E",
"p  c #684D00",
"a  c #6A4F14",
"s  c #6F5810",
"d  c #4A6A1A",
"f  c #786216",
"g  c #4D402E",
"h  c #5B4523",
"j  c #53442D",
"k  c #594727",
"l  c #524535",
"z  c #5C4D34",
"x  c #5D4B3B",
"c  c #564835",
"v  c #4F5331",
"b  c #634A24",
"n  c #684F25",
"m  c #6C542A",
"M  c #6C5429",
"N  c #74592A",
"B  c #7A5E2D",
"V  c #725627",
"C  c #625135",
"Z  c #6A5837",
"A  c #765B32",
"S  c #624F37",
"D  c #7C622E",
"F  c #70732D",
"G  c #7C6332",
"H  c #7B653C",
"J  c #5A4E40",
"K  c #575041",
"L  c #474651",
"P  c #6A5B44",
"I  c #655D52",
"U  c #4E7440",
"Y  c #6F624F",
"T  c #776545",
"R  c #6F6051",
"E  c #7C7940",
"W  c #7C7776",
"Q  c #846528",
"!  c #836632",
"~  c #856A35",
"^  c #8B6C33",
"/  c #846B3A",
"(  c #896E39",
")  c #826738",
"_  c #916F33",
"`  c #8D723B",
"'  c #8A7638",
"]  c #937336",
"[  c #94763B",
"{  c #95793D",
"}  c #9A7B3D",
"|  c #977736",
" . c #937927",
".. c #A17E3C",
"X. c #A17E37",
"o. c #866F42",
"O. c #8D7646",
"+. c #947B42",
"@. c #977A42",
"#. c #947D54",
"$. c #867456",
"%. c #8E7F6B",
"&. c #8C7E72",
"*. c #3A961A",
"=. c #00B600",
"-. c #1AA009",
";. c #339927",
":. c #6B9B00",
">. c #709130",
",. c #718D2A",
"<. c #6CA72E",
"1. c #00C200",
"2. c #A38200",
"3. c #A18014",
"4. c #98813C",
"5. c #A3813D",
"6. c #AF8B3E",
"7. c #9A855B",
"8. c #9E8749",
"9. c #A28343",
"0. c #AA8542",
"q. c #A88B49",
"w. c #B18B4C",
"e. c #B88F4D",
"r. c #B9964C",
"t. c #A38E5B",
"y. c #A68853",
"u. c #A59855",
"i. c #BD9C51",
"p. c #B29650",
"a. c #A9944B",
"s. c #B9A55B",
"d. c #8A837C",
"f. c #87807B",
"g. c #938672",
"h. c #9C8465",
"j. c #AB956C",
"k. c #AC9466",
"l. c #B39B69",
"z. c #A49479",
"x. c #B8A365",
"c. c #BCA371",
"v. c #C29D51",
"b. c #C29B4D",
"n. c #CAA74D",
"m. c #CAA858",
"M. c #D4AE5A",
"N. c #C9B25D",
"B. c #DBB45E",
"V. c #D9B658",
"C. c #C5AD62",
"Z. c #CBAC65",
"A. c #CABA6B",
"S. c #C9B366",
"D. c #D4B561",
"F. c #DABB67",
"G. c #D2BB68",
"H. c #DBBC6A",
"J. c #D4B56A",
"K. c #D3BE73",
"L. c #E1BD64",
"P. c #D9C26B",
"I. c #DBCB7A",
"U. c #E6C973",
"Y. c #E7D479",
"T. c #F2D877",
"R. c #EAC66E",
"E. c #FAE47C",
"W. c #8C8683",
"Q. c #938B85",
"!. c #9B9696",
"~. c #AFA18B",
"^. c #BAA787",
"/. c #B7A997",
"(. c #A09FA4",
"). c #AAA7A8",
"_. c #B4ACA7",
"`. c #BEB9A7",
"'. c #B6B4B5",
"]. c #B4B5BA",
"[. c #B8BBB9",
"{. c #C9B789",
"}. c #C4B499",
"|. c #D2BE9D",
" X c #C2AC88",
".X c #C8BBA4",
"XX c #C4BBB4",
"oX c #C4BEBF",
"OX c #DDCD89",
"+X c #D6C495",
"@X c #E6D885",
"#X c #F1E384",
"$X c #EFE496",
"%X c #EFE49A",
"&X c #F4E892",
"*X c #D7C8AB",
"=X c #CFC1B2",
"-X c #DACAB4",
";X c #D6C9BC",
":X c #C7C0A1",
">X c #E2CEB4",
",X c #E6D3B9",
"<X c #E9E3B9",
"1X c #CAC7CA",
"2X c #D8CDC1",
"3X c #DDD4C7",
"4X c #D7D5D6",
"5X c #E4D4C3",
"6X c #EAD9C6",
"7X c #E9DDD0",
"8X c #F7E7D6",
"9X c #F1EBD3",
"0X c #E0DDE6",
"qX c #E7E6E7",
"wX c #F5ECE1",
"eX c #E5E8F3",
"rX c #EFF0F4",
"tX c #FDFEFD",
"yX c #F7F5F6",
"uX c None",
/* pixels */
"uXuXuXuXuXuXuXuXuXuXuXuXuXuXuXuXuXuXuXuX).uXuXuXuX).uXuXuXuXuXuXuXuXuXuXuXuXuXuXuXuXuXuXuXuX",
"uXuXuXuXuXuXuXuXuXuXuXuXuXuXuXuXuXuXuX!.].uXuXuXuX[.!.uXuXuXuXuXuXuXuXuXuXuXuXuXuXuXuXuXuXuX",
"uXuXuXuXuXuXuXuXuXuXuXuXuXuXuXuXuXuXuXQ.'.uXuXuXuX_.&.uXuXuXuXuXuXuXuXuXuXuXuXuXuXuXuXuXuXuX",
"uXuXuXuXuXuXuXuXuXuXuXuXuXuXuXuXuXuXuXW.'.uXuXuXuX_.W uXuXuXuXuXuXuXuXuXuXuXuXuXuXuXuXuXuXuX",
"uXuXuXuXuXuXuXuXuXuXuXuXuXuXuXuXuXuXuXQ.'.uXuXuXuX_.W uXuXuXuXuXuXuXuXuXuXuXuXuXuXuXuXuXuXuX",
"uXuXuXuXuXuXuXuXuXuXuXuXuXuXuXuXuXuXa Q.'.uXuXuXuX).W.C uXuXuXuXuXuXuXuXuXuXuXuXuXuXuXuXuXuX",
"uXuXuXuXuXuXuXuXuXuXuXuXuXuXuXuXuXuXf Q.].uXuXuXuX).W.Z uXuXuXuXuXuXuXuXuXuXuXuXuXuXuXuXuXuX",
"uXuXuXuXuXuXuXuXuXuXuXuXuXuXuXuXuXuXs W.].uXuXuXuX).f.Z uXuXuXuXuXuXuXuXuXuXuXuXuXuXuXuXuXuX",
"uXuXuXuXuXuXuXuXuXuXuXuXuXuXuXuXuXuXz t.x.uXuXuXuXZ.#.Z uXuXuXuXuXuXuXuXuXuXuXuXuXuXuXuXuXuX",
"uXuXuXuXuXu.s.uXuXuXuXuXuXuXuXuXuXuX8 ..M.uXuXuXH M.o.z uXuXuXuXuXuXuXuXuXuXuXA.uXuXuXuXuXuX",
"uXuXuXuXuX8.E.Y.uXuXuXuXuXuXuXuXuXuX= @.N.uXuXuXG B.! h uXuXuXuXuXuXuXuXuXS.I.#XuXuXuXuXuXuX",
"uXuXuXuXuXuXuXs.E.P.uXuXuXuXuXuXuXuXo { M.uXuXuXG B.` * uXuXuXuXuXuXuXuXY.#Xu.uXuXuXuXuXuXuX",
"uXuXuXuXuXuXuXuXk S.L.D.uXuXuXuXuXuX$ [ D.uXuXuX` V.! = uXuXuXuXuXuXS.U.x.  uXuXuXuXuXuXuXuX",
"uXuXuXuXuXuXuXuXuXuXI S.F.P.uXuXuX3 < { G.uXuXuXQ F./ h uXuXuXuXI.P.x.L uXuXuXuXuXuXuXuXuXuX",
"uXuXuXuXuXuXuXuXuXuXuX. ! S.G.D.uX2 5 { n.8.@XY.y.m.O.n z uXA.I.S.n   uXuXuXuXuXuXuXuXuXuXuX",
"uXuXuXuXuXuXuXuXuXuXuXuXuX  _ K.OXH + ! P.&X$X&X#XF./ 6 7.OXA.G   uXuXuXuXuXuXuXuXuXuXuXuXuX",
"uXuXuXuXuXuXuXuXuXuXuXuXuXuX  k h.O.G A.%X+X*X4X<X$XS.H t.y.,   uXuXuXuXuXuXuXuXuXuXuXuXuXuX",
"uXuXuXuXuXuXuXuXuXuXuXuXuXuXuXuX+ ( P.@X{.XX0XyXeX2XT.J.G $ uXuXuXuXuXuXuXuXuXuXuXuXuXuXuXuX",
"uXuXuXuXuXuXuXuXuXuXuXuXuXuXuXuXY #.U.+X;XyXtXtXtX0X+XP.g.K uXuXuXuXuXuXuXuXuXuXuXuXuXuXuXuX",
"uXuXuXuXuXuXuXuXuXuXuXuXuXuXuXuXf.k.F.{.8XtXtXyXtXrX:XJ.^.uXuXuX} uXuXuXuXuXuXuXuXuXuXuXuXuX",
"uXuXuXuXuXuXuXuXuXuXuX4 | @.V V g.7.V.K.1XyX4XqXrX4X+Xn.z.z.uX` a.G uXuXuXuXuXuXuXuXuXuXuXuX",
"uXuXuXuXuXuXuXuXuXuX4 ! ( B ] 0.n.} p.@Xd.eX4XqX4X&.T.} i.S.8.` ( +./ 1 uXuXuXuXuXuXuXuXuXuX",
"uXuXuXuXuXuXuXuXuX4 ! ! ~ ~ b ( M.M.+.M.@X9X:X.X-XG.N._ L.D.G m ` +.+./ 4 uXuXuXuXuXuXuXuXuX",
"uXuXuXuXuXuXuXuXb V ^ ! ~ ! % B v.F.i.A C.U.@XOXG.a.V b.P.Z.n 1 / O.+.+.G N uXuXuXuXuXuXuXuX",
"uXuXuXuXuXuXuX! V B ^ _ ^ V & N n.T.C.| ( Q 2. .p ( | m.T.s.m 3 ! ( ` { / ~ / uXuXuXuXuXuXuX",
"uXuXuXuXuXA Q n B | | | _ b o n e.R.p.w.S.|.XX1X}.Z.y.r.R.w.h o G ` ] @.{ H ( ( uXuXuXuXuXuX",
"uXuXuXuXV Q ) _ 5.0...| _ 4 uXb ,.<.>.' ,.wXyXqX.X:.E <.<.F 4   m { @...0.9.O.] | H uXuXuXuX",
"uXuXuXa ] j.}.c...| @.{ ( * uX< *.=.;.v U ]._.d.x w t -.=.r , uX4 @.9...X.9.^./.k. .f uXuXuX",
"uXp Q l.|.*X*X^.| } 0.5.^ . uXX t d z x I 9 - > l 0 7 i e ; uXuX% } 0.q.5.h.`.;X=X}.j. .p uX",
"G l.+X>X>X,X6X-Xc.r.w.0.V uXuXuX< # < n z j 1 2 l l u # # q uXuX  ( r.v.n.^.2X6X5X5X2X/.j.Y ",
"#.,X6X8X8X7X,X*Xj.4.[ uXuXuXuXuXP j & 2 h j 8 8 7 u > X g Y uXuXuXuXuX} 6.^.3X7X8XwX8X6X;X$.",
"uX.X,X>XuXuXuXuXuXuXuXuXuXuXuXuXx R c uXuX1 * - - uXuX= 8 J uXuXuXuXuXuXuXuXuXuXuX4X2X;X/.uX",
"uXuXuXuXuXuXuXuXuXuXuXuXuXuXuXuXl 8 uXuXuXuXuXuXuXuXuXo 3 x uXuXuXuXuXuXuXuXuXuXuXuXuXuXuXuX",
"uXuXuXuXuXuXuXuXuXuXuXuXuXuXuXuXj X uXuXuXuXuXuXuXuXuXuX& z uXuXuXuXuXuXuXuXuXuXuXuXuXuXuXuX",
"uXuXuXuXuXuXuXuXuXuXuXuXuXuXuXS j uXuXuXuXuXuXuXuXuXuXuXuXg uXuXuXuXuXuXuXuXuXuXuXuXuXuXuXuX",
"uXuXuXuXuXuXuXuXuXuXuXuXuXuXuXS 8 uXuXuXuXuXuXuXuXuXuXuXuX8 x uXuXuXuXuXuXuXuXuXuXuXuXuXuXuX",
"uXuXuXuXuXuXuXuXuXuXuXuXuXuXuXT O uXuXuXuXuXuXuXuXuXuXuXuX= P uXuXuXuXuXuXuXuXuXuXuXuXuXuXuX",
"uXuXuXuXuXuXuXuXuXuXuXuXuXuXO.O.uXuXuXuXuXuXuXuXuXuXuXuXuXuX$.uXuXuXuXuXuXuXuXuXuXuXuXuXuXuX",
"uXuXuXuXuXuXuXuXuXuXuXuXuXuX@.G uXuXuXuXuXuXuXuXuXuXuXuXuXuX/ +.uXuXuXuXuXuXuXuXuXuXuXuXuXuX",
"uXuXuXuXuXuXuXuXuXuXuXuXuXuXN u uXuXuXuXuXuXuXuXuXuXuXuXuXuXk G uXuXuXuXuXuXuXuXuXuXuXuXuXuX"
};
