/* XPM */
static char *result[] = {
/* columns rows colors chars-per-pixel */
"100 100 69 1 ",
"  c #060F01",
". c #0A0F03",
"X c #110F06",
"o c #140E09",
"O c #061102",
"+ c #0C1404",
"@ c #0E1A04",
"# c #0E1508",
"$ c #0F1808",
"% c #121406",
"& c #1A1506",
"* c #131D06",
"= c #191D07",
"- c #151508",
"; c #1A160A",
": c #161B08",
"> c #1B1D0A",
", c #201907",
"< c #211D0E",
"1 c #2C1D0A",
"2 c #231E11",
"3 c #281E13",
"4 c #0E2205",
"5 c #152306",
"6 c #192407",
"7 c #172907",
"8 c #182907",
"9 c #162408",
"0 c #1B2409",
"q c #172908",
"w c #1C2B09",
"e c #17300A",
"r c #1E320A",
"t c #1D3A0C",
"y c #22240D",
"u c #2A240B",
"i c #222C0C",
"p c #2B2C0C",
"a c #312D0C",
"s c #23330C",
"d c #2A340E",
"f c #243A0D",
"g c #293B0F",
"h c #32310D",
"j c #30380F",
"k c #252411",
"l c #292514",
"z c #262A11",
"x c #2A2A13",
"c c #242319",
"v c #2A2619",
"b c #2D2B18",
"n c #302718",
"m c #302C1C",
"M c #253311",
"N c #293412",
"B c #273C10",
"V c #293A10",
"C c #27331A",
"Z c #2A341A",
"A c #2B3A1A",
"S c #363611",
"D c #393611",
"F c #3A3C12",
"G c #1E410D",
"H c #25410E",
"J c #28420F",
"K c #274110",
"L c #284510",
/* pixels */
"sssixxdrfr88ssuywww00590yyy0ssukziszsw=8sNllii5449zM99ww6:49kk:5*55rrsst88ssw0sw@+9sii5@@7tGGfsy@+68",
"isixxxdfgs08ssy0yww0**00>y0wfdzkzNpsxi60sNxlziq5@5ww:6ik05450yw95*5wtssw66rrw8rw@@8wiw4497ettfs0+@8w",
"iixpxpisff88riwylzr0y0zw:*90sgiikxixxy0yssiukkw0@@6060kk069560iw@+5wfsw6665656r7@@wiw977wr8rfHr6@*rs",
"ywukiiiifdw8wiwyvbiyckw09**9sfrilxxiuu0iziwyykxw%O5960kk06=*&9ss*%0igs856665*5774*wi657qrw8wHfw5*5ss",
"wik0iwisdfwidai0lxwwvv06k>%*rs00ulkk990ipxi0;<di%X=5*-;0*55=%9rs85ipgsw666sw5@559860kk00880ifs6&58ii",
"ss00wiisgfwyaai0xx0zCv:0lk%@rs862lk2:98sxniw>>si&%*5%%;=@@55%&8rwwifggi05wss5@@48080klk6=6isfw-%=0ww",
"BHrrwwwsds8=upiwlk0q0y90bc%#ws6>kxzikisMxxi0yyii%%=*%X--O@55,=6qwsggggss56sse5@@8wwill<068ssfr%O=8si",
"fHfrww0wss55yuiizz0wq00kvv-#0i6><kzxxxzsxxui0wiw&%*5%X&:++50,<&9rsggggjf6yfgs8548wssxk<<88sffr*O*9sw",
"ftfr00ww60ww>>ssy0iiwrwkkk::0060yyxxMzwyzkxpiiiu>%**%:;>55*60,>0wsBgggFji8fgsr55wssiiyyywrssfs=*68ww",
"rrfs00rw*=wi&:is850ssdk2;>06>>00=0bbz80>0yllissi6=@@*>2yw8660y<ywiVgggFDpwfgfr65ssdiiy66wwissr5=w86w",
"rfsrzisr5=w8#%sd0>0iffz2>>yi00885:vxk0<2>6yuiixi00@@*5<k0wrsssy00wdggfjdrrfgfs66sfdii6w08w6wrr86rr8w",
"tffssMfr8575+#rs0>=8Ggz2<0ii80w85:2k>>2>>:>0iilzw85@=6<y0wrfgsi06wdggfsssffggf08sfdiwy0w8556ww8wrrrr",
"sffgzifr54q9++8sy>&8fgzy0yiiwww8*:yy;2>>::*6kxzMswqqwii8578fgHfsiidfgsrrsfgfgfiisfdii86555558ww7wwss",
"sdKfzksw@+q9+#9wy>:8sdi00iiirr80>:::>>>::>&6yziswrrffss84@7rfJggggsdgfiwffsdggdifsiiy05**==5werw58rf",
"isfrzyiw*#80::0wykyzsri0isiwrsk0::>><>996:5=0kii95rtffsr@@5rsfHJJJddggipssifgHfsss0606=@**5557er8wrf",
"iwiwwww86>0000wwiplxswkzMdrwsMz2:*>2;:9955=560zy@@7rtffi@+5r8sHLJgfdffsiiipdHgdpfw=-06*@@@5655rrrrtr",
"0wiiwwrw00008wwiiipxiwkxNfiirMx2*@-::*w85@==90u>+@qrsfMz>*0860fKLJgBgddrwwidggsssr=&0w4@@*684588wssr",
"yiiiiwwriiw86wipiipirilbNVxkrzc2:++O+5rw@+%>9800@5rtrwzk2206->sggHHHfdsswiisssdsr865iw@@@*607559wsrs",
"wwisrwrriw555wiiy0iiwzcvNVzi0wk2*@O +4rw@@56978859wrrryykk0>->sBgHKKdsrww0updppuuw66ii5@@*660097ssrs",
"88iirrrww5556wii>00wwwcvNMwqq9>;4@O +5wi=58w87ww978rtr>;ws0>>0dgfHLHsi090yuudsu1u,0iss5@586>yiw8ssss",
"88wswerw00556iiy:=0wq0ccNsww79>:44O+@58w98ww8www7798eq->ssy;>ysdssfHgw5%0iuyddu11uiifp5@=55=iiirtsss",
"66rswwsiwwww00w6#%yw99lvNsww88>:99%#5998w8wwrry08995*%X>ff0;yilzisffgs%@0iuisdu1uudgsi5==5=68swrrssf",
"66srwwiiiwwww0w6O%0i66lxiiwrw0;&89%%9000880wiik;>855:--6rf0>yiluywrdd8*@yp8wsi,1uidgsiw655*5qerrrrsr",
"65wreewriisw>089%%0iyyyy87rw0>--9:%%6w0008>0wy<<>>&50i88rrww8ixxywsiy6%5ii65wy&,0sfdiisr75@58qrrsrew",
">>iwwrwriiw5&=77%%8wiliy87q8>>X%59==8wi09q9>80<<<;@5isrrqrr88wxxy0si0==0si66y6&&0wffiifsw9@58rrrtrrw",
">>6wr855w5*+++59=:9wizxk9570>;.#9wisr8ww7590000;k<#@ssrr97rrwwwiyyis09:0sssww6i008rfrwss8959rfw8rrss",
"=06i885506+ O@660>88wzxv94q0>:+@9rtfrrww775580>2k<%@wfr899rfiiww<ystw80ysfse66ii66wrrrisw888sfr8wrsf",
"&,6655==0=X.+=0w>00890bx94ik:@+@55rffrrr754560ukl3&6isfr57rdbxw6>0fHrwkksstw*=ss05wirsrssswwffsr7wfs",
"&>0>=%**5=%+*0iy>08w59vvq9kk:@@@@*rffts8q74490kll3>=0ssr89rfZZw850gHswpissfr@@ws6550srrrdfssfgfr56sf",
":>>>%++#==++0006>>ww90lxwwkk095@O+sfffsswq@@90ll32<>57rr8rrsMNBr59GHtiiiirHt@+wr85&=ii88idssgffs>6ds",
">;>;-X.O@@++0i0=:>www0lkiecki08*+%rgggssrw@@50lv2<<>55qrrtsfffHt97tHfrsp8ett*+8w85%&yw55isisgdsw=0dd",
"kkk2;-.O*=O@ws<=:6ss800kizzziy>&=8sfggiifr5@90lcu6;&re55ffrrrrfr88sgHfsi55ss86wi85**56*=wissdsr0>,ss",
"lkk32;O+99+@0sy>60sf89>6iisisi;>0rrfBfwsKt*#:0klwq*:fr45BHswwrrrwisfgffw**yMwyii95**=**@8wiipi65>0ss",
"kkkk2<.+ww$@0k00yigsw*#*isiwdMiukiwrfdiwKt:.90kcww96rdwrffswwwrssdsftfdi*;yyy0xy*@5*@+@@98iyk>*@*6ss",
";>0i2<%$ss5*kk08iisf89@@ss80ssdixk0qsfiwBt-.$9kywq90isVBBBfsiissffVdw8ds:;;cyikk#+55%X@596;<<;%+#5rr",
"%&wwk0:6sswqMzcy88wr8q55ri00yiidNi55rsywBr$X$9ykqqqqwMAAMrZZZpssiiNi=6isi>>>yizy+O=5%+@506>;2<-++%ww",
"#@rdw660ffrwdMxl=5*98rrrrrw0>0isNr*%rs00rw:X$:kz94990MZZz0bmmxzi00pl=&isVi:-0zM0++55%%5886-&<k6%+@q8",
"@9ss0&>0dsr8wsMMi8558rsrwwss>>;yds0:wwy>w86:>0yiee990iCC06llxxzy66uk=5wsBr-#isxw++08==009=%-;k00%*w8",
"68fs>XX:is85wwwssr558sfswsff0>->sMkywi<>08002kzsteq9wwy29><<yy<ywrwwwwrsVs$@ysp0++8w6iii6=*=>0i0>>y8",
"isNz>%->yi00www885*58issywHHy>-:isziw0<;00002kzsGtq0ii0>>><20><yss08sswrBtq9ssiw6558iifs8*5=-:Cz::00",
"fNbxy5=;<y0ysi:#+++@8iii0iBBz>>6isiww0;;iw=><uzsttwwii85>2k3<>ylfH78sfisHHrrsfiwi068rsgs9=95+:CC:+59",
"gNxlw80y<<0008&+++@@:0yu0sBBk20wsiwww0;>wi>>yywstrwiiw95;kyk>;yiHH88sswwtfrrfsiwsi*&wfKf7506O@MC*+58",
"fdzz0wii00>>&;&@**+*>><yirfsy20wii8wiu>0ii0>ywwwqq8wr85*kk00>>0iHHewtsw8errrssiiMw*#wdHf5*i0#@rr-#=0",
"rsiz00iiy000;;=5*==>;;<ywrtr0>0www08ii0>iy>>0www756888@*>y0>>>=wffrwrre78wrrrr0wdM:-wdgt55ii*@w8$#5w",
"8wMsy0ii0<izlk>:><2k2<2260tt6>>>0856ii99iy--0ww05%%:66**605=>**9sfiwrrr855rsiw8wfs>>isfr45sr55rq@+qz",
"9qfd0>ui<>ixnv0>2ll3<<3269ee6:&>9q*5ii=9iy;%9w08@@%%06**88=*-&59wrwirer7*5rs0088w0>;yisrqqfr55r7+Oqi",
"99ss0yii>0isll3kvvn3;;3k>9qw9:&>8859si&&ii>>5688@+5906==8w5*--0w55isHHr5+@es0>56:-X-6wsrrsff8775O@qw",
"97sdi0wy06rszllllbnl,<3k6580*:--00:9ss6>yiy056w8@@598555w8=-X:iw550sHfq*@*ww0=6*%.X->08wtsfs8q75@@8w",
"iigfsrw9598rrikkyklkuyk<>=>=**-><>;0sdiipiiy08w8q7555==988%%:6is866wdf8***8w005*%+%%=00w8wrrrww888ii",
"ssdgfrw755wrrw0k00y2kz<<=5:*@%&>><<0rsisssiiw8rrrr7755**88*&>0rsi0=9sr89*500006*%%*===6577wrww08wrsw",
"iiffrrrq56wsrrww6><2kk>;085%++-=>==9rsiwssw688wrew770>%:8r8wwsssMw*5wrw7**=>ii85***55655578777788iw0",
"iidgsrww55wswwwz6>;2>2>0005*OO->=5=9rri0sw0680wrrr7500::wwwwzisfzw55wrrq4@==iw06**=5655*558555790000",
"xxggsdMv9*0000Cv6>2>>90iy08=O.-=0755wyyk0wii00iirw76yi08wr880ysspkyiwsf85@@59806%%8008*5556==59958w0",
"xhMffMbl*%>>:0vk6><2:>ipi005+.->w8556yk2;ysd6>iieww6zuwqww80<<ssilissssr5@@@98w6-%ww86*@776==57760i0",
"lldftskk*$***=90>><22yiiw08*O.-0w86=kkv320ss=@8rw7wsiz957q8w>>wriiissdfr5%@*90w0&&ws8=*5wwi059wriw0&",
"3ksfssy;@@@@@=9:=;<ykkiii88=++-=888>23v3<0sr@+8wwwewii**9www>;0wiirsiiss6&@48www=>ir5**8rssi00rsii5*",
"2yssiy<>4@@@@@90:6ipzziiw009@@-908w0;;ll3209@49ippiwxl>>00ww0600uzsrswfrw=@57www0kss=%%9wrwwyyswi05%",
"2yssy<<>44@@@49090sMssi00i06@@&:6wiy;;<3k29*440iaawwxl><2k08wy><3isswirsw8@@8rrwykMs:%*5ww8wkkiw8556",
"iiwwiy>=544@*598uzsrds060ii05@5==0wi>>>>22:#490yhdw0kl;>22>9wi0y<ysswwisw0*48rii<ysr8++*wi66kli08658",
"dr80ii9599559880kkwwdsy>8yiw5@@*=9ii>:%:<2--90ycdfw0>2<;;;--wsw6=6rswww806@58rii>0ss85++0i6>kk06=58r",
"sr09009999998080y00wsdk2=6zu9%5=>yy0>::-;;-*8q90fgw0;;;;2;%%8rw9+=rt859085==8isi==isw8*%ii80ky>&598r",
"ss0>999977780800699wfMy>&5kk6=*=<<>;>>>-.+-:8759isi>-&<<<;X%8w75+@8r899586>6wrii55wir859ii80ly--=88r",
"Msikly8777www0==8wwiMz>:=>yy6==>0yy0yyy>..->ww778wi0&o><;o%*7r7545rr790wq90ywrii990yw8550w80ii=-0yrr",
"srszbx8798iir8::wrrixk%#566906>>y000iil;#+-6ww8755wu==w6--+5887998er55wi80uki8ww88;=ww55888wss8>yiwr",
"sfiixxwq78wsr866iiiixk&@600600yyyyyiii<>59>kiww8%5xxwww0=+@@ww879wrr**ssw8iiwww6w6=>68688werssw8kksw",
"Mrw0ii8q7wwrrrrwwiuxzw950000wyiikkiss0-:8ikkisi84:xxMrrw5%@5ws877qrw&*sssrwwiwy65=6655wewrrrwers0ysw",
"srw0zzirww8wsssiwik0099900ywsiiizixii0%&rdklxi05*6zZBfrr88@58ww7q889%&wswwww6y66555556rr88eewrsfrrsw",
"sssxxxssfsw8ssyyiww055q0y20isdulxidssi88sfvlzw74@9iNKHrriw*@58wrr7&%*=0wi6www655655=58ss557wrfffKf08",
"isixxxsdffw6ssyyzzw099q0006wdfzzixiizz08sMxkzy89@*wsHHrriy958wqrr8%%55500iiy===8y66557iw877wrsffVrw0",
"yilxNpirfsw6wiwyzciwykzy*%=qsfrwkxxdxu0ysiiykki0@#5wffrwk2:5wwrrw8%%55=6idiy&-606irw555wssrrrssp00zw",
"wi<uiswidfw8is0ylli0llw00:%9sfwwllkiy0wixpw0>yzi%O*qrstic0000ywrwq%%5956iiiy:=0iissw5=58siwwwssikkiz",
"iwy0wiisgsiiaawylxwzvc0:c2%@sd00kll<>98ixxiw><si&%5qwwrs00iw::qr89=&59>>iiiw00iisdww6578yyiwiispxvy6",
"sfw0wiidfdw0paiwvx0yzc:0lk#+ws8=ully>0wsnxiw>0si&X=558ss0isw:;0w75>>09>6iiw0iiyissi6556iyy6iipsixly6",
"HHfwww8wfs96uxiwiv0q0w00bc%#ii8>ylzzlxsMbli00yii%X@@*8iiiifd6>8w95=>885*0z08si>:6y556666yiiwiiiy06>>",
"HHgrw0wwii95>kwiiyw0qw0zlc:%0i6=2kzZxxsixxuwiwiy%%@@*6iisddi6>w806>>w85=0i0wss>>555*66=6ipiiiii6059>",
"rsts00rw56wi>>ss00wMrrkyk>>6>>0060xbzw0yiuxuiiMu>%*@&=>yizzy>577i0>68w>>0wiisii0=*@*==56aaiwsiyurw05",
"rrrrw0rr&:rw&*ss060iffk2;>0y0>005:bbi0>>6ykliiiiy=@@=>=;yiy<>=59ii00w0y<iiiiiiii=*@*55=ypaswiuzzwr80",
"fffsiisr99q5#@ss0>0wffz2<>ii68w85:cly022>6<yiMxiw95*8y-&0iy06%#@wiy68wipSh89>yiy6*656666ui880ysi790w",
"sfffNsdr7555++wM0>=8ggi<>yiiw8w85:2k2>0<:==>uzzkiw55ii%%>0w0>-#%yi0897idDa0%=6ii0>00wyw0080000isq50w",
"sfHfzzsr5@75.#0r<>=8fgiy00isr8w0::>>;>>>:=&0yxssrwewiy-X:0iw@%;ciw8=*58suy==*=800>0>6y00i00kkyi0ww8w",
"ssffzysw@@58##8wy>00ssi8wisirrw09:>>><:=:>=5yiisw8rrsw-%&6sw#%2liw5=@*806==*5888w0==00yw0y22zi008w70",
"iissyirw:&0w==6iyulzsszkiswwssk<::>>;>9995*=0yxi*4rfdi%O*6w0**>yiiw55*5855@48wrriy&&00yyw0;<kxy65556",
"i0i0ww8w6>00800iipxxwiklNdwwssz2*$;>>:9q555=98yk#@qrfs@+58809=:;iiy65=555555wsrfdw&-00kkw0:;kxi8@+&0",
"wiiiwwrwi0088wiiiixxsiklNfzzsMlk*$--:98w4@%=90y>@@wsfw++7w969:#*iiiw0w89::8wwrrffd090w>>ww*:>yww9980",
"y6pswrrrii099wiiwyiisivbVMxkwrvc4@OO+5r8@#&699w6@4rrfw@@wr0500##0iiwiir9-:8swwsrHfi0w860w85=668w78w0",
"wwiirr8riw5580iiy00irycvNVzw002>@@  O5wi*@=8q8w857wsfr::rsy0w0>>0ywiwww9--8wisffrrwwrw00w855>y8q55ww",
"88sirwrrw9@56iii6=0wwwccNfw875;-4@O @5wi568w88ww898wds06rMxuwwk>;6sswq06;>08isHfw00wwwq8r89:ykw5@@8w",
"65ssr8wiw0758wu0-&wwq0ccZsr880>:55#O@58w88wwrww08998iMziwwkzssk2>=tfw06>6088wwts0>0iww88w8@&0ir859ww",
"66srwwriwwwww6w6##0i5>kxisrr80>>09%%*9808wwwriy<05@5wiiiwwixssvk;:fHr00y8wrw998866iiw6wwr7@+7rsr8wsi",
"66wrewwsiiwwy006+%wi6<kxiwwr86::68%%9800w000wi<<0=@*0iis8wyisszi08tfriy0wrrr5***8www006wr7558rssrrrw",
"00wrewwrisw75=w6%%8wkuyw07ww0;%%5=%%8wy009>>wy<<<;=@>68r8w0wssrwsrrrfsw8wrrr9*+%8r80,ywrr8888wrt8q8r",
">>0wrr88iw5=%*88%&9wzzzy97q8;&.#5888ww0y876600;<2;%@*608rsyiffrrirsfHgw8q8rr85.+wsw8008errr8wwrrew8r",
">>6www5505%..#509=98zzxz9496<;#O5rrssrr8897900><2<#+5999rsyyfHswwsssHHrr8688rw++0sww758wrr65ww88qr78",
">>00865506+..@90>>9w9zbxq50y>:++5rffrerr79558002kk%@98*5ws>yfHi0wwrfHHt808=8rq@+0srw778www558w66ww8r",
"&=005===8=%.@5wi>>8w40vb94ik=@@@@5rfftr8754@58k3l2>9sr@@rs==fHrwwwwsgfsriw99rr@+qwr877ww65550060wrrw",
"=>0=*+*@=*%%=0y006wq99vvqqkl5**@+*rffssr87@490lll300sr@%rs*=tfswtswissrrsw69rq5@08rrwwew55=5000<wrww",
"=>>;-X.O&*++0i0==>8w80klwwkky65@O@rfgfssi75@58lv2<;ysr45rs99wstfHfrrissrrw85w778>68siw8887558ikkiwww",
"0<<;oX..@*O+wi6=>>wswykkiizki06&%=sggfsirr*@59lvcy;kMM99Ms09wrrsHHsrsiwwrwew75w8668wsi87w8@58wzkww00",
"l2322-+O5=O#wsy;=6ssw900iiizii>>6wrggfisgt=@50klyq*9CAqqis8qrr0wsftsiwwwwrre55579778ww958898wiyy085*",
"lklk2;.+68+@wiy>68fdw9&9isiidi><wwstgdwiHt%%50cliq59CAe0wi8wsw00rtHsi66wrrrr54577777rw9998wwww;;09**"
};
