/* XPM */
static char *_87b3a0c3730429982a50d149a9e2dd89unrTJTXLH5GgY5V[] = {
/* columns rows colors chars-per-pixel */
"100 100 54 1 ",
"  c black",
". c #060A03",
"X c #100E0A",
"o c #121F0A",
"O c #18290D",
"+ c #222D14",
"@ c #2F291F",
"# c #253E13",
"$ c #353323",
"% c #3E362A",
"& c #2B4817",
"* c #344B1E",
"= c #375C1D",
"- c #3D6720",
"; c #414829",
": c #47522C",
"> c #515533",
", c #5D513F",
"< c #476A28",
"1 c #497B27",
"2 c #635C42",
"3 c #6D5F49",
"4 c #8C7A5E",
"5 c #50862A",
"6 c #598931",
"7 c #5C9B31",
"8 c #66853D",
"9 c #62A534",
"0 c #6BA83B",
"q c #6C8F40",
"w c #759347",
"e c #78A446",
"r c #7EAF4A",
"t c #94AE5C",
"y c #88B251",
"u c #9BB85F",
"i c #928361",
"p c #9C8868",
"a c #9E9868",
"s c #A5A36B",
"d c #A4BB66",
"f c #AEA672",
"g c #BBA27D",
"h c #B1B771",
"j c #B7C275",
"k c #C0C57C",
"l c #C1AC80",
"z c #CAAF88",
"x c #CDC187",
"c c #D3CB8A",
"v c #DDCE91",
"b c #E9CA9D",
"n c #F0D5A0",
"m c #F9D8A7",
/* pixels */
"       @4ggggi;OOOO>lmmmmmmcy9999rjccccjr999999999999rjccccs:OOOO;igggggg4@          $acccccccccccca",
"       %gmmmmg%    %gmmmmmmcy9999ycmmmmcy999999999999ycmmmmg%    %gmmmmmmg%          %gmmmmmmmmmmmmg",
"       %gmmmmg%    %gmmmmmmcy9999ycmmmmcy999999999999ycmmmmg%    %gmmmmmmg%          %gmmmmmmmmmmmmg",
"       %gmmmmg%    %gmmmmmmcy9999ycmmmmcy999999999999ycmmmmg%    %gmmmmmmg%          %gmmmmmmmmmmmmg",
"       %gmmmmg%    %gmmmmmmcy9999ycmmmmcy999999999999ycmmmmg%    %gmmmmmmg%          %gmmmmmmmmmmmmg",
"oOOOOOO:sccccs:OOOO:sccccccjr9999esggggftyyyye61111118aggggp,%%%%2fccccccs:OOOOo.    @4ggggggzbmmmmg",
"=1111116eyyyye611116eyyyyyyr099996:%%%%2fccccs:OOOOOO+$%%%%,pggggftyyyyyye61111=o    X@%%%%%%3zmmmmg",
"1999999999999999999999999999999991O    %gmmmmg%            %gmmmmcy9999999999991O            %gmmmmg",
"1999999999999999999999999999999991O    %gmmmmg%            %gmmmmcy9999999999991O            %gmmmmg",
"1999999999999999999999999999999991O    %gmmmmg%            %gmmmmcy9999999999991O            %gmmmmg",
"1999999999999999999999999999999991O    %gmmmmg%            %gmmmmcy9999999999991O            %gmmmmg",
"=1111116eyyyyr09999999999999999995&OOOO;igggg4@      X@%%%%2fccccjr9999999999995&OOOOOOOOOOOO;igggg4",
"oOOOOOO:sccccjr999999999999999999751111<;%%%%@X      @4ggggftyyyyr099999999999975111111111111<;%%%%@",
"       %gmmmmcy9999999999999999999999991O            %gmmmmcy999999999999999999999999999999991O     ",
"       %gmmmmcy9999999999999999999999991O            %gmmmmcy999999999999999999999999999999991O     ",
"       %gmmmmcy9999999999999999999999991O            %gmmmmcy999999999999999999999999999999991O     ",
"       %gmmmmcy9999999999999999999999991O            %gmmmmcy999999999999999999999999999999991O     ",
"       %gmmmmcy9999999999999999999999991O            %gmmmmcy999999999999999999999999999999991O     ",
"       %gmmmmcy9999999999999999999999991O            %gmmmmcy999999999999999999999999999999991O     ",
"oOOOOOO;iggggse9999999999999999999999991O            %gmmmmcy999999999999999999999999999999991O     ",
"=111111<;%%%%:69999999999999999999999991O            %gmmmmcy999999999999999999999999999999991O     ",
"19999991O    O19999999999999999999999991O            %gmmmmcy999999999999999999999999999999991O     ",
"19999991O    O19999999999999999999999991O            %gmmmmcy999999999999999999999999999999991O     ",
"19999991O    O19999999999999999999999991O            %gmmmmcy999999999999999999999999999999991O     ",
"19999991O    O19999999999999999999999991O            %gmmmmcy999999999999999999999999999999991O     ",
"19999991O    +8yyyyr09999999999999999991O            %gmmmmcy999999999999999999999999999999995&OOOOo",
"19999991O    $accccjr9999999999999999991O            %gmmmmcy99999999999999999999999999999999751111=",
"19999991O    %gmmmmcy9999999999999999991O            %gmmmmcy999999999999999999999999999999999999991",
"19999991O    %gmmmmcy9999999999999999991O            %gmmmmcy999999999999999999999999999999999999991",
"19999991O    %gmmmmcy9999999999999999991O            %gmmmmcy999999999999999999999999999999999999991",
"19999991O    %gmmmmcy9999999999999999991O            %gmmmmcy999999999999999999999999999999999999991",
"19999991O    %gmmmmcy9999999999999999991O    X@%%%%%%2fccccjr999999999999999999999999999999999999991",
"19999991O    %gmmmmcy9999999999999999991O    @4ggggggftyyyyr0999999999999999999999999999999999999991",
"19999991O    %gmmmmcy9999999999999999991O    %gmmmmmmcy999999999999999999999999999999999999999999991",
"19999991O    %gmmmmcy9999999999999999991O    %gmmmmmmcy999999999999999999999999999999999999999999991",
"19999991O    %gmmmmcy9999999999999999991O    %gmmmmmmcy999999999999999999999999999999999999999999991",
"19999991O    %gmmmmcy9999999999999999991O    %gmmmmmmcy999999999999999999999999999999999999999999991",
"59999991O    $accccjr9999999999999999991O    %gmmmmmmcy999999999999999999999999999999999999999999995",
"79999991O    +8yyyyr09999999999999999991O    %gmmmmmmcy999999999999999999999999999999999999999999997",
"99999991O    O19999999999999999999999991O    %gmmmmmmcy999999999999999999999999999999999999999999999",
"99999991O    O19999999999999999999999991O    %gmmmmmmcy999999999999999999999999999999999999999999999",
"99999991O    O19999999999999999999999991O    %gmmmmmmcy999999999999999999999999999999999999999999999",
"99999991O    O19999999999999999999999991O    %gmmmmmmcy999999999999999999999999999999999999999999999",
"1111111<;%%%%:69999999999999999999999991O    %gmmmmmmcy9999999999999999999999999999990ryyyyyyyyyyyye",
"OOOOOOO;iggggse9999999999999999999999991O    %gmmmmmmcy999999999999999999999999999999rjccccccccccccs",
"       %gmmmmcy9999999999999999999999991O    %gmmmmmmcy999999999999999999999999999999ycmmmmmmmmmmmmg",
"       %gmmmmcy9999999999999999999999991O    %gmmmmmmcy999999999999999999999999999999ycmmmmmmmmmmmmg",
"       %gmmmmcy9999999999999999999999991O    %gmmmmmmcy999999999999999999999999999999ycmmmmmmmmmmmmg",
"       %gmmmmcy9999999999999999999999991O    %gmmmmmmcy999999999999999999999999999999ycmmmmmmmmmmmmg",
".      %gmmmmcy9999999999999999999999991O    %gmmmmmmcy9999999999999999999999990ryyyyukccccccccccccs",
"o      %gmmmmcy9999999999999999999999991O    %gmmmmmmcy999999999999999999999999rjcccckuyyyyyyyyyyyye",
"O      %gmmmmcy9999999999999999999999991O    %gmmmmmmcy999999999999999999999999ycmmmmcy9999999999999",
"O      %gmmmmcy9999999999999999999999991O    %gmmmmmmcy999999999999999999999999ycmmmmcy9999999999999",
"O      %gmmmmcy9999999999999999999999991O    %gmmmmmmcy999999999999999999999999ycmmmmcy9999999999999",
"O      %gmmmmcy9999999999999999999999991O    %gmmmmmmcy999999999999999999999999ycmmmmcy9999999999999",
"&OOOOOO;iggggse999999999999999999751111=o    %gmmmmmmcy999999999999999999999999ycmmmmcy9999999999999",
"5111111<;%%%%:69999999999999999995&OOOOo.    %gmmmmmmcy999999999999999999999999ycmmmmcy9999999999999",
"99999991O    O19999999999999999991O          %gmmmmmmcy999999999999999999999999ycmmmmcy9999999999999",
"99999991O    O19999999999999999991O          %gmmmmmmcy999999999999999999999999ycmmmmcy9999999999999",
"99999991O    O19999999999999999991O          %gmmmmmmcy999999999999999999999999ycmmmmcy9999999999999",
"99999991O    O19999999999999999991O          %gmmmmmmcy999999999999999999999999ycmmmmcy9999999999999",
"99999991O    O19999999999999999991O          %gmmmmmmcy999999999999999999999999ycmmmmcy9999999999999",
"99999991O    O19999999999999999991O          %gmmmmmmcy999999999999999999999999ycmmmmcy9999999999999",
"99999991O    O19999999999999999991O          %gmmmmmmcy999999999999999999999999ycmmmmcy9999999999999",
"99999991O    O19999999999999999991O          %gmmmmmmcy999999999999999999999999ycmmmmcy9999999999999",
"99999991O    O19999999999999999991O          %gmmmmmmcy999999999999999999999999ycmmmmcy9999999999999",
"99999991O    O19999999999999999991O          %gmmmmmmcy999999999999999999999999ycmmmmcy9999999999999",
"99999991O    O19999999999999999991O          %gmmmmmmcy999999999999999999999999ycmmmmcy9999999999999",
"99999991O    O19999999999999999991O          %gmmmmmmcy999999999999999999999999ycmmmmcy9999999999999",
"5111111=o    +8yyyyr0999999751111=o          %gmmmmmmxw111157999999999999751111wxmmmmcy9999999999999",
"&OOOOOOo.    $accccjr9999995&OOOOo.          %gmmmmmml>OOOO&59999999999995&OOOO>lmmmmcy9999999999999",
"O            %gmmmmcy9999991O                %gmmmmmmg%    O19999999999991O    %gmmmmcy9999999999999",
"O            %gmmmmcy9999991O                %gmmmmmmg%    O19999999999991O    %gmmmmcy9999999999999",
"O            %gmmmmcy9999991O                %gmmmmmmg%    O19999999999991O    %gmmmmcy9999999999999",
"O            %gmmmmcy9999991O                %gmmmmmmg%    O19999999999991O    %gmmmmcy9999999999999",
"O      X@%%%%3zmmmmcy9999991O    X@%%%%%%%%%%3zmmmmmmg%    o=1111579999991O    %gmmmmcy9999999999999",
"O      @4ggggzbmmmmcy9999991O    @4ggggggggggzbmmmmmmg%    .oOOOO&59999991O    %gmmmmcy9999999999999",
"O      %gmmmmmmmmmmcy9999991O    %gmmmmmmmmmmmmmmmmmmg%          O19999991O    %gmmmmcy9999999999999",
"O      %gmmmmmmmmmmcy9999991O    %gmmmmmmmmmmmmmmmmmmg%          O19999991O    %gmmmmcy9999999999999",
"O      %gmmmmmmmmmmcy9999991O    %gmmmmmmmmmmmmmmmmmmg%          O19999991O    %gmmmmcy9999999999999",
"O      %gmmmmmmmmmmcy9999991O    %gmmmmmmmmmmmmmmmmmmg%          O19999991O    %gmmmmcy9999999999999",
"O      %gmmmmnvcccchq111111<;%%%%2fccccccccccccccccccs:OOOOOOOOOO#-111111=o    %gmmmmcy9999999999999",
"O      %gmmmmvdyyyyq*OOOOOO;iggggftyyyyyyyyyyyyyyyyyye61111111111-#OOOOOOo.    %gmmmmcy9999999999999",
"O      %gmmmmcy99991O      %gmmmmcy9999999999999999999999999999991O            %gmmmmcy9999999999999",
"O      %gmmmmcy99991O      %gmmmmcy9999999999999999999999999999991O            %gmmmmcy9999999999999",
"O      %gmmmmcy99991O      %gmmmmcy9999999999999999999999999999991O            %gmmmmcy9999999999999",
"O      %gmmmmcy99991O      %gmmmmcy9999999999999999999999999999991O            %gmmmmcy9999999999999",
"O      %gmmmmcy99991O      %gmmmmcy999999999999999999999999751111=o            %gmmmmcy9999999999999",
"O      %gmmmmcy99991O      %gmmmmcy9999999999999999999999995&OOOOo.            %gmmmmcy9999999999999",
"O      %gmmmmcy99991O      %gmmmmcy9999999999999999999999991O                  %gmmmmcy9999999999999",
"O      %gmmmmcy99991O      %gmmmmcy9999999999999999999999991O                  %gmmmmcy9999999999999",
"O      %gmmmmcy99991O      %gmmmmcy9999999999999999999999991O                  %gmmmmcy9999999999999",
"O      %gmmmmcy99991O      %gmmmmcy9999999999999999999999991O                  %gmmmmcy9999999999999",
"o      @4ggggse99996:%%%%%%2fccccjr9999999999999999999999995&OOOOo.            @4ggggse9999999999997",
".      X@%%%%:69999esggggggftyyyyr0999999999999999999999999751111=o            X@%%%%:69999999999995",
"             O19999ycmmmmmmcy9999999999999999999999999999999999991O                  O19999999999991",
"             O19999ycmmmmmmcy9999999999999999999999999999999999991O                  O19999999999991",
"             O19999ycmmmmmmcy9999999999999999999999999999999999991O                  O19999999999991",
"             O19999ycmmmmmmcy9999999999999999999999999999999999991O                  O19999999999991",
"             O19999ycmmmmmmcy9999999999999999999999999999999999991O                  O19999999999991"
};
