/* XPM */
static char *result[] = {
/* columns rows colors chars-per-pixel */
"50 48 197 2 ",
"   c #010102",
".  c #0B0403",
"X  c #02030A",
"o  c #0A040A",
"O  c #00080D",
"+  c #090C00",
"@  c #110602",
"#  c #120B06",
"$  c #150A0C",
"%  c #1C0D0D",
"&  c #1A0F00",
"*  c #0B1100",
"=  c #1A120C",
"-  c #1B160F",
";  c #080717",
":  c #140714",
">  c #140C13",
",  c #170718",
"<  c #1C1212",
"1  c #1D1518",
"2  c #1F1818",
"3  c #171312",
"4  c #261000",
"5  c #24110E",
"6  c #2B1A0D",
"7  c #361700",
"8  c #210C14",
"9  c #2A0E1C",
"0  c #231613",
"q  c #2B1516",
"w  c #241C1B",
"e  c #2C1C1B",
"r  c #271717",
"t  c #391C1A",
"y  c #371D17",
"u  c #35221B",
"i  c #3A231C",
"p  c #392518",
"a  c #393112",
"s  c #12002F",
"d  c #1B032A",
"f  c #0A1025",
"g  c #1E0D34",
"h  c #27082B",
"j  c #330D24",
"k  c #251C22",
"l  c #2A1426",
"z  c #32142B",
"x  c #351B2D",
"c  c #230038",
"v  c #310D37",
"b  c #321534",
"n  c #361B34",
"m  c #3D193B",
"M  c #38153C",
"N  c #2F2324",
"B  c #2F2228",
"V  c #362829",
"C  c #3B2932",
"Z  c #441A00",
"A  c #481D13",
"S  c #4B2A00",
"D  c #4B2816",
"F  c #592F1A",
"G  c #45321E",
"H  c #5C371D",
"J  c #401D29",
"K  c #401E37",
"L  c #462D24",
"P  c #462427",
"I  c #532E25",
"U  c #592A2B",
"Y  c #4E332D",
"T  c #53342B",
"R  c #5A342A",
"E  c #513B2C",
"W  c #5B3B2D",
"Q  c #5A3625",
"!  c #47283F",
"~  c #442937",
"^  c #473537",
"/  c #4B3137",
"(  c #4C3F3B",
")  c #5C3C34",
"_  c #57373C",
"`  c #63372B",
"'  c #6B3C2C",
"]  c #633829",
"[  c #733124",
"{  c #6A3B32",
"}  c #704118",
"|  c #704611",
" . c #4A422B",
".. c #55433D",
"X. c #594537",
"o. c #6B4533",
"O. c #6E463D",
"+. c #774837",
"@. c #72573B",
"#. c #401147",
"$. c #421C45",
"%. c #461D4C",
"&. c #4C1F4E",
"*. c #4E1F5B",
"=. c #46214D",
"-. c #4B224C",
";. c #472B43",
":. c #5E2F48",
">. c #4E2254",
",. c #4C2B53",
"<. c #52245B",
"1. c #57295B",
"2. c #5C315D",
"3. c #673E4C",
"4. c #703B4C",
"5. c #683D51",
"6. c #571C77",
"7. c #631A6E",
"8. c #5D2463",
"9. c #562C64",
"0. c #5C2D64",
"q. c #5D2B6C",
"w. c #542760",
"e. c #5D2E72",
"r. c #5F3273",
"t. c #602068",
"y. c #672B66",
"u. c #6D3467",
"i. c #713763",
"p. c #632E73",
"a. c #68267C",
"s. c #693275",
"d. c #6C327D",
"f. c #663179",
"g. c #753A78",
"h. c #574442",
"j. c #764A49",
"k. c #685049",
"l. c #7D584D",
"z. c #6F5E5A",
"x. c #785954",
"c. c #7B6454",
"v. c #7E625D",
"b. c #71436E",
"n. c #7F6E66",
"m. c #8D4E3D",
"M. c #854E3F",
"N. c #85563A",
"B. c #96583B",
"V. c #A34F3A",
"C. c #AB593A",
"Z. c #844D45",
"A. c #805640",
"S. c #825B47",
"D. c #985A45",
"F. c #A75F49",
"G. c #9B6347",
"H. c #8B6955",
"J. c #946A51",
"K. c #9D6754",
"L. c #AD674C",
"P. c #B5674C",
"I. c #B6724F",
"U. c #A06751",
"Y. c #AC7555",
"T. c #B47450",
"R. c #844E63",
"E. c #885B6C",
"W. c #90597C",
"Q. c #9E6363",
"!. c #897169",
"~. c #957870",
"^. c #B17769",
"/. c #C5684D",
"(. c #D57C5A",
"). c #B28268",
"_. c #CC8B64",
"`. c #E79C6D",
"'. c #D9A876",
"]. c #E3B07C",
"[. c #6B2987",
"{. c #6F328A",
"}. c #733584",
"|. c #723688",
" X c #7A3A8E",
".X c #773788",
"XX c #7C3B92",
"oX c #7F35A2",
"OX c #843E96",
"+X c #823E9B",
"@X c #88409F",
"#X c #85409D",
"$X c #8C44A5",
"%X c #8D45A8",
"&X c #9245AA",
"*X c #FFBB85",
"=X c None",
/* pixels */
"=X=X=X=X=X=X=X=X=X=X=X=X=X=X=X=X=X=X=X=X=X=X=X=X=X=X=X=X=X=X=X=X=X=X=X=X=X=X=X=X=X=X=X=X=X=X=X=X=X=X",
"=X=X=X=X=X=X=X=X=X=X=X=X=X=X=X=X=X=X=X=X=X=X=X=X=X=X=X=X=X=X=X=X=X=X=X=X=X=X=X=X=X=X=X=X=X=X=X=X=X=X",
"=X=X=X=X=X=X=X=X=X=X=X=X=X=X=X=X=X=X=X=X=X=X=X=X=X=X=X=X=X=X=X=X=X=X=X=X=X=X=X=X=X=X=X=X=X=X=X=X=X=X",
"=X=X=X=X=X=X=X=X=X=X=X=X=X=X=X=X=X=X=X=X=X=X=X=X=X=X=X=X=X=X=X=X=X=X=X=X=X=X=X=X=X=X=X=X=X=X=X=X=X=X",
"=X=X=X=X=X=X=X=X=X=X=X=X=X=X=X=X=X=X=X=X=X=X=X=X=X=X=X=X=X=X=X=X=X=X=X=X=X=X=X=X=X=X=X=X=X=X=X=X=X=X",
"=X=X=X=X=X=X=X=X=X=X=X=X=X=X=X=X=X=X=X=X=X=X=X=X=X=X=X=X=X=X=X=X=X=X=X=X=X=X=X=X=X=X=X=X=X=X=X=X=X=X",
"=X=X=X=X=X=X=X=X=X=X=X=X=X=X=X=X=X=X=X=X=X=X=X=X=X=X=X=X=X=X=X=X=X=X=X=X=X=X=X=X=X=X=X..n.=X=X=X=X=X",
"=X=X=X=X=X=X=X=X=X=X=X=X=X=X=X=X=X=X=X=X=X=X=X=X=X=X=X=X=X=X=X=X=X=X=X=X=X=X=X=X=X=XC ..=X=X=X=X=X=X",
"=X=X=X=X=X=X=X=X=X=X=X=X=X=X=X=X=X=X=X=X=X=X=X=X=X=X=X=X=X=X=X=X=X=X=X=X=X=X=X=X=XV N B =X=X=X=X=X=X",
"=X=X=X=X=X=X=X=X=X=X=X=X=X=X=X=X=X=X=X=X=X=X=X=X=X=X=X=X=X=X=X=X=X=X=X=X=X=X=X=X=X3 3 =X=X=X=X=X=X=X",
"=X=X=X=X=X=X=X=X=X=X=X=X=X=X=X=X=X=X=X=X=X=X=X=X=X=X=X=X=X=X=X=X=X=X=X=X=X=X=X=X=X  . =X=X=X=X=X=X=X",
"=X=X=X=X=X=X=X=X=X=X=X=X=X=X=X=X=X=X=X=X=X=X=X=X=X=X=X=X=X=X=X=X=X=X=X=X=X=X=X=Xi p r =X=X=X=X=X=X=X",
"=X=X=X=X=X=X=X=X=X=X=X=X=X=X=X=X=X=X=X=X=X=X=X=X=X=X=X=X=X=X=X=X=X=X=X=X=X=X=X=XT Q 0 =X=X=X=X=X=X=X",
"=X=X=X=X=X=X=X=X=X=X=X=X=X=X=X=X=X=X=X=X=X=X=X=X=X=X=X=X=X=X=X=X=X=X=X=X=X=X..^ T p 2 =X=X=X=X=X=X=X",
"=X=X=X=X=X=X=X=X=X=X=X=X=X=X=X=X=X=X=X=X=X=X=X=X=X=X=X=XXX=X=X=X=X=X=X=X=X=XL o.T y =X=X=X=X=X=X=X=X",
"=X=X=X=X=X=X=X=X=X=X=X=X=X=X=X=X=X=X=X=X=X=X=X=X=XXX1.d.%X9.=X=X=X=X=X=X=X=XY.G.Z c.!.=X=X=X=X=X=X=X",
"=X=X=X=X=X=X=X=X=X=X=X=X=X=X=X=X=X=X=X'.=X=X#XOXOX}.%.9.+Xp.,. X&X}.=X=X=X+._.G.% V h.=X=X=X=X=X=X=X",
"=X=X=X=X=X=X=X=X=X=X=X=X=X=X=X=X/._.`.*X@.[.$X1.z m *.f.e.$.q.d.d.,.G ^ +.].Y.A w =X=X=X=X=X=X=X=X=X",
"=X=X=X=X=X=X=X=X=X=X=X=X=Xm.D.V.C.P.F.U   }.d.z %.1.f.M : &.=.l n n W D.T.'.N.6 =X=X=X=X=X=X=X=X=X=X",
"=X=X=X=X=X=X=X=X=XW L R { +.D X     i X * -.%.>.p.6.s z &.K 9 K  X2.} D.L.K.T =X=X=X=X=X=X=X=X=X=X=X",
"=X=X=X=X=X=X=Xz.l.. % ` {   =X=X=X=X=X8 < & -.q.g.Q.{ #.M 8 &.d.$X0.S { o.` x.v.=X=X=X=X=X=X=X=X=X=X",
"=X=X=X=X=X=X=Xw =X=X=X+.R =X=X=X=X=X=Xk + %.s.8.Z.I.B.Y ! j <..X+XM 4     O > ^ =X=X=X=X=X=X=X=X=X=X",
"=X=X=X=X=X=X=X=X=X=X=X) =X=X=X=X=X=X=X* 9 f.{.4.C.[ ] W J t.}.OX X  ~.H.=X=X=X=X=X=X=X=X=X=X=X=X=X=X",
"=X=X=X=X=X=X=X=X=X=X=X=X=X=X=X=X=X=X0 z 9.d.i.D.m.F J $.y.OX+X+Xq.=Xk.!.=X=X=X=X=X=X=X=X=X=X=X=X=X=X",
"=X=X=X=X=X=X=X=X=X=X=X=X=X=X=X=X=X=XX.h >.5.+.] q   , K %.p. Xq.=X=X=X=X=X=X=X=X=X=X=X=X=X=X=X=X=X=X",
"=X=X=X=X=X=X=X=X=X=X=X=X=X=X=X=X=XZ.I p D F T g : @ : -.p.+Xp.  1 f _ =X=X=X=X=X=X=X=X=X=X=X=X=X=X=X",
"=X=X=X=X=X=X=X=X=X=X=X=X=X=X=X=X=X=Xz 3./ ) h z .   : z >.q.      ; x P =X=X=X=X=X=X=X=X=X=X=X=X=X=X",
"=X=X=X=X=X=X=X=X=X=X=X=X=Xk.).j.K.N.d m x.C b                 X     3 t =X=X=X=X=X=X=X=X=X=X=X=X=X=X",
"=X=X=X=X=X=X=X=X=X=X=X=X=Xa g. Xg.2.>.m ~ o           . o ;   . o . q 5 0 =X=X=X=X=X=X=X=X=X=X=X=X=X",
"=X=X=X=X=X=X=X=X=X=X=X=X=X=X;.x.8.{.<.p.v   o X       =X. . . =X=X= e t y =X=X=X=X=X=X=X=X=X=X=X=X=X",
"=X=X=X=X=X=X=X=X=X=X=X=X=X=XX.3.XXXX=.b X . X       =X=X=X$ @ . =X0 R I t =X=X=X=X=X=X=X=X=X=X=X=X=X",
"=X=X=X=X=X=X=X=X=X=X=X=X=X=Xw g M 7 =   1   =X=X=X=X=X=X=X=Xo . O y ` ` =X=X=X=X=X=X=X=X=X=X=X=X=X=X",
"=X=X=X=X=X=X=X=X=X=X=X=X=X=X2 = + o p H.^ =X=X=X=X=X=X=X=X=X#     i Q ` =X=X=X=X=X=X=X=X=X=X=X=X=X=X",
"=X=X=X=X=X=X=X=X=X=X=X=X=X> # =X=X=XE S.=X=X=X=X=X=X=X=X=X=X# #   $ t < =X=X=X=X=X=X=X=X=X=X=X=X=X=X",
"=X=X=X=X=X=X=X=X=X=X=X=Xk o =X=X=X=X$   =X=X=X=X=X=X=X=X=X=X=X=X=X=X5 i V =X=X=X=X=X=X=X=X=X=X=X=X=X",
"=X=X=X=X=X=X=X=X=X=X=X=X=X=X=X=X=X=XN N =X=X=X=X=X=X=X=X=X=X=X=X=X=XO y w =X=X=X=X=X=X=X=X=X=X=X=X=X",
"=X=X=X=X=X=X=X=X=X=X=X=X=X=X=X=X=XB w =X=X=X=X=X=X=X=X=X=X=X=X=XH Y N.o.u =X=X=X=X=X=X=X=X=X=X=X=X=X",
"=X=X=X=X=X=X=X=X=X=X=X=X=X=X=X=Xk 2 =X=X=X=X=X=X=X=X=X=X=X=X| N._ O.G.m.W =X=X=X=X=X=X=X=X=X=X=X=X=X",
"=X=X=X=X=X=X=X=X=X=X=X=X=X=X=X=X=X=X=X=X=X=X=X=X=X=X=X=XJ.^.g.7.y.Q :.A.=X=X=X=X=X=X=X=X=X=X=X=X=X=X",
"=X=X=X=X=X=X=X=X=X=X=X=X=X=X=X=X=X=X=X=X=X=X=X=X=X=X=X=XE c a.E.j.}.g.+.=X=X=X=X=X=X=X=X=X=X=X=X=X=X",
"=X=X=X=X=X=X=X=X=X=X=X=X=X=X=X=X=X=X=X=X=X=X=X=X=X=X=X=X=X=X .H.u.+XW.J.=X=X=X=X=X=X=X=X=X=X=X=X=X=X",
"=X=X=X=X=X=X=X=X=X=X=X=X=X=X=X=X=X=X=X=X=X=X=X=X=X=X=X=X=X=X..=X=X=Xh.c.=X=X=X=X=X=X=X=X=X=X=X=X=X=X",
"=X=X=X=X=X=X=X=X=X=X=X=X=X=X=X=X=X=X=X=X=X=X=X=X=X=X=X=X=X=X=X=X=X=X=X=X=X=X=X=X=X=X=X=X=X=X=X=X=X=X",
"=X=X=X=X=X=X=X=X=X=X=X=X=X=X=X=X=X=X=X=X=X=X=X=X=X=X=X=X=X=X=X=X=X=X=X=X=X=X=X=X=X=X=X=X=X=X=X=X=X=X",
"=X=X=X=X=X=X=X=X=X=X=X=X=X=X=X=X=X=X=X=X=X=X=X=X=X=X=X=X=X=X=X=X=X=X=X=X=X=X=X=X=X=X=X=X=X=X=X=X=X=X",
"=X=X=X=X=X=X=X=X=X=X=X=X=X=X=X=X=X=X=X=X=X=X=X=X=X=X=X=X=X=X=X=X=X=X=X=X=X=X=X=X=X=X=X=X=X=X=X=X=X=X",
"=X=X=X=X=X=X=X=X=X=X=X=X=X=X=X=X=X=X=X=X=X=X=X=X=X=X=X=X=X=X=X=X=X=X=X=X=X=X=X=X=X=X=X=X=X=X=X=X=X=X",
"=X=X=X=X=X=X=X=X=X=X=X=X=X=X=X=X=X=X=X=X=X=X=X=X=X=X=X=X=X=X=X=X=X=X=X=X=X=X=X=X=X=X=X=X=X=X=X=X=X=X"
};
