/* XPM */
static char *result[] = {
/* columns rows colors chars-per-pixel */
"50 48 198 2 ",
"   c #020202",
".  c #0B0503",
"X  c #00050D",
"o  c #0A040A",
"O  c #00080D",
"+  c #080C00",
"@  c #110702",
"#  c #120B06",
"$  c #150A0C",
"%  c #1B0D0D",
"&  c #1A0F00",
"*  c #0B1100",
"=  c #17100E",
"-  c #191309",
";  c #080717",
":  c #130613",
">  c #140C13",
",  c #1B0A17",
"<  c #1D1311",
"1  c #1D1518",
"2  c #1F1818",
"3  c #1B1812",
"4  c #251000",
"5  c #24110E",
"6  c #2D1C0E",
"7  c #361700",
"8  c #250D16",
"9  c #251714",
"0  c #2B1516",
"q  c #241C1B",
"w  c #2C1C1B",
"e  c #281718",
"r  c #391C1A",
"t  c #371D17",
"y  c #352116",
"u  c #36231D",
"i  c #3B221B",
"p  c #3B271A",
"a  c #393112",
"s  c #180024",
"d  c #11002F",
"f  c #1C092F",
"g  c #0A1024",
"h  c #1E0D34",
"j  c #20002C",
"k  c #26082B",
"l  c #320D24",
"z  c #2F1527",
"x  c #251C22",
"c  c #261625",
"v  c #32132C",
"b  c #351A2C",
"n  c #210038",
"m  c #310D37",
"M  c #321434",
"N  c #361B34",
"B  c #3D1A3B",
"V  c #39153C",
"C  c #2E2224",
"Z  c #2F2228",
"A  c #372829",
"S  c #3B2932",
"D  c #451B02",
"F  c #481D13",
"G  c #4B2A00",
"H  c #4B2816",
"J  c #582F1A",
"K  c #5C371E",
"L  c #401C28",
"P  c #401E37",
"I  c #482827",
"U  c #532E25",
"Y  c #582A2B",
"T  c #463124",
"R  c #4E352E",
"E  c #53342B",
"W  c #5A352A",
"Q  c #513B2C",
"!  c #5C3B2D",
"~  c #5A3625",
"^  c #47283F",
"/  c #442937",
"(  c #473537",
")  c #4C3136",
"_  c #4C3F3B",
"`  c #5C3B34",
"'  c #57393C",
"]  c #64372B",
"[  c #633A2C",
"{  c #683928",
"}  c #633325",
"|  c #733123",
" . c #6A3B32",
".. c #704416",
"X. c #4A422D",
"o. c #574539",
"O. c #6E412F",
"+. c #6B4533",
"@. c #6E463D",
"#. c #724435",
"$. c #794938",
"%. c #72573B",
"&. c #401147",
"*. c #421C45",
"=. c #461E4B",
"-. c #4A1D4E",
";. c #4E1F5B",
":. c #46214D",
">. c #4B224D",
",. c #472B43",
"<. c #5E2E48",
"1. c #4E2254",
"2. c #4C2B53",
"3. c #52245B",
"4. c #57295B",
"5. c #5C315D",
"6. c #683E4C",
"7. c #703B4C",
"8. c #683C51",
"9. c #571C77",
"0. c #63196E",
"q. c #5D2464",
"w. c #552C63",
"e. c #5B2D65",
"r. c #5D2B6C",
"t. c #542760",
"y. c #5E2E72",
"u. c #602068",
"i. c #672C66",
"p. c #6D3367",
"a. c #713763",
"s. c #632E73",
"d. c #67267B",
"f. c #6A3276",
"g. c #6C327C",
"h. c #633276",
"j. c #753A78",
"k. c #564442",
"l. c #754949",
"z. c #685149",
"x. c #7D584D",
"c. c #6F5F5B",
"v. c #7C5F55",
"b. c #785A58",
"n. c #7D6558",
"m. c #71436E",
"M. c #7E6E66",
"N. c #8A4D3D",
"B. c #8B533E",
"V. c #845639",
"C. c #96583B",
"Z. c #A34F3A",
"A. c #AB593A",
"S. c #844D45",
"D. c #815944",
"F. c #985A45",
"G. c #A85F49",
"H. c #9C6346",
"J. c #8B6A55",
"K. c #946A51",
"L. c #9E6855",
"P. c #AD684D",
"I. c #B5674C",
"U. c #B6724F",
"Y. c #A16752",
"T. c #AD7554",
"R. c #B57451",
"E. c #844E63",
"W. c #885B6C",
"Q. c #90597C",
"!. c #9E6363",
"~. c #897169",
"^. c #947870",
"/. c #B17769",
"(. c #C56A4D",
"). c #D57D5A",
"_. c #B28268",
"`. c #CC8B64",
"'. c #E79B6E",
"]. c #D9A876",
"[. c #E3AF7C",
"{. c #6B2987",
"}. c #6C3285",
"|. c #733584",
" X c #723688",
".X c #7A398D",
"XX c #773789",
"oX c #7C3B92",
"OX c #7F35A2",
"+X c #843E96",
"@X c #823E9B",
"#X c #88409F",
"$X c #85409D",
"%X c #8C44A5",
"&X c #8D45A8",
"*X c #9245AA",
"=X c #FFBB85",
"-X c None",
/* pixels */
"-X-X-X-X-X-X-X-X-X-X-X-X-X-X-X-X-X-X-X-X-X-X-X-X-X-X-X-X-X-X-X-X-X-X-X-X-X-X-X-X-X-X-X-X-X-X-X-X-X-X",
"-X-X-X-X-X-X-X-X-X-X-X-X-X-X-X-X-X-X-X-X-X-X-X-X-X-X-X-X-X-X-X-X-X-X-X-X-X-X-X-X-X-X-X-X-X-X-X-X-X-X",
"-X-X-X-X-X-X-X-X-X-X-X-X-X-X-X-X-X-X-X-X-X-X-X-X-X-X-X-X-X-X-X-X-X-X-X-X-X-X-X-X-X-X-X-X-X-X-X-X-X-X",
"-X-X-X-X-X-X-X-X-X-X-X-X-X-X-X-X-X-X-X-X-X-X-X-X-X-X-X-X-X-X-X-X-X-X-X-X-X-X-X-X-X-X-X-X-X-X-X-X-X-X",
"-X-X-X-X-X-X-X-X-X-X-X-X-X-X-X-X-X-X-X-X-X-X-X-X-X-X-X-X-X-X-X-X-X-X-X-X-X-X-X-X-X-X-X-X-X-X-X-X-X-X",
"-X-X-X-X-X-X-X-X-X-X-X-X-X-X-X-X-X-X-X-X-X-X-X-X-X-X-X-X-X-X-X-X-X-X-X-X-X-X-X-X-X-X-X-X-X-X-X-X-X-X",
"-X-X-X-X-XM.o.-X-X-X-X-X-X-X-X-X-X-X-X-X-X-X-X-X-X-X-X-X-X-X-X-X-X-X-X-X-X-X-X-X-X-X-X-X-X-X-X-X-X-X",
"-X-X-X-X-X-Xo.S -X-X-X-X-X-X-X-X-X-X-X-X-X-X-X-X-X-X-X-X-X-X-X-X-X-X-X-X-X-X-X-X-X-X-X-X-X-X-X-X-X-X",
"-X-X-X-X-X-XZ C A -X-X-X-X-X-X-X-X-X-X-X-X-X-X-X-X-X-X-X-X-X-X-X-X-X-X-X-X-X-X-X-X-X-X-X-X-X-X-X-X-X",
"-X-X-X-X-X-X-X3 = -X-X-X-X-X-X-X-X-X-X-X-X-X-X-X-X-X-X-X-X-X-X-X-X-X-X-X-X-X-X-X-X-X-X-X-X-X-X-X-X-X",
"-X-X-X-X-X-X-Xo   -X-X-X-X-X-X-X-X-X-X-X-X-X-X-X-X-X-X-X-X-X-X-X-X-X-X-X-X-X-X-X-X-X-X-X-X-X-X-X-X-X",
"-X-X-X-X-X-X-Xe u i -X-X-X-X-X-X-X-X-X-X-X-X-X-X-X-X-X-X-X-X-X-X-X-X-X-X-X-X-X-X-X-X-X-X-X-X-X-X-X-X",
"-X-X-X-X-X-X-X< ! U -X-X-X-X-X-X-X-X-X-X-X-X-X-X-X-X-X-X-X-X-X-X-X-X-X-X-X-X-X-X-X-X-X-X-X-X-X-X-X-X",
"-X-X-X-X-X-X-X2 y Q R _ -X-X-X-X-X-X-X-X-X-X-X-X-X-X-X-X-X-X-X-X-X-X-X-X-X-X-X-X-X-X-X-X-X-X-X-X-X-X",
"-X-X-X-X-X-X-X-Xt ~ +.T -X-X-X-X-X-X-X-X-XoX-X-X-X-X-X-X-X-X-X-X-X-X-X-X-X-X-X-X-X-X-X-X-X-X-X-X-X-X",
"-X-X-X-X-X-X-X~.v.D H.T.-X-X-X-X-X-X-X-Xw.&Xg.4.oX-X-X-X-X-X-X-X-X-X-X-X-X-X-X-X-X-X-X-X-X-X-X-X-X-X",
"-X-X-X-X-X-X-Xk.A % H.`.#.-X-X-X|.*X.X2.h.oXw.=.XX+X@X+X-X-X].-X-X-X-X-X-X-X-X-X-X-X-X-X-X-X-X-X-X-X",
"-X-X-X-X-X-X-X-X-Xq F T.[.$.) T 2.g.g.r.*.s.g.;.V z 3.&X{.%.=X'.).(.-X-X-X-X-X-X-X-X-X-X-X-X-X-X-X-X",
"-X-X-X-X-X-X-X-X-X-X6 V.].R.F.` N N z :.-., V f.e.=.v g.|.  Y G.I.A.Z.F.S.-X-X-X-X-X-X-X-X-X-X-X-X-X",
"-X-X-X-X-X-X-X-X-X-X-XE Y.P.F...e..XB 0 P -.v d 9.i.1.=.>.* X i       H N. .U I ! -X-X-X-X-X-X-X-X-X",
"-X-X-X-X-X-X-X-X-X-XJ.b.[ +. .G e.%X|.-.% V &. .!.g.r.1.& < , -X-X-X-X-X   .[ % . x.c.-X-X-X-X-X-X-X",
"-X-X-X-X-X-X-X-X-X-X( , X   . 4 B +XXX3.l ^ ) C.U.N.q.f.:.+ c -X-X-X-X-X-XW @.-X-X-Xe -X-X-X-X-X-X-X",
"-X-X-X-X-X-X-X-X-X-X-X-X-X-Xn.^.  .X@X X4.L ` } | A.7.}.f.0 + -X-X-X-X-X-X-X .-X-X-X-X-X-X-X-X-X-X-X",
"-X-X-X-X-X-X-X-X-X-X-X-X-X-X~.z.-Xe.%XoX+Xu.*.I J N.F.a.}.w.b 3 -X-X-X-X-X-X-X-X-X-X-X-X-X-X-X-X-X-X",
"-X-X-X-X-X-X-X-X-X-X-X-X-X-X-X-X-X-Xy..Xs.=.B :   0 } V.6.1.k o.-X-X-X-X-X-X-X-X-X-X-X-X-X-X-X-X-X-X",
"-X-X-X-X-X-X-X-X-X-X-X-X-X-X-X' g 1   s.$Xs.1.$ @ : h R J H t Y S.-X-X-X-X-X-X-X-X-X-X-X-X-X-X-X-X-X",
"-X-X-X-X-X-X-X-X-X-X-X-X-X-XI A ;       r.1.v :   . v j ' ) 6.b -X-X-X-X-X-X-X-X-X-X-X-X-X-X-X-X-X-X",
"-X-X-X-X-X-X-X-X-X-X-X-X-X-Xr >                       M S x.B s %.L.l._.z.-X-X-X-X-X-X-X-X-X-X-X-X-X",
"-X-X-X-X-X-X-X-X-X-X-X-X-X5 5 0 o o +   : o             o / B ;.5.j.XXm.a -X-X-X-X-X-X-X-X-X-X-X-X-X",
"-X-X-X-X-X-X-X-X-X-X-X-X-Xt r 0 = -X-X. . . -Xo     X o   m r.4.}.u.E.,.-X-X-X-X-X-X-X-X-X-X-X-X-X-X",
"-X-X-X-X-X-X-X-X-X-X-X-X-Xr U W 9 -X. @ $ -X-X-X      o o   M :..XoXz.o.-X-X-X-X-X-X-X-X-X-X-X-X-X-X",
"-X-X-X-X-X-X-X-X-X-X-X-X-X-X] [ y O . o -X-X-X-X-X-X-X-X  1   % 7 V f x -X-X-X-X-X-X-X-X-X-X-X-X-X-X",
"-X-X-X-X-X-X-X-X-X-X-X-X-X-X] ] u   . # -X-X-X-X-X-X-X-X-X( J.A . + - 9 -X-X-X-X-X-X-X-X-X-X-X-X-X-X",
"-X-X-X-X-X-X-X-X-X-X-X-X-X-X$ r $   . - -X-X-X-X-X-X-X-X-X-XD.R -X-X-X# > -X-X-X-X-X-X-X-X-X-X-X-X-X",
"-X-X-X-X-X-X-X-X-X-X-X-X-XA i 9 -X-X-X-X-X-X-X-X-X-X-X-X-X-X  % -X-X-X-Xo x -X-X-X-X-X-X-X-X-X-X-X-X",
"-X-X-X-X-X-X-X-X-X-X-X-X-Xq 6 X -X-X-X-X-X-X-X-X-X-X-X-X-X-Xw C -X-X-X-X-X-X-X-X-X-X-X-X-X-X-X-X-X-X",
"-X-X-X-X-X-X-X-X-X-X-X-X-Xu +.B.R K -X-X-X-X-X-X-X-X-X-X-X-X-Xq Z -X-X-X-X-X-X-X-X-X-X-X-X-X-X-X-X-X",
"-X-X-X-X-X-X-X-X-X-X-X-X-X! D.C.+.6.V...-X-X-X-X-X-X-X-X-X-X-X-X2 x -X-X-X-X-X-X-X-X-X-X-X-X-X-X-X-X",
"-X-X-X-X-X-X-X-X-X-X-X-X-X-XD.<.~ i.0.j./.K.-X-X-X-X-X-X-X-X-X-X-X-X-X-X-X-X-X-X-X-X-X-X-X-X-X-X-X-X",
"-X-X-X-X-X-X-X-X-X-X-X-X-X-X$.j.}.l.W.d.n Q -X-X-X-X-X-X-X-X-X-X-X-X-X-X-X-X-X-X-X-X-X-X-X-X-X-X-X-X",
"-X-X-X-X-X-X-X-X-X-X-X-X-X-XK.Q.@Xp.J.X.-X-X-X-X-X-X-X-X-X-X-X-X-X-X-X-X-X-X-X-X-X-X-X-X-X-X-X-X-X-X",
"-X-X-X-X-X-X-X-X-X-X-X-X-X-Xn.k.-X-X-X_ -X-X-X-X-X-X-X-X-X-X-X-X-X-X-X-X-X-X-X-X-X-X-X-X-X-X-X-X-X-X",
"-X-X-X-X-X-X-X-X-X-X-X-X-X-X-X-X-X-X-X-X-X-X-X-X-X-X-X-X-X-X-X-X-X-X-X-X-X-X-X-X-X-X-X-X-X-X-X-X-X-X",
"-X-X-X-X-X-X-X-X-X-X-X-X-X-X-X-X-X-X-X-X-X-X-X-X-X-X-X-X-X-X-X-X-X-X-X-X-X-X-X-X-X-X-X-X-X-X-X-X-X-X",
"-X-X-X-X-X-X-X-X-X-X-X-X-X-X-X-X-X-X-X-X-X-X-X-X-X-X-X-X-X-X-X-X-X-X-X-X-X-X-X-X-X-X-X-X-X-X-X-X-X-X",
"-X-X-X-X-X-X-X-X-X-X-X-X-X-X-X-X-X-X-X-X-X-X-X-X-X-X-X-X-X-X-X-X-X-X-X-X-X-X-X-X-X-X-X-X-X-X-X-X-X-X",
"-X-X-X-X-X-X-X-X-X-X-X-X-X-X-X-X-X-X-X-X-X-X-X-X-X-X-X-X-X-X-X-X-X-X-X-X-X-X-X-X-X-X-X-X-X-X-X-X-X-X",
"-X-X-X-X-X-X-X-X-X-X-X-X-X-X-X-X-X-X-X-X-X-X-X-X-X-X-X-X-X-X-X-X-X-X-X-X-X-X-X-X-X-X-X-X-X-X-X-X-X-X"
};
